  0
SECTION
  2
HEADER
  9
$ACADVER
  1
AC1015
  9
$ACADMAINTVER
 70
     6
  9
$DWGCODEPAGE
  3
ANSI_1252
  9
$INSBASE
 10
0.0
 20
0.0
 30
0.0
  9
$EXTMIN
 10
-0.8955715486
 20
-0.8959584156
 30
0.0
  9
$EXTMAX
 10
0.904623329
 20
0.9094897658
 30
0.0
  9
$LIMMIN
 10
0.0
 20
0.0
  9
$LIMMAX
 10
12.0
 20
9.0
  9
$ORTHOMODE
 70
     0
  9
$REGENMODE
 70
     1
  9
$FILLMODE
 70
     1
  9
$QTEXTMODE
 70
     0
  9
$MIRRTEXT
 70
     1
  9
$LTSCALE
 40
1.0
  9
$ATTMODE
 70
     1
  9
$TEXTSIZE
 40
0.125
  9
$TRACEWID
 40
0.05
  9
$TEXTSTYLE
  7
Standard
  9
$CLAYER
  8
0
  9
$CELTYPE
  6
ByLayer
  9
$CECOLOR
 62
   256
  9
$CELTSCALE
 40
1.0
  9
$DISPSILH
 70
     0
  9
$DIMSCALE
 40
1.0
  9
$DIMASZ
 40
0.13
  9
$DIMEXO
 40
0.05
  9
$DIMDLI
 40
0.38
  9
$DIMRND
 40
0.0
  9
$DIMDLE
 40
0.0
  9
$DIMEXE
 40
0.125
  9
$DIMTP
 40
0.0
  9
$DIMTM
 40
0.0
  9
$DIMTXT
 40
0.125
  9
$DIMCEN
 40
0.09
  9
$DIMTSZ
 40
0.0
  9
$DIMTOL
 70
     0
  9
$DIMLIM
 70
     0
  9
$DIMTIH
 70
     1
  9
$DIMTOH
 70
     1
  9
$DIMSE1
 70
     0
  9
$DIMSE2
 70
     0
  9
$DIMTAD
 70
     0
  9
$DIMZIN
 70
     0
  9
$DIMBLK
  1

  9
$DIMASO
 70
     1
  9
$DIMSHO
 70
     1
  9
$DIMPOST
  1

  9
$DIMAPOST
  1

  9
$DIMALT
 70
     0
  9
$DIMALTD
 70
     2
  9
$DIMALTF
 40
25.4
  9
$DIMLFAC
 40
1.0
  9
$DIMTOFL
 70
     0
  9
$DIMTVP
 40
0.0
  9
$DIMTIX
 70
     0
  9
$DIMSOXD
 70
     0
  9
$DIMSAH
 70
     0
  9
$DIMBLK1
  1

  9
$DIMBLK2
  1

  9
$DIMSTYLE
  2
Standard
  9
$DIMCLRD
 70
     0
  9
$DIMCLRE
 70
     0
  9
$DIMCLRT
 70
     0
  9
$DIMTFAC
 40
1.0
  9
$DIMGAP
 40
0.06
  9
$DIMJUST
 70
     0
  9
$DIMSD1
 70
     0
  9
$DIMSD2
 70
     0
  9
$DIMTOLJ
 70
     1
  9
$DIMTZIN
 70
     0
  9
$DIMALTZ
 70
     0
  9
$DIMALTTZ
 70
     0
  9
$DIMUPT
 70
     0
  9
$DIMDEC
 70
     2
  9
$DIMTDEC
 70
     2
  9
$DIMALTU
 70
     2
  9
$DIMALTTD
 70
     2
  9
$DIMTXSTY
  7
Standard
  9
$DIMAUNIT
 70
     0
  9
$DIMADEC
 70
     2
  9
$DIMALTRND
 40
0.0
  9
$DIMAZIN
 70
     0
  9
$DIMDSEP
 70
    46
  9
$DIMATFIT
 70
     3
  9
$DIMFRAC
 70
     0
  9
$DIMLDRBLK
  1

  9
$DIMLUNIT
 70
     2
  9
$DIMLWD
 70
    -2
  9
$DIMLWE
 70
    -2
  9
$DIMTMOVE
 70
     0
  9
$LUNITS
 70
     2
  9
$LUPREC
 70
     2
  9
$SKETCHINC
 40
0.1
  9
$FILLETRAD
 40
0.5
  9
$AUNITS
 70
     0
  9
$AUPREC
 70
     2
  9
$MENU
  1
.
  9
$ELEVATION
 40
0.0
  9
$PELEVATION
 40
0.0
  9
$THICKNESS
 40
0.0
  9
$LIMCHECK
 70
     0
  9
$CHAMFERA
 40
0.5
  9
$CHAMFERB
 40
0.5
  9
$CHAMFERC
 40
1.0
  9
$CHAMFERD
 40
0.0
  9
$SKPOLY
 70
     0
  9
$TDCREATE
 40
2457141.86127441
  9
$TDUCREATE
 40
2457142.069607743
  9
$TDUPDATE
 40
2457141.861353576
  9
$TDUUPDATE
 40
2457142.06968691
  9
$TDINDWG
 40
0.0000000116
  9
$TDUSRTIMER
 40
0.0000000116
  9
$USRTIMER
 70
     1
  9
$ANGBASE
 50
0.0
  9
$ANGDIR
 70
     0
  9
$PDMODE
 70
     0
  9
$PDSIZE
 40
-1.0
  9
$PLINEWID
 40
0.0
  9
$SPLFRAME
 70
     0
  9
$SPLINETYPE
 70
     6
  9
$SPLINESEGS
 70
     8
  9
$HANDSEED
  5
D8
  9
$SURFTAB1
 70
     6
  9
$SURFTAB2
 70
     6
  9
$SURFTYPE
 70
     6
  9
$SURFU
 70
     6
  9
$SURFV
 70
     6
  9
$UCSBASE
  2

  9
$UCSNAME
  2

  9
$UCSORG
 10
0.0
 20
0.0
 30
0.0
  9
$UCSXDIR
 10
1.0
 20
0.0
 30
0.0
  9
$UCSYDIR
 10
0.0
 20
1.0
 30
0.0
  9
$UCSORTHOREF
  2

  9
$UCSORTHOVIEW
 70
     0
  9
$UCSORGTOP
 10
0.0
 20
0.0
 30
0.0
  9
$UCSORGBOTTOM
 10
0.0
 20
0.0
 30
0.0
  9
$UCSORGLEFT
 10
0.0
 20
0.0
 30
0.0
  9
$UCSORGRIGHT
 10
0.0
 20
0.0
 30
0.0
  9
$UCSORGFRONT
 10
0.0
 20
0.0
 30
0.0
  9
$UCSORGBACK
 10
0.0
 20
0.0
 30
0.0
  9
$PUCSBASE
  2

  9
$PUCSNAME
  2

  9
$PUCSORG
 10
0.0
 20
0.0
 30
0.0
  9
$PUCSXDIR
 10
1.0
 20
0.0
 30
0.0
  9
$PUCSYDIR
 10
0.0
 20
1.0
 30
0.0
  9
$PUCSORTHOREF
  2

  9
$PUCSORTHOVIEW
 70
     0
  9
$PUCSORGTOP
 10
0.0
 20
0.0
 30
0.0
  9
$PUCSORGBOTTOM
 10
0.0
 20
0.0
 30
0.0
  9
$PUCSORGLEFT
 10
0.0
 20
0.0
 30
0.0
  9
$PUCSORGRIGHT
 10
0.0
 20
0.0
 30
0.0
  9
$PUCSORGFRONT
 10
0.0
 20
0.0
 30
0.0
  9
$PUCSORGBACK
 10
0.0
 20
0.0
 30
0.0
  9
$USERI1
 70
     0
  9
$USERI2
 70
     0
  9
$USERI3
 70
     0
  9
$USERI4
 70
     0
  9
$USERI5
 70
     0
  9
$USERR1
 40
0.0
  9
$USERR2
 40
0.0
  9
$USERR3
 40
0.0
  9
$USERR4
 40
0.0
  9
$USERR5
 40
0.0
  9
$WORLDVIEW
 70
     1
  9
$SHADEDGE
 70
     3
  9
$SHADEDIF
 70
    70
  9
$TILEMODE
 70
     1
  9
$MAXACTVP
 70
    64
  9
$PINSBASE
 10
0.0
 20
0.0
 30
0.0
  9
$PLIMCHECK
 70
     0
  9
$PEXTMIN
 10
1.0000000000E+20
 20
1.0000000000E+20
 30
1.0000000000E+20
  9
$PEXTMAX
 10
-1.0000000000E+20
 20
-1.0000000000E+20
 30
-1.0000000000E+20
  9
$PLIMMIN
 10
0.0
 20
0.0
  9
$PLIMMAX
 10
12.0
 20
9.0
  9
$UNITMODE
 70
     0
  9
$VISRETAIN
 70
     1
  9
$PLINEGEN
 70
     0
  9
$PSLTSCALE
 70
     1
  9
$TREEDEPTH
 70
  3020
  9
$CMLSTYLE
  2
Standard
  9
$CMLJUST
 70
     0
  9
$CMLSCALE
 40
1.0
  9
$PROXYGRAPHICS
 70
     1
  9
$MEASUREMENT
 70
     0
  9
$CELWEIGHT
370
    -1
  9
$ENDCAPS
280
     0
  9
$JOINSTYLE
280
     0
  9
$LWDISPLAY
290
     1
  9
$INSUNITS
 70
     1
  9
$HYPERLINKBASE
  1

  9
$STYLESHEET
  1

  9
$XEDIT
290
     1
  9
$CEPSNTYPE
380
     0
  9
$PSTYLEMODE
290
     1
  9
$FINGERPRINTGUID
  2
{886DEC6E-AEE4-4DB1-9044-D5A054913056}
  9
$VERSIONGUID
  2
{FAEB1C32-E019-11D5-929B-00C0DF256EC4}
  9
$EXTNAMES
290
     1
  9
$PSVPSCALE
 40
0.0
  9
$OLESTARTUP
290
     0
  0
ENDSEC
  0
SECTION
  2
CLASSES
  0
CLASS
  1
ACDBDICTIONARYWDFLT
  2
AcDbDictionaryWithDefault
  3
ObjectDBX Classes
 90
        0
280
     0
281
     0
  0
CLASS
  1
VISUALSTYLE
  2
AcDbVisualStyle
  3
ObjectDBX Classes
 90
     4095
280
     0
281
     0
  0
CLASS
  1
MATERIAL
  2
AcDbMaterial
  3
ObjectDBX Classes
 90
     1153
280
     0
281
     0
  0
CLASS
  1
ACDBPLACEHOLDER
  2
AcDbPlaceHolder
  3
ObjectDBX Classes
 90
        0
280
     0
281
     0
  0
CLASS
  1
LAYOUT
  2
AcDbLayout
  3
ObjectDBX Classes
 90
        0
280
     0
281
     0
  0
ENDSEC
  0
SECTION
  2
TABLES
  0
TABLE
  2
VPORT
  5
8
330
0
100
AcDbSymbolTable
 70
     1
  0
VPORT
  5
29
330
8
100
AcDbSymbolTableRecord
100
AcDbViewportTableRecord
  2
*Active
 70
     0
 10
0.0
 20
0.0
 11
1.0
 21
1.0
 12
0.0045258902
 22
0.0067656751
 13
0.0
 23
0.0
 14
0.5
 24
0.5
 15
0.5
 25
0.5
 16
0.0
 26
0.0
 36
1.0
 17
0.0
 27
0.0
 37
0.0
 40
1.841557145
 41
0.9970903049
 42
50.0
 43
0.0
 44
0.0
 50
0.0
 51
0.0
 71
     0
 72
   100
 73
     1
 74
     3
 75
     0
 76
     0
 77
     0
 78
     0
281
     0
 65
     1
110
0.0
120
0.0
130
0.0
111
1.0
121
0.0
131
0.0
112
0.0
122
1.0
132
0.0
 79
     0
146
0.0
  0
ENDTAB
  0
TABLE
  2
LTYPE
  5
5
330
0
100
AcDbSymbolTable
 70
     6
  0
LTYPE
  5
14
330
5
100
AcDbSymbolTableRecord
100
AcDbLinetypeTableRecord
  2
ByBlock
 70
     0
  3

 72
    65
 73
     0
 40
0.0
  0
LTYPE
  5
15
330
5
100
AcDbSymbolTableRecord
100
AcDbLinetypeTableRecord
  2
ByLayer
 70
     0
  3

 72
    65
 73
     0
 40
0.0
  0
LTYPE
  5
16
330
5
100
AcDbSymbolTableRecord
100
AcDbLinetypeTableRecord
  2
Continuous
 70
     0
  3
Solid line
 72
    65
 73
     0
 40
0.0
  0
LTYPE
  5
3F
330
5
100
AcDbSymbolTableRecord
100
AcDbLinetypeTableRecord
  2
HIDDEN
 70
     0
  3
Hidden __ __ __ __ __ __ __ __ __ __ __ __ __ __
 72
    65
 73
     2
 40
0.075
 49
0.05
 74
     0
 49
-0.025
 74
     0
  0
LTYPE
  5
40
330
5
100
AcDbSymbolTableRecord
100
AcDbLinetypeTableRecord
  2
PHANTOM
 70
     0
  3
Phantom ______  __  __  ______  __  __  ______
 72
    65
 73
     6
 40
0.5
 49
0.25
 74
     0
 49
-0.05
 74
     0
 49
0.05
 74
     0
 49
-0.05
 74
     0
 49
0.05
 74
     0
 49
-0.05
 74
     0
  0
LTYPE
  5
41
330
5
100
AcDbSymbolTableRecord
100
AcDbLinetypeTableRecord
  2
CENTER
 70
     0
  3
Center ____ _ ____ _ ____ _ ____ _ ____ _ ____
 72
    65
 73
     4
 40
0.4
 49
0.25
 74
     0
 49
-0.05
 74
     0
 49
0.05
 74
     0
 49
-0.05
 74
     0
  0
LTYPE
  5
42
330
5
100
AcDbSymbolTableRecord
100
AcDbLinetypeTableRecord
  2
CENTERX2
 70
     0
  3
Center (2x) ________  __  ________  __  _____
 72
    65
 73
     4
 40
0.8
 49
0.5
 74
     0
 49
-0.1
 74
     0
 49
0.1
 74
     0
 49
-0.1
 74
     0
  0
LTYPE
  5
43
330
5
100
AcDbSymbolTableRecord
100
AcDbLinetypeTableRecord
  2
DOT2
 70
     0
  3
Dot (.5x) ........................................
 72
    65
 73
     2
 40
0.025
 49
0.0
 74
     0
 49
-0.025
 74
     0
  0
ENDTAB
  0
TABLE
  2
LAYER
  5
2
330
0
100
AcDbSymbolTable
 70
     1
  0
LAYER
  5
10
330
2
100
AcDbSymbolTableRecord
100
AcDbLayerTableRecord
  2
0
 70
     0
 62
     7
  6
Continuous
370
    -3
390
F
  0
ENDTAB
  0
TABLE
  2
STYLE
  5
3
330
0
100
AcDbSymbolTable
 70
     2
  0
STYLE
  5
11
330
3
100
AcDbSymbolTableRecord
100
AcDbTextStyleTableRecord
  2
Standard
 70
     0
 40
0.0
 41
1.0
 50
0.0
 71
     0
 42
0.125
  3
txt
  4

  0
STYLE
  5
D5
330
3
100
AcDbSymbolTableRecord
100
AcDbTextStyleTableRecord
  2
SLDTEXTSTYLE0
 70
     0
 40
0.0
 41
0.7
 50
0.0
 71
     0
 42
0.2
  3
TXT
  4

  0
ENDTAB
  0
TABLE
  2
VIEW
  5
6
330
0
100
AcDbSymbolTable
 70
     0
  0
ENDTAB
  0
TABLE
  2
UCS
  5
7
330
0
100
AcDbSymbolTable
 70
     0
  0
ENDTAB
  0
TABLE
  2
APPID
  5
9
330
0
100
AcDbSymbolTable
 70
     1
  0
APPID
  5
12
330
9
100
AcDbSymbolTableRecord
100
AcDbRegAppTableRecord
  2
ACAD
 70
     0
  0
ENDTAB
  0
TABLE
  2
DIMSTYLE
  5
A
330
0
100
AcDbSymbolTable
 70
     1
100
AcDbDimStyleTable
  0
DIMSTYLE
105
27
330
A
100
AcDbSymbolTableRecord
100
AcDbDimStyleTableRecord
  2
Standard
 70
     0
178
     0
340
11
  0
ENDTAB
  0
TABLE
  2
BLOCK_RECORD
  5
1
330
0
100
AcDbSymbolTable
 70
     1
  0
BLOCK_RECORD
  5
1F
330
1
100
AcDbSymbolTableRecord
100
AcDbBlockTableRecord
  2
*Model_Space
340
22
  0
BLOCK_RECORD
  5
1B
330
1
100
AcDbSymbolTableRecord
100
AcDbBlockTableRecord
  2
*Paper_Space
340
1E
  0
BLOCK_RECORD
  5
23
330
1
100
AcDbSymbolTableRecord
100
AcDbBlockTableRecord
  2
*Paper_Space0
340
26
  0
ENDTAB
  0
ENDSEC
  0
SECTION
  2
BLOCKS
  0
BLOCK
  5
20
330
1F
100
AcDbEntity
  8
0
100
AcDbBlockBegin
  2
*Model_Space
 70
     0
 10
0.0
 20
0.0
 30
0.0
  3
*Model_Space
  1

  0
ENDBLK
  5
21
330
1F
100
AcDbEntity
  8
0
100
AcDbBlockEnd
  0
BLOCK
  5
1C
330
1B
100
AcDbEntity
 67
     1
  8
0
100
AcDbBlockBegin
  2
*Paper_Space
 70
     0
 10
0.0
 20
0.0
 30
0.0
  3
*Paper_Space
  1

  0
ENDBLK
  5
1D
330
1B
100
AcDbEntity
 67
     1
  8
0
100
AcDbBlockEnd
  0
BLOCK
  5
24
330
23
100
AcDbEntity
  8
0
100
AcDbBlockBegin
  2
*Paper_Space0
 70
     0
 10
0.0
 20
0.0
 30
0.0
  3
*Paper_Space0
  1

  0
ENDBLK
  5
25
330
23
100
AcDbEntity
  8
0
100
AcDbBlockEnd
  0
ENDSEC
  0
SECTION
  2
ENTITIES
  0
SPLINE
  5
46
330
1F
100
AcDbEntity
  8
0
  6
Continuous
 62
     7
370
    15
100
AcDbSpline
210
0.0
220
0.0
230
1.0
 70
     8
 71
     3
 72
    49
 73
    45
 74
     0
 42
0.00000001
 43
0.00000001
 12
1.0
 22
0.0
 32
0.0
 13
1.0
 23
0.0
 33
0.0
 40
0.0
 40
0.0
 40
0.0
 40
0.0
 40
0.0125678151290875
 40
0.03686128205556
 40
0.0611564953886207
 40
0.0854513436391701
 40
0.1097458074207224
 40
0.134039872169384
 40
0.1583335277592524
 40
0.1826267685488
 40
0.2069195933752445
 40
0.2312120054997181
 40
0.2555040125066784
 40
0.2797956261614092
 40
0.3040868622296741
 40
0.3283777402636525
 40
0.352668283358291
 40
0.3769585178819377
 40
0.4012484731850225
 40
0.4255381812901837
 40
0.4498276765667918
 40
0.4741169953927085
 40
0.4984061758055348
 40
0.5226952571454326
 40
0.5469842796912575
 40
0.5712732769322101
 40
0.5955622837212758
 40
0.6198513411159944
 40
0.6441404897447072
 40
0.6684297694287008
 40
0.6927192188074998
 40
0.7170088749678242
 40
0.7412987730783652
 40
0.7655889460330113
 40
0.7898794241053845
 40
0.8141702346180548
 40
0.8384614016301598
 40
0.8627529456474818
 40
0.8870448833593205
 40
0.9113372274067474
 40
0.9356299861868221
 40
0.9599231636974344
 40
0.9842167594270931
 40
1.0
 40
1.0
 40
1.0
 40
1.0
 10
0.2173195481169436
 20
-0.684471284371745
 30
0.0
 10
0.2129360565370537
 20
-0.6872581191695584
 30
0.0
 10
0.2000793174893472
 20
-0.6954318790848116
 30
0.0
 10
0.1781205815632765
 20
-0.7079913932890756
 30
0.0
 10
0.1512431549100278
 20
-0.7216522625168783
 30
0.0
 10
0.1236732980434807
 20
-0.7338875546668393
 30
0.0
 10
0.0955005830527971
 20
-0.7446861464136108
 30
0.0
 10
0.0667964194811954
 20
-0.7540132555281356
 30
0.0
 10
0.0376387282254926
 20
-0.7618455169644379
 30
0.0
 10
0.0081052764619935
 20
-0.7681615663902909
 30
0.0
 10
-0.021724800956658
 20
-0.7729446364954415
 30
0.0
 10
-0.0517716770918978
 20
-0.7761819207908623
 30
0.0
 10
-0.0819549225554553
 20
-0.7778647895994616
 30
0.0
 10
-0.1121937541340692
 20
-0.7779887636710194
 30
0.0
 10
-0.1424072420731241
 20
-0.7765535386363763
 30
0.0
 10
-0.1725145289672806
 20
-0.7735629817067348
 30
0.0
 10
-0.2024350453430325
 20
-0.7690251216836881
 30
0.0
 10
-0.2320887252037964
 20
-0.7629521266786146
 30
0.0
 10
-0.2613962199392313
 20
-0.7553602711212508
 30
0.0
 10
-0.2902791103104513
 20
-0.7462698917488665
 30
0.0
 10
-0.318660115878861
 20
-0.7357053328088934
 30
0.0
 10
-0.3464633013471377
 20
-0.7236948805980452
 30
0.0
 10
-0.3736142792644739
 20
-0.7102706875250718
 30
0.0
 10
-0.4000404085641991
 20
-0.6954686859017968
 30
0.0
 10
-0.4256709858247896
 20
-0.6793284933249589
 30
0.0
 10
-0.4504374347933782
 20
-0.6618933070916388
 30
0.0
 10
-0.4742734919601161
 20
-0.6432097875573967
 30
0.0
 10
-0.4971153856611359
 20
-0.6233279310670164
 30
0.0
 10
-0.5189020054068133
 20
-0.6023009359661323
 30
0.0
 10
-0.5395750627662268
 20
-0.5801850619950072
 30
0.0
 10
-0.5590792468972329
 20
-0.5570394800689942
 30
0.0
 10
-0.5773623720410705
 20
-0.5329261143383426
 30
0.0
 10
-0.5943755171574838
 20
-0.507909476946133
 30
0.0
 10
-0.6100731552425992
 20
-0.4820564959117317
 30
0.0
 10
-0.6244132798077586
 20
-0.4554363366166835
 30
0.0
 10
-0.637357499021698
 20
-0.4281202172630843
 30
0.0
 10
-0.6488712061263039
 20
-0.4001812191457701
 30
0.0
 10
-0.6589234194114291
 20
-0.3716940908872162
 30
0.0
 10
-0.6674878084097043
 20
-0.3427350521619042
 30
0.0
 10
-0.6745392447822576
 20
-0.313381578690039
 30
0.0
 10
-0.6800670065129526
 20
-0.2837122389586254
 30
0.0
 10
-0.6840257794348383
 20
-0.2538063222150505
 30
0.0
 10
-0.6862276359351677
 20
-0.2272547803022102
 30
0.0
 10
-0.686737956453147
 20
-0.2106890107974874
 30
0.0
 10
-0.6869389331830401
 20
-0.2041650046759856
 30
0.0
  0
SPLINE
  5
47
330
1F
100
AcDbEntity
  8
0
  6
Continuous
 62
     7
370
    15
100
AcDbSpline
210
0.0
220
0.0
230
1.0
 70
     8
 71
     3
 72
    24
 73
    20
 74
     0
 42
0.00000001
 43
0.00000001
 12
1.0
 22
0.0
 32
0.0
 13
1.0
 23
0.0
 33
0.0
 40
0.0
 40
0.0
 40
0.0
 40
0.0
 40
0.032417896229164
 40
0.0950988928036871
 40
0.1577850088570741
 40
0.2204709208305469
 40
0.2831567346045749
 40
0.3458425342118372
 40
0.4085284350901798
 40
0.4712145518158154
 40
0.533900996994023
 40
0.5965878801606785
 40
0.6592753066928606
 40
0.7219633767348772
 40
0.7846521841473015
 40
0.8473418154876661
 40
0.9100323490326873
 40
0.972723853853216
 40
1.0
 40
1.0
 40
1.0
 40
1.0
 10
0.5360240927365162
 20
-0.4767018298609114
 30
0.0
 10
0.5313033575948168
 20
-0.4747408249716368
 30
0.0
 10
0.5174549362777305
 20
-0.468988156987437
 30
0.0
 10
0.4949400534842351
 20
-0.4583621403385946
 30
0.0
 10
0.4687752922984007
 20
-0.4443785461475833
 30
0.0
 10
0.4433873303961222
 20
-0.4290220256616042
 30
0.0
 10
0.41883827227174
 20
-0.4123605544042597
 30
0.0
 10
0.3951990998821072
 20
-0.3944339765996556
 30
0.0
 10
0.3725350515710631
 20
-0.3752940639207324
 30
0.0
 10
0.3509094893310717
 20
-0.3549937184916878
 30
0.0
 10
0.3303827018385052
 20
-0.3335896606343297
 30
0.0
 10
0.31101178557122
 20
-0.3111415916415692
 30
0.0
 10
0.2928513161516685
 20
-0.2877119129566945
 30
0.0
 10
0.2759498274691007
 20
-0.2633666910235397
 30
0.0
 10
0.2603623231727093
 20
-0.2381710347562332
 30
0.0
 10
0.2461029058338971
 20
-0.2122055318653085
 30
0.0
 10
0.2333209653916666
 20
-0.1855039933189541
 30
0.0
 10
0.2238421275109859
 20
-0.1634105151240922
 30
0.0
 10
0.2191701206085054
 20
-0.1500540121929095
 30
0.0
 10
0.2177536743447573
 20
-0.1460046241957364
 30
0.0
  0
SPLINE
  5
48
330
1F
100
AcDbEntity
  8
0
  6
Continuous
 62
     7
370
    15
100
AcDbSpline
210
0.0
220
0.0
230
1.0
 70
     8
 71
     3
 72
    22
 73
    18
 74
     0
 42
0.00000001
 43
0.00000001
 12
1.0
 22
0.0
 32
0.0
 13
1.0
 23
0.0
 33
0.0
 40
0.0
 40
0.0
 40
0.0
 40
0.0
 40
0.0259052585527495
 40
0.0952621852571242
 40
0.1646178717190942
 40
0.233972350994118
 40
0.3033256689786819
 40
0.3726778837437463
 40
0.4420290647672289
 40
0.511379292078996
 40
0.5807286553309711
 40
0.6500772528039996
 40
0.7194251903619656
 40
0.7887725803623439
 40
0.8581195405313464
 40
0.9274661928105288
 40
1.0
 40
1.0
 40
1.0
 40
1.0
 10
-0.2853044466868989
 20
0.0886131484772793
 30
0.0
 10
-0.2889275542137202
 20
0.0879537433833415
 30
0.0
 10
-0.3022509163304787
 20
0.0855288932282934
 30
0.0
 10
-0.3255404432469658
 20
0.0829353490541855
 30
0.0
 10
-0.3550673329288569
 20
0.0808357351574776
 30
0.0
 10
-0.3846866764469932
 20
0.0803945932300595
 30
0.0
 10
-0.4142930776773486
 20
0.0814860902166569
 30
0.0
 10
-0.4438100658573637
 20
0.0841411884619028
 30
0.0
 10
-0.473153674983679
 20
0.0883433468011444
 30
0.0
 10
-0.50224253795306
 20
0.0940832183409228
 30
0.0
 10
-0.5309953052086261
 20
0.1013442813607772
 30
0.0
 10
-0.5593322430566171
 20
0.110105819029175
 30
0.0
 10
-0.5871727761787852
 20
0.1203456404471716
 30
0.0
 10
-0.6144450575035267
 20
0.1320265586927734
 30
0.0
 10
-0.6410514651241548
 20
0.1451481682578396
 30
0.0
 10
-0.6673958654556752
 20
0.1597744429854953
 30
0.0
 10
-0.6843710538301505
 20
0.1707793785680367
 30
0.0
 10
-0.6930493104778264
 20
0.1764054519446385
 30
0.0
  0
SPLINE
  5
49
330
1F
100
AcDbEntity
  8
0
  6
Continuous
 62
     7
370
    15
100
AcDbSpline
210
0.0
220
0.0
230
1.0
 70
     8
 71
     3
 72
    11
 73
     7
 74
     0
 42
0.00000001
 43
0.00000001
 12
1.0
 22
0.0
 32
0.0
 13
1.0
 23
0.0
 33
0.0
 40
0.0
 40
0.0
 40
0.0
 40
0.0
 40
0.1121202122346168
 40
0.4107272918944754
 40
0.7104802156903052
 40
1.0
 40
1.0
 40
1.0
 40
1.0
 10
-0.6930493104778263
 20
0.1764054519446386
 30
0.0
 10
-0.6936141226421692
 20
0.176810619702664
 30
0.0
 10
-0.6956831855351674
 20
0.1782948610602215
 30
0.0
 10
-0.6986447841883859
 20
0.1816197243152748
 30
0.0
 10
-0.7012053727660182
 20
0.1865556983414276
 30
0.0
 10
-0.7016880838974107
 20
0.1901408188134539
 30
0.0
 10
-0.7019252481521306
 20
0.19190224996665
 30
0.0
  0
SPLINE
  5
4A
330
1F
100
AcDbEntity
  8
0
  6
Continuous
 62
     7
370
    15
100
AcDbSpline
210
0.0
220
0.0
230
1.0
 70
     8
 71
     3
 72
    11
 73
     7
 74
     0
 42
0.00000001
 43
0.00000001
 12
1.0
 22
0.0
 32
0.0
 13
1.0
 23
0.0
 33
0.0
 40
0.0
 40
0.0
 40
0.0
 40
0.0
 40
0.1121236810794015
 40
0.4145522917742905
 40
0.7166068432850233
 40
1.0
 40
1.0
 40
1.0
 40
1.0
 10
0.5537999794071331
 20
-0.4753772694957846
 30
0.0
 10
0.5532035844489369
 20
-0.475708802448296
 30
0.0
 10
0.5509985471691873
 20
-0.4769345715627177
 30
0.0
 10
0.5467354249901961
 20
-0.4781769574838367
 30
0.0
 10
0.54117608035623
 20
-0.4783508396026138
 30
0.0
 10
0.5377045362950806
 20
-0.477239693691921
 30
0.0
 10
0.5360240927365162
 20
-0.4767018298609113
 30
0.0
  0
SPLINE
  5
4D
330
1F
100
AcDbEntity
  8
0
  6
Continuous
 62
     7
370
    15
100
AcDbSpline
210
0.0
220
0.0
230
1.0
 70
     8
 71
     3
 72
    23
 73
    19
 74
     0
 42
0.00000001
 43
0.00000001
 12
1.0
 22
0.0
 32
0.0
 13
1.0
 23
0.0
 33
0.0
 40
0.0
 40
0.0
 40
0.0
 40
0.0
 40
0.0354360737536127
 40
0.1039045159464631
 40
0.1723784542218845
 40
0.2408523410788019
 40
0.3093262828327122
 40
0.3778003950363818
 40
0.4462747917745789
 40
0.5147495846013501
 40
0.5832248814856755
 40
0.6517007857687622
 40
0.7201773951395506
 40
0.7886548006357511
 40
0.8571330856790398
 40
0.925612325154038
 40
0.9940925845418951
 40
1.0
 40
1.0
 40
1.0
 40
1.0
 10
0.5028014118786668
 20
0.5233617846888234
 30
0.0
 10
0.5074371022873094
 20
0.5209558951361183
 30
0.0
 10
0.5210297246341512
 20
0.5139014231555992
 30
0.0
 10
0.5430267438229732
 20
0.5011598660878647
 30
0.0
 10
0.5684615165726297
 20
0.4847184240439227
 30
0.0
 10
0.5930075355362048
 20
0.466973677312372
 30
0.0
 10
0.6166099856063499
 20
0.4479973989738982
 30
0.0
 10
0.6392026195712304
 20
0.4278339793591404
 30
0.0
 10
0.6607258429433538
 20
0.4065390874272505
 30
0.0
 10
0.6811217754746008
 20
0.3841692155139515
 30
0.0
 10
0.7003361824859697
 20
0.3607844302236297
 30
0.0
 10
0.7183166082651148
 20
0.3364469126516835
 30
0.0
 10
0.7350187845567583
 20
0.311223088592912
 30
0.0
 10
0.750383685871678
 20
0.2851755661671972
 30
0.0
 10
0.764423671731136
 20
0.2583922138338736
 30
0.0
 10
0.7769015725529967
 20
0.2308768291235062
 30
0.0
 10
0.7849873972935263
 20
0.2114604222065529
 30
0.0
 10
0.7884773570021568
 20
0.2010999468204002
 30
0.0
 10
0.7887545083175277
 20
0.2002771810520628
 30
0.0
  0
SPLINE
  5
4E
330
1F
100
AcDbEntity
  8
0
  6
Continuous
 62
     7
370
    15
100
AcDbSpline
210
0.0
220
0.0
230
1.0
 70
     8
 71
     3
 72
    21
 73
    17
 74
     0
 42
0.00000001
 43
0.00000001
 12
1.0
 22
0.0
 32
0.0
 13
1.0
 23
0.0
 33
0.0
 40
0.0
 40
0.0
 40
0.0
 40
0.0
 40
0.057213864146658
 40
0.1317933302827458
 40
0.2063715460324959
 40
0.2809485445419317
 40
0.3555243713788211
 40
0.4300990838987492
 40
0.5046727505172757
 40
0.5792454499005701
 40
0.653817270085913
 40
0.728388307542815
 40
0.8029586661843682
 40
0.8775284563373003
 40
0.952097793678286
 40
1.0
 40
1.0
 40
1.0
 40
1.0
 10
-0.2410956781739002
 20
0.7739045253601707
 30
0.0
 10
-0.2334991242627938
 20
0.7752925439306765
 30
0.0
 10
-0.2160003037662304
 20
0.7784898736798491
 30
0.0
 10
-0.1883006871799505
 20
0.7816780426778497
 30
0.0
 10
-0.1581496494411003
 20
0.7837661489095045
 30
0.0
 10
-0.1279146397070484
 20
0.7842466298769648
 30
0.0
 10
-0.097688437958624
 20
0.7831808485932876
 30
0.0
 10
-0.0675487640184719
 20
0.7805548957449293
 30
0.0
 10
-0.0375771058592365
 20
0.776380356485495
 30
0.0
 10
-0.0078535158842286
 20
0.7706670873316275
 30
0.0
 10
0.021542695252532
 20
0.763431227521147
 30
0.0
 10
0.0505318158161352
 20
0.7546901934245602
 30
0.0
 10
0.0790402723935421
 20
0.7444744410622802
 30
0.0
 10
0.1069768753319868
 20
0.7327851086079953
 30
0.0
 10
0.1310628393380356
 20
0.7213049800687933
 30
0.0
 10
0.1456416371797007
 20
0.7134165831846824
 30
0.0
 10
0.1513438318385463
 20
0.7103312002149786
 30
0.0
  0
SPLINE
  5
4F
330
1F
100
AcDbEntity
  8
0
  6
Continuous
 62
     7
370
    15
100
AcDbSpline
210
0.0
220
0.0
230
1.0
 70
     8
 71
     3
 72
    11
 73
     7
 74
     0
 42
0.00000001
 43
0.00000001
 12
1.0
 22
0.0
 32
0.0
 13
1.0
 23
0.0
 33
0.0
 40
0.0
 40
0.0
 40
0.0
 40
0.0
 40
0.1121217506651427
 40
0.410688499502132
 40
0.7102655239437767
 40
1.0
 40
1.0
 40
1.0
 40
1.0
 10
0.1513438318385462
 20
0.7103312002149785
 30
0.0
 10
0.1519411790358911
 20
0.7099754802416267
 30
0.0
 10
0.1541291900391442
 20
0.7086725207245648
 30
0.0
 10
0.1573658875370487
 20
0.705609751833873
 30
0.0
 10
0.1603446461933394
 20
0.7009016937439322
 30
0.0
 10
0.161134710193349
 20
0.6973632362632417
 30
0.0
 10
0.1615231444575713
 20
0.6956235567841395
 30
0.0
  0
SPLINE
  5
50
330
1F
100
AcDbEntity
  8
0
  6
Continuous
 62
     7
370
    15
100
AcDbSpline
210
0.0
220
0.0
230
1.0
 70
     8
 71
     3
 72
    11
 73
     7
 74
     0
 42
0.00000001
 43
0.00000001
 12
1.0
 22
0.0
 32
0.0
 13
1.0
 23
0.0
 33
0.0
 40
0.0
 40
0.0
 40
0.0
 40
0.0
 40
0.1121241779583202
 40
0.4140955246259528
 40
0.7156906308927938
 40
1.0
 40
1.0
 40
1.0
 40
1.0
 10
0.4849461545564369
 20
0.523558256381974
 30
0.0
 10
0.4855700287652214
 20
0.5238379404384585
 30
0.0
 10
0.4878741127058256
 20
0.5248708658806645
 30
0.0
 10
0.4922316683108907
 20
0.525745624121574
 30
0.0
 10
0.4977961044236744
 20
0.5254471345955857
 30
0.0
 10
0.5011661175039088
 20
0.5240430936798482
 30
0.0
 10
0.5028014118786667
 20
0.5233617846888233
 30
0.0
  0
LWPOLYLINE
  5
53
330
1F
100
AcDbEntity
  8
0
  6
Continuous
 62
     7
370
    15
100
AcDbPolyline
 90
      143
 70
   128
 43
0.0
 10
-0.8602489843
 20
0.2209874398
 10
-0.8681594345
 20
0.1824124891
 10
-0.8743487542
 20
0.143517084
 10
-0.8788048274
 20
0.1043773641
 10
-0.8815189312
 20
0.0650699472
 10
-0.8824857527
 20
0.0256717794
 10
-0.8817033992
 20
-0.0137400155
 10
-0.8791734022
 20
-0.0530882871
 10
-0.8749007143
 20
-0.0922960092
 10
-0.8688936996
 20
-0.131286431
 10
-0.8611641169
 20
-0.1699832268
 10
-0.8517270973
 20
-0.2083106459
 10
-0.8406011143
 20
-0.2461936604
 10
-0.8278079475
 20
-0.2835581128
 10
-0.81337264
 20
-0.3203308602
 10
-0.7973234498
 20
-0.3564399183
 10
-0.7796917937
 20
-0.3918146019
 10
-0.7605121867
 20
-0.4263856634
 10
-0.7398221737
 20
-0.4600854284
 10
-0.7176622564
 20
-0.492847928
 10
-0.6940758139
 20
-0.5246090279
 10
-0.6691090177
 20
-0.5553065545
 10
-0.6428107414
 20
-0.5848804158
 10
-0.6152324653
 20
-0.6132727196
 10
-0.5864281751
 20
-0.6404278867
 10
-0.5564542565
 20
-0.6662927595
 10
-0.5253693849
 20
-0.6908167063
 10
-0.4932344104
 20
-0.7139517204
 10
-0.4601122387
 20
-0.7356525139
 10
-0.426067708
 20
-0.7558766064
 10
-0.3911674621
 20
-0.7745844083
 10
-0.3554798199
 20
-0.7917392983
 10
-0.3190746415
 20
-0.8073076949
 10
-0.2820231918
 20
-0.8212591221
 10
-0.2443980009
 20
-0.8335662694
 10
-0.2062727217
 20
-0.844205045
 10
-0.1677219863
 20
-0.853154623
 10
-0.1288212596
 20
-0.8603974841
 10
-0.0896466915
 20
-0.8659194502
 10
-0.0502749681
 20
-0.8697097116
 10
-0.0107831615
 20
-0.8717608489
 10
0.0287514214
 20
-0.8720688467
 10
0.0682513896
 20
-0.8706331022
 10
0.1076394203
 20
-0.867456426
 10
0.1468384094
 20
-0.8625450364
 10
0.1857716231
 20
-0.8559085479
 10
0.2243628478
 20
-0.8475599515
 10
0.2625365393
 20
-0.8375155902
 10
0.3002179709
 20
-0.8257951261
 10
0.3373333794
 20
-0.8124215027
 10
0.3738101097
 20
-0.7974208994
 10
0.4095767568
 20
-0.7808226807
 10
0.4445633058
 20
-0.7626593384
 10
0.4787012689
 20
-0.7429664279
 10
0.5119238195
 20
-0.7217824992
 10
0.5441659229
 20
-0.6991490207
 10
0.5753644636
 20
-0.6751102986
 10
0.605458369
 20
-0.6497133898
 10
0.6343887288
 20
-0.6230080099
 10
0.6620989107
 20
-0.595046436
 10
0.6885346705
 20
-0.5658834041
 10
0.713644259
 20
-0.5355760022
 10
0.737378523
 20
-0.5041835586
 10
0.7596910016
 20
-0.4717675254
 10
0.7805380171
 20
-0.4383913586
 10
0.7998787604
 20
-0.4041203934
 10
0.8176753712
 20
-0.369021717
 10
0.8338930117
 20
-0.3331640366
 10
0.8484999352
 20
-0.2966175454
 10
0.8614675478
 20
-0.2594537848
 10
0.872770465
 20
-0.2217455047
 10
0.8823865606
 20
-0.1835665207
 10
0.8902970108
 20
-0.14499157
 10
0.8964863304
 20
-0.1060961649
 10
0.9009424037
 20
-0.066956445
 10
0.9036565075
 20
-0.0276490281
 10
0.904623329
 20
0.0117491397
 10
0.9038409755
 20
0.0511609346
 10
0.9013109785
 20
0.0905092062
 10
0.8970382906
 20
0.1297169283
 10
0.8910312758
 20
0.1687073501
 10
0.8833016932
 20
0.2074041459
 10
0.8738646736
 20
0.245731565
 10
0.8627386906
 20
0.2836145795
 10
0.8499455237
 20
0.3209790319
 10
0.8355102163
 20
0.3577517793
 10
0.819461026
 20
0.3938608374
 10
0.80182937
 20
0.429235521
 10
0.782649763
 20
0.4638065825
 10
0.76195975
 20
0.4975063475
 10
0.7397998327
 20
0.5302688471
 10
0.7162133902
 20
0.562029947
 10
0.6912465939
 20
0.5927274736
 10
0.6649483177
 20
0.6223013349
 10
0.6373700416
 20
0.6506936387
 10
0.6085657514
 20
0.6778488058
 10
0.5785918328
 20
0.7037136786
 10
0.5475069612
 20
0.7282376254
 10
0.5153719867
 20
0.7513726395
 10
0.482249815
 20
0.773073433
 10
0.4482052843
 20
0.7932975255
 10
0.4133050384
 20
0.8120053274
 10
0.3776173961
 20
0.8291602174
 10
0.3412122178
 20
0.844728614
 10
0.3041607681
 20
0.8586800412
 10
0.2665355772
 20
0.8709871885
 10
0.228410298
 20
0.8816259641
 10
0.1898595626
 20
0.8905755421
 10
0.1509588358
 20
0.8978184032
 10
0.1117842678
 20
0.9033403693
 10
0.0724125444
 20
0.9071306307
 10
0.0329207378
 20
0.909181768
 10
-0.0066138451
 20
0.9094897658
 10
-0.0461138134
 20
0.9080540213
 10
-0.085501844
 20
0.9048773451
 10
-0.1247008331
 20
0.8999659555
 10
-0.1636340468
 20
0.893329467
 10
-0.2022252715
 20
0.8849808706
 10
-0.240398963
 20
0.8749365092
 10
-0.2780803946
 20
0.8632160452
 10
-0.3151958031
 20
0.8498424218
 10
-0.3516725334
 20
0.8348418185
 10
-0.3874391805
 20
0.8182435998
 10
-0.4224257295
 20
0.8000802575
 10
-0.4565636926
 20
0.780387347
 10
-0.4897862432
 20
0.7592034183
 10
-0.5220283466
 20
0.7365699398
 10
-0.5532268873
 20
0.7125312177
 10
-0.5833207927
 20
0.6871343089
 10
-0.6122511526
 20
0.660428929
 10
-0.6399613344
 20
0.632467355
 10
-0.6663970942
 20
0.6033043232
 10
-0.6915066827
 20
0.5729969213
 10
-0.7152409467
 20
0.5416044777
 10
-0.7375534253
 20
0.5091884445
 10
-0.7584004408
 20
0.4758122777
 10
-0.7777411842
 20
0.4415413125
 10
-0.7955377949
 20
0.4064426361
 10
-0.8117554354
 20
0.3705849557
 10
-0.8263623589
 20
0.3340384645
 10
-0.8393299715
 20
0.2968747039
 10
-0.8506328887
 20
0.2591664238
 10
-0.8602489843
 20
0.2209874398
  0
LWPOLYLINE
  5
7B
330
1F
100
AcDbEntity
  8
0
  6
Continuous
 62
     7
370
    15
100
AcDbPolyline
 90
        3
 70
   128
 43
0.0
 10
-0.0453164512
 20
0.0361994433
 10
-0.0449051596
 20
0.0366189448
 10
-0.0369756716
 20
0.0433155486
  0
LINE
  5
92
330
1F
100
AcDbEntity
  8
0
  6
Continuous
 62
     7
370
    15
100
AcDbLine
 10
0.7785324533
 20
-0.4417844854
 30
0.0
 11
0.7813706041
 21
-0.4369869317
 31
0.0
  0
LINE
  5
93
330
1F
100
AcDbEntity
  8
0
  6
Continuous
 62
     7
370
    15
100
AcDbLine
 10
-0.7592330278
 20
0.4744078508
 30
0.0
 11
-0.7620711786
 21
0.4696102971
 31
0.0
  0
LINE
  5
94
330
1F
100
AcDbEntity
  8
0
  6
Continuous
 62
     7
370
    15
100
AcDbLine
 10
-0.7703018159
 20
0.4556973912
 30
0.0
 11
-0.7731399667
 21
0.4508998375
 31
0.0
  0
LINE
  5
95
330
1F
100
AcDbEntity
  8
0
  6
Continuous
 62
     7
370
    15
100
AcDbLine
 10
0.7674636651
 20
-0.460494945
 30
0.0
 11
0.7703018159
 21
-0.4556973912
 31
0.0
  0
LINE
  5
96
330
1F
100
AcDbEntity
  8
0
  6
Continuous
 62
     7
370
    15
100
AcDbLine
 10
-0.0230687326
 20
0.0668235619
 30
0.0
 11
0.0626360036
 21
0.0469271523
 31
0.0
  0
LINE
  5
97
330
1F
100
AcDbEntity
  8
0
  6
Continuous
 62
     7
370
    15
100
AcDbLine
 10
0.1630468189
 20
0.7301067061
 30
0.0
 11
0.1738058078
 21
0.7494158525
 31
0.0
  0
LINE
  5
98
330
1F
100
AcDbEntity
  8
0
  6
Continuous
 62
     7
370
    15
100
AcDbLine
 10
0.4850325889
 20
0.5236423386
 30
0.0
 11
0.4966690072
 21
0.5433123089
 31
0.0
  0
LINE
  5
99
330
1F
100
AcDbEntity
  8
0
  6
Continuous
 62
     7
370
    15
100
AcDbLine
 10
0.1731905971
 20
0.7154208373
 30
0.0
 11
0.1615541788
 21
0.695750867
 31
0.0
  0
LINE
  5
9A
330
1F
100
AcDbEntity
  8
0
  6
Continuous
 62
     7
370
    15
100
AcDbLine
 10
0.0626360036
 20
0.0469271523
 30
0.0
 11
0.0487290647
 21
0.0234191391
 31
0.0
  0
LINE
  5
9B
330
1F
100
AcDbEntity
  8
0
  6
Continuous
 62
     7
370
    15
100
AcDbLine
 10
-0.0230687326
 20
0.0668235619
 30
0.0
 11
-0.0369756716
 21
0.0433155486
 31
0.0
  0
LINE
  5
9C
330
1F
100
AcDbEntity
  8
0
  6
Continuous
 62
     7
370
    15
100
AcDbLine
 10
0.5145082637
 20
0.5431352376
 30
0.0
 11
0.5028718454
 21
0.5234652673
 31
0.0
  0
LINE
  5
9D
330
1F
100
AcDbEntity
  8
0
  6
Continuous
 62
     7
370
    15
100
AcDbLine
 10
0.1514104006
 20
0.7104367358
 30
0.0
 11
0.1630468189
 21
0.7301067061
 31
0.0
  0
LINE
  5
9E
330
1F
100
AcDbEntity
  8
0
  6
Continuous
 62
     7
370
    15
100
AcDbLine
 10
-0.0369756716
 20
0.0433155486
 30
0.0
 11
0.0487290647
 21
0.0234191391
 31
0.0
  0
LINE
  5
9F
330
1F
100
AcDbEntity
  8
0
  6
Continuous
 62
     7
370
    15
100
AcDbLine
 10
0.1615234523
 20
0.6956215046
 30
0.0
 11
0.1615541788
 21
0.695750867
 31
0.0
  0
LINE
  5
A0
330
1F
100
AcDbEntity
  8
0
  6
Continuous
 62
     8
370
    15
100
AcDbLine
 10
0.2171663168
 20
-0.6845675623
 30
0.0
 11
0.2262383623
 21
-0.6692323568
 31
0.0
  0
LINE
  5
A1
330
1F
100
AcDbEntity
  8
0
  6
Continuous
 62
     8
370
    15
100
AcDbLine
 10
-0.6793343032
 20
-0.1882454907
 30
0.0
 11
-0.6867283186
 21
-0.2007441875
 31
0.0
  0
LINE
  5
A2
330
1F
100
AcDbEntity
  8
0
  6
Continuous
 62
     8
370
    15
100
AcDbLine
 10
0.502801466
 20
0.5233617591
 30
0.0
 11
0.5028718454
 21
0.5234652673
 31
0.0
  0
LINE
  5
A3
330
1F
100
AcDbEntity
  8
0
  6
Continuous
 62
     8
370
    15
100
AcDbLine
 10
0.1514104006
 20
0.7104367358
 30
0.0
 11
0.1513438661
 21
0.7103311851
 31
0.0
  0
ARC
  5
A4
330
1F
100
AcDbEntity
  8
0
  6
Continuous
 62
     7
370
    15
100
AcDbCircle
 10
0.0104052465
 20
0.0186436368
 30
0.0
 40
0.8955520428344234
100
AcDbArc
 50
167.2565456672
 51
329.060832192
  0
ARC
  5
A5
330
1F
100
AcDbEntity
  8
0
  6
Continuous
 62
     7
370
    15
100
AcDbCircle
 10
-0.0008890961
 20
0.0193521675
 30
0.0
 40
0.8843814482573605
100
AcDbArc
 50
149.3946298512
 51
167.1399111077
  0
ARC
  5
A6
330
1F
100
AcDbEntity
  8
0
  6
Continuous
 62
     7
370
    15
100
AcDbCircle
 10
0.0109230337
 20
0.0187078906
 30
0.0
 40
0.0589114419552043
100
AcDbArc
 50
125.239652451
 51
28.620865297
  0
ARC
  5
A7
330
1F
100
AcDbEntity
  8
0
  6
Continuous
 62
     7
370
    15
100
AcDbCircle
 10
-0.3782536693
 20
0.6397632116
 30
0.0
 40
0.5779499547961066
100
AcDbArc
 50
235.8062673119
 51
7.9845648631
  0
ARC
  5
A8
330
1F
100
AcDbEntity
  8
0
  6
Continuous
 62
     7
370
    15
100
AcDbCircle
 10
0.1544052092
 20
0.7143231824
 30
0.0
 40
0.0400983630929982
100
AcDbArc
 50
8.202520377
 51
61.0644684942
  0
ARC
  5
A9
330
1F
100
AcDbEntity
  8
0
  6
Continuous
 62
     7
370
    15
100
AcDbCircle
 10
-0.1202529831
 20
0.2248494397
 30
0.0
 40
0.6013655244729404
100
AcDbArc
 50
60.7261019855
 51
183.0647301894
  0
ARC
  5
AA
330
1F
100
AcDbEntity
  8
0
  6
Continuous
 62
     7
370
    15
100
AcDbCircle
 10
-0.6807741307
 20
0.1949952415
 30
0.0
 40
0.0400502268115412
100
AcDbArc
 50
183.2882978171
 51
236.1938941922
  0
ARC
  5
AB
330
1F
100
AcDbEntity
  8
0
  6
Continuous
 62
     7
370
    15
100
AcDbCircle
 10
0.7440081035
 20
0.0439439669
 30
0.0
 40
0.578447379046424
100
AcDbArc
 50
116.1619879912
 51
248.2477122348
  0
ARC
  5
AC
330
1F
100
AcDbEntity
  8
0
  6
Continuous
 62
     7
370
    15
100
AcDbCircle
 10
0.5447174532
 20
-0.4562738653
 30
0.0
 40
0.0399926213416676
100
AcDbArc
 50
247.8496041669
 51
300.8075529506
  0
ARC
  5
AD
330
1F
100
AcDbEntity
  8
0
  6
Continuous
 62
     7
370
    15
100
AcDbCircle
 10
0.2546148822
 20
0.0248992694
 30
0.0
 40
0.6018525609147423
100
AcDbArc
 50
301.0675555662
 51
63.3421446597
  0
ARC
  5
AE
330
1F
100
AcDbEntity
  8
0
  6
Continuous
 62
     7
370
    15
100
AcDbCircle
 10
0.5064479913
 20
0.5271019007
 30
0.0
 40
0.0400461734001756
100
AcDbArc
 50
62.9766667044
 51
115.885942655
  0
ARC
  5
AF
330
1F
100
AcDbEntity
  8
0
  6
Continuous
 62
     7
370
    15
100
AcDbCircle
 10
-0.3344062964
 20
-0.6320163792
 30
0.0
 40
0.5828619948921585
100
AcDbArc
 50
356.3900940758
 51
127.6606894614
  0
ARC
  5
B0
330
1F
100
AcDbEntity
  8
0
  6
Continuous
 62
     7
370
    15
100
AcDbCircle
 10
-0.666269864
 20
-0.2018218639
 30
0.0
 40
0.0395384081783046
100
AcDbArc
 50
127.8411640125
 51
181.2164607272
  0
ARC
  5
B1
330
1F
100
AcDbEntity
  8
0
  6
Continuous
 62
     7
370
    15
100
AcDbCircle
 10
-0.0990490076
 20
-0.1889437518
 30
0.0
 40
0.6069053974138708
100
AcDbArc
 50
181.2951305302
 51
302.755653007
  0
ARC
  5
B2
330
1F
100
AcDbEntity
  8
0
  6
Continuous
 62
     7
370
    15
100
AcDbCircle
 10
0.2078496004
 20
-0.6661489887
 30
0.0
 40
0.0395329924866235
100
AcDbArc
 50
302.8978706772
 51
356.2781928766
  0
ARC
  5
B3
330
1F
100
AcDbEntity
  8
0
  6
Continuous
 62
     7
370
    15
100
AcDbCircle
 10
-0.7000158002
 20
-0.2457702078
 30
0.0
 40
0.0434951926182524
100
AcDbArc
 50
72.5477895339
 51
97.6412581958
  0
ARC
  5
B4
330
1F
100
AcDbEntity
  8
0
  6
Continuous
 62
     7
370
    15
100
AcDbCircle
 10
0.1907780699
 20
-0.7184664071
 30
0.0
 40
0.0430271382256335
100
AcDbArc
 50
26.3889328188
 51
52.0314725437
  0
ARC
  5
B5
330
1F
100
AcDbEntity
  8
0
  6
Continuous
 62
     7
370
    15
100
AcDbCircle
 10
0.2382539256
 20
-0.7294500868
 30
0.0
 40
0.0614047943315655
100
AcDbArc
 50
81.5291654094
 51
101.2843293313
  0
ARC
  5
B6
330
1F
100
AcDbEntity
  8
0
  6
Continuous
 62
     7
370
    15
100
AcDbCircle
 10
-0.3354685982
 20
-0.6338080228
 30
0.0
 40
0.5628228788723243
100
AcDbArc
 50
356.3913916953
 51
127.6593918419
  0
ARC
  5
B7
330
1F
100
AcDbEntity
  8
0
  6
Continuous
 62
     7
370
    15
100
AcDbCircle
 10
-0.7325207697
 20
-0.209601596
 30
0.0
 40
0.0573139027718344
100
AcDbArc
 50
21.8770737127
 51
42.8850113438
  0
ARC
  5
B8
330
1F
100
AcDbEntity
  8
0
  6
Continuous
 62
     7
370
    15
100
AcDbCircle
 10
-0.3471231638
 20
-0.6535009947
 30
0.0
 40
0.5628457693694616
100
AcDbArc
 50
356.6759203917
 51
127.1531094736
  0
ARC
  5
B9
330
1F
100
AcDbEntity
  8
0
  6
Continuous
 62
     7
370
    15
100
AcDbCircle
 10
-0.667206399
 20
-0.2038575172
 30
0.0
 40
0.0197692040891524
100
AcDbArc
 50
127.8411640125
 51
181.2164607272
  0
ARC
  5
BA
330
1F
100
AcDbEntity
  8
0
  6
Continuous
 62
     7
370
    15
100
AcDbCircle
 10
0.2065135539
 20
-0.6679492717
 30
0.0
 40
0.0197664962433121
100
AcDbArc
 50
302.8978706772
 51
356.2781928766
  0
ARC
  5
BB
330
1F
100
AcDbEntity
  8
0
  6
Continuous
 62
     7
370
    15
100
AcDbCircle
 10
0.4305260448
 20
0.5290047787
 30
0.0
 40
0.0676727190171833
100
AcDbArc
 50
12.2057228694
 51
30.2828439514
  0
ARC
  5
BC
330
1F
100
AcDbEntity
  8
0
  6
Continuous
 62
     7
370
    15
100
AcDbCircle
 10
0.739914858
 20
0.0435877069
 30
0.0
 40
0.5557816313377283
100
AcDbArc
 50
115.9549572697
 51
199.9679705039
  0
ARC
  5
BD
330
1F
100
AcDbEntity
  8
0
  6
Continuous
 62
     7
370
    15
100
AcDbCircle
 10
-0.3769521526
 20
0.6365178253
 30
0.0
 40
0.5557721927850391
100
AcDbArc
 50
279.4835541731
 51
8.1618612466
  0
ARC
  5
BE
330
1F
100
AcDbEntity
  8
0
  6
Continuous
 62
     7
370
    15
100
AcDbCircle
 10
0.1994629315
 20
0.6462027798
 30
0.0
 40
0.0740363089099012
100
AcDbArc
 50
94.1590930297
 51
110.7847069676
  0
ARC
  5
BF
330
1F
100
AcDbEntity
  8
0
  6
Continuous
 62
     7
370
    15
100
AcDbCircle
 10
-0.7134329897
 20
0.1495023702
 30
0.0
 40
0.0438123324623304
100
AcDbArc
 50
74.81545224
 51
99.6250678566
  0
ARC
  5
C0
330
1F
100
AcDbEntity
  8
0
  6
Continuous
 62
     7
370
    15
100
AcDbCircle
 10
0.5258984127
 20
-0.508431215
 30
0.0
 40
0.0431478025751642
100
AcDbArc
 50
24.3758602653
 51
49.8409849812
  0
ARC
  5
C1
330
1F
100
AcDbEntity
  8
0
  6
Continuous
 62
     7
370
    15
100
AcDbCircle
 10
0.2563869078
 20
0.0215380168
 30
0.0
 40
0.5791477600131864
100
AcDbArc
 50
300.8909772232
 51
17.2414480894
  0
ARC
  5
C2
330
1F
100
AcDbEntity
  8
0
  6
Continuous
 62
     7
370
    15
100
AcDbCircle
 10
-0.3747154432
 20
1.0144216174
 30
0.0
 40
1.006394382279439
100
AcDbArc
 50
332.0765201916
 51
333.3348146629
  0
ARC
  5
C3
330
1F
100
AcDbEntity
  8
0
  6
Continuous
 62
     7
370
    15
100
AcDbCircle
 10
-0.1236013358
 20
0.2243085288
 30
0.0
 40
0.579269681835022
100
AcDbArc
 50
98.2070849708
 51
183.2185979331
  0
ARC
  5
C4
330
1F
100
AcDbEntity
  8
0
  6
Continuous
 62
     7
370
    15
100
AcDbCircle
 10
0.7280541712
 20
0.0239744486
 30
0.0
 40
0.555632513186723
100
AcDbArc
 50
115.9367231337
 51
148.1983154969
  0
ARC
  5
C5
330
1F
100
AcDbEntity
  8
0
  6
Continuous
 62
     7
370
    15
100
AcDbCircle
 10
-0.3887381168
 20
0.6167708448
 30
0.0
 40
0.5559311598349056
100
AcDbArc
 50
330.5919874644
 51
8.1675296087
  0
ARC
  5
C6
330
1F
100
AcDbEntity
  8
0
  6
Continuous
 62
     7
370
    15
100
AcDbCircle
 10
-0.0025782205
 20
-0.0050961556
 30
0.0
 40
0.0586988887372418
100
AcDbArc
 50
342.9709204649
 51
29.0642010166
  0
ARC
  5
C7
330
1F
100
AcDbEntity
  8
0
  6
Continuous
 62
     7
370
    15
100
AcDbCircle
 10
0.24355654
 20
0.0019430961
 30
0.0
 40
0.5802886182762634
100
AcDbArc
 50
330.5677088993
 51
20.0022076573
  0
ARC
  5
C8
330
1F
100
AcDbEntity
  8
0
  6
Continuous
 62
     7
370
    15
100
AcDbCircle
 10
-0.134803929
 20
0.2037577312
 30
0.0
 40
0.580180068329639
100
AcDbArc
 50
100.5485941841
 51
148.2193011939
  0
ARC
  5
C9
330
1F
100
AcDbEntity
  8
0
  6
Continuous
 62
     7
370
    15
100
AcDbCircle
 10
0.0022217119
 20
0.0037555377
 30
0.0
 40
0.8949707712331924
100
AcDbArc
 50
149.1540706382
 51
329.6302617753
  0
ARC
  5
CA
330
1F
100
AcDbEntity
  8
0
  6
Continuous
 62
     7
370
    15
100
AcDbCircle
 10
-0.0005603681
 20
-0.0009472351
 30
0.0
 40
0.8950111805155885
100
AcDbArc
 50
149.6785541746
 51
329.1057782389
  0
ARC
  5
CB
330
1F
100
AcDbEntity
  8
0
  6
Continuous
 62
     7
370
    15
100
AcDbCircle
 10
0.1533465195
 20
0.712560371
 30
0.0
 40
0.0200491815464995
100
AcDbArc
 50
8.202520377
 51
61.0644684942
  0
ARC
  5
CC
330
1F
100
AcDbEntity
  8
0
  6
Continuous
 62
     7
370
    15
100
AcDbCircle
 10
0.5054107078
 20
0.5252982402
 30
0.0
 40
0.020023086700088
100
AcDbArc
 50
62.9766667044
 51
115.885942655
  0
ARC
  5
CD
330
1F
100
AcDbEntity
  8
0
  6
Continuous
 62
     7
370
    15
100
AcDbCircle
 10
0.1417101012
 20
0.6928904007
 30
0.0
 40
0.0200491815464992
100
AcDbArc
 50
8.202520377
 51
61.0644684942
  0
ARC
  5
CE
330
1F
100
AcDbEntity
  8
0
  6
Continuous
 62
     7
370
    15
100
AcDbCircle
 10
0.4937742895
 20
0.5056282699
 30
0.0
 40
0.0200230867000879
100
AcDbArc
 50
62.9766667044
 51
115.885942655
  0
ARC
  5
CF
330
1F
100
AcDbEntity
  8
0
  6
Continuous
 62
     8
370
    15
100
AcDbCircle
 10
0.312453181
 20
-0.4003062646
 30
0.0
 40
0.2362628806026398
100
AcDbArc
 50
336.8171987686
 51
341.1343862465
  0
ARC
  5
D0
330
1F
100
AcDbEntity
  8
0
  6
Continuous
 62
     8
370
    15
100
AcDbCircle
 10
-0.1901312891
 20
-0.177008004
 30
0.0
 40
0.6146767674702586
100
AcDbArc
 50
144.9032983997
 51
146.5601552998
  0
ARC
  5
D1
330
1F
100
AcDbEntity
  8
0
  6
Continuous
 62
     8
370
    15
100
AcDbCircle
 10
0.2483157257
 20
0.0194178415
 30
0.0
 40
0.5874847897967406
100
AcDbArc
 50
17.2056178377
 51
63.0569007577
  0
ARC
  5
D2
330
1F
100
AcDbEntity
  8
0
  6
Continuous
 62
     8
370
    15
100
AcDbCircle
 10
-0.1217475003
 20
0.216341229
 30
0.0
 40
0.587420436825238
100
AcDbArc
 50
60.9991925644
 51
98.2751183886
  0
ARC
  5
D3
330
1F
100
AcDbEntity
  8
0
  6
Continuous
 62
     8
370
    15
100
AcDbCircle
 10
0.2365976874
 20
-0.000355638
 30
0.0
 40
0.5876140468914814
100
AcDbArc
 50
19.9807323385
 51
63.0543792471
  0
ARC
  5
D4
330
1F
100
AcDbEntity
  8
0
  6
Continuous
 62
     8
370
    15
100
AcDbCircle
 10
-0.1333374912
 20
0.1968310562
 30
0.0
 40
0.5872581679941662
100
AcDbArc
 50
60.9955956069
 51
100.5655307531
  0
MTEXT
  5
D6
330
1F
100
AcDbEntity
  8
0
  6
Continuous
 62
     7
100
AcDbMText
 10
-0.8955715486
 20
-0.9360988247
 30
0.0
 40
0.1903
 41
0.0
 71
     1
 72
     1
  1
SolidWorks Educational Edition.
  7
SLDTEXTSTYLE0
 73
     1
 44
1.0
  0
MTEXT
  5
D7
330
1F
100
AcDbEntity
  8
0
  6
Continuous
 62
     7
100
AcDbMText
 10
-0.8955715486
 20
-1.2215488247
 30
0.0
 40
0.1903
 41
0.0
 71
     1
 72
     1
  1
For Instructional Use Only.
  7
SLDTEXTSTYLE0
 73
     1
 44
1.0
  0
ENDSEC
  0
SECTION
  2
OBJECTS
  0
DICTIONARY
  5
C
330
0
100
AcDbDictionary
281
     1
  3
ACAD_GROUP
350
D
  3
ACAD_LAYOUT
350
1A
  3
ACAD_MLINESTYLE
350
17
  3
ACAD_PLOTSETTINGS
350
19
  3
ACAD_PLOTSTYLENAME
350
E
  0
DICTIONARY
  5
D
102
{ACAD_REACTORS
330
C
102
}
330
C
100
AcDbDictionary
281
     1
  0
DICTIONARY
  5
1A
102
{ACAD_REACTORS
330
C
102
}
330
C
100
AcDbDictionary
281
     1
  3
Layout1
350
1E
  3
Layout2
350
26
  3
Model
350
22
  0
DICTIONARY
  5
17
102
{ACAD_REACTORS
330
C
102
}
330
C
100
AcDbDictionary
281
     1
  3
Standard
350
18
  0
DICTIONARY
  5
19
102
{ACAD_REACTORS
330
C
102
}
330
C
100
AcDbDictionary
281
     1
  0
ACDBDICTIONARYWDFLT
  5
E
102
{ACAD_REACTORS
330
C
102
}
330
C
100
AcDbDictionary
281
     1
  3
Normal
350
F
100
AcDbDictionaryWithDefault
340
F
  0
LAYOUT
  5
1E
102
{ACAD_REACTORS
330
1A
102
}
330
1A
100
AcDbPlotSettings
  1

  2
none_device
  4

  6

 40
0.0
 41
0.0
 42
0.0
 43
0.0
 44
0.0
 45
0.0
 46
0.0
 47
0.0
 48
0.0
 49
0.0
140
0.0
141
0.0
142
1.0
143
1.0
 70
   688
 72
     0
 73
     0
 74
     5
  7

 75
    16
147
1.0
148
0.0
149
0.0
100
AcDbLayout
  1
Layout1
 70
     1
 71
     1
 10
0.0
 20
0.0
 11
12.0
 21
9.0
 12
0.0
 22
0.0
 32
0.0
 14
1.0000000000E+20
 24
1.0000000000E+20
 34
1.0000000000E+20
 15
-1.0000000000E+20
 25
-1.0000000000E+20
 35
-1.0000000000E+20
146
0.0
 13
0.0
 23
0.0
 33
0.0
 16
1.0
 26
0.0
 36
0.0
 17
0.0
 27
1.0
 37
0.0
 76
     0
330
1B
  0
LAYOUT
  5
26
102
{ACAD_REACTORS
330
1A
102
}
330
1A
100
AcDbPlotSettings
  1

  2
none_device
  4

  6

 40
0.0
 41
0.0
 42
0.0
 43
0.0
 44
0.0
 45
0.0
 46
0.0
 47
0.0
 48
0.0
 49
0.0
140
0.0
141
0.0
142
1.0
143
1.0
 70
   688
 72
     0
 73
     0
 74
     5
  7

 75
    16
147
1.0
148
0.0
149
0.0
100
AcDbLayout
  1
Layout2
 70
     1
 71
     2
 10
0.0
 20
0.0
 11
0.0
 21
0.0
 12
0.0
 22
0.0
 32
0.0
 14
0.0
 24
0.0
 34
0.0
 15
0.0
 25
0.0
 35
0.0
146
0.0
 13
0.0
 23
0.0
 33
0.0
 16
1.0
 26
0.0
 36
0.0
 17
0.0
 27
1.0
 37
0.0
 76
     0
330
23
  0
LAYOUT
  5
22
102
{ACAD_REACTORS
330
1A
102
}
330
1A
100
AcDbPlotSettings
  1

  2
none_device
  4
ANSI_A_(11.00_x_8.50_Inches)
  6

 40
6.35
 41
19.05
 42
6.35000508
 43
19.05000254
 44
279.4
 45
215.9
 46
132.8141923856
 47
88.0990329759
 48
0.0
 49
0.0
140
0.0
141
0.0
142
4.6608925621
143
1.0
 70
  1696
 72
     0
 73
     0
 74
     0
  7

 75
     0
147
0.5913241897
148
0.0
149
0.0
100
AcDbLayout
  1
Model
 70
     1
 71
     0
 10
0.0
 20
0.0
 11
12.0
 21
9.0
 12
0.0
 22
0.0
 32
0.0
 14
-0.8955715486
 24
-0.8959584156
 34
0.0
 15
0.904623329
 25
0.9094897658
 35
0.0
146
0.0
 13
0.0
 23
0.0
 33
0.0
 16
1.0
 26
0.0
 36
0.0
 17
0.0
 27
1.0
 37
0.0
 76
     0
330
1F
331
29
  0
MLINESTYLE
  5
18
102
{ACAD_REACTORS
330
17
102
}
330
17
100
AcDbMlineStyle
  2
Standard
 70
     0
  3

 62
   256
 51
90.0
 52
90.0
 71
     2
 49
0.5
 62
   256
  6
BYLAYER
 49
-0.5
 62
   256
  6
BYLAYER
  0
ACDBPLACEHOLDER
  5
F
102
{ACAD_REACTORS
330
E
102
}
330
E
  0
ENDSEC
  0
EOF
