  0
SECTION
  2
HEADER
  9
$ACADVER
  1
AC1015
  9
$ACADMAINTVER
 70
     6
  9
$DWGCODEPAGE
  3
ANSI_1252
  9
$INSBASE
 10
0.0
 20
0.0
 30
0.0
  9
$EXTMIN
 10
-1.4869768463
 20
-0.0550913756
 30
0.0
  9
$EXTMAX
 10
0.8043819551
 20
1.8437027289
 30
0.0
  9
$LIMMIN
 10
0.0
 20
0.0
  9
$LIMMAX
 10
12.0
 20
9.0
  9
$ORTHOMODE
 70
     0
  9
$REGENMODE
 70
     1
  9
$FILLMODE
 70
     1
  9
$QTEXTMODE
 70
     0
  9
$MIRRTEXT
 70
     1
  9
$LTSCALE
 40
1.0
  9
$ATTMODE
 70
     1
  9
$TEXTSIZE
 40
0.125
  9
$TRACEWID
 40
0.05
  9
$TEXTSTYLE
  7
Standard
  9
$CLAYER
  8
0
  9
$CELTYPE
  6
ByLayer
  9
$CECOLOR
 62
   256
  9
$CELTSCALE
 40
1.0
  9
$DISPSILH
 70
     0
  9
$DIMSCALE
 40
1.0
  9
$DIMASZ
 40
0.13
  9
$DIMEXO
 40
0.05
  9
$DIMDLI
 40
0.38
  9
$DIMRND
 40
0.0
  9
$DIMDLE
 40
0.0
  9
$DIMEXE
 40
0.125
  9
$DIMTP
 40
0.0
  9
$DIMTM
 40
0.0
  9
$DIMTXT
 40
0.125
  9
$DIMCEN
 40
0.09
  9
$DIMTSZ
 40
0.0
  9
$DIMTOL
 70
     0
  9
$DIMLIM
 70
     0
  9
$DIMTIH
 70
     1
  9
$DIMTOH
 70
     1
  9
$DIMSE1
 70
     0
  9
$DIMSE2
 70
     0
  9
$DIMTAD
 70
     0
  9
$DIMZIN
 70
     0
  9
$DIMBLK
  1

  9
$DIMASO
 70
     1
  9
$DIMSHO
 70
     1
  9
$DIMPOST
  1

  9
$DIMAPOST
  1

  9
$DIMALT
 70
     0
  9
$DIMALTD
 70
     2
  9
$DIMALTF
 40
25.4
  9
$DIMLFAC
 40
1.0
  9
$DIMTOFL
 70
     0
  9
$DIMTVP
 40
0.0
  9
$DIMTIX
 70
     0
  9
$DIMSOXD
 70
     0
  9
$DIMSAH
 70
     0
  9
$DIMBLK1
  1

  9
$DIMBLK2
  1

  9
$DIMSTYLE
  2
Standard
  9
$DIMCLRD
 70
     0
  9
$DIMCLRE
 70
     0
  9
$DIMCLRT
 70
     0
  9
$DIMTFAC
 40
1.0
  9
$DIMGAP
 40
0.06
  9
$DIMJUST
 70
     0
  9
$DIMSD1
 70
     0
  9
$DIMSD2
 70
     0
  9
$DIMTOLJ
 70
     1
  9
$DIMTZIN
 70
     0
  9
$DIMALTZ
 70
     0
  9
$DIMALTTZ
 70
     0
  9
$DIMUPT
 70
     0
  9
$DIMDEC
 70
     2
  9
$DIMTDEC
 70
     2
  9
$DIMALTU
 70
     2
  9
$DIMALTTD
 70
     2
  9
$DIMTXSTY
  7
Standard
  9
$DIMAUNIT
 70
     0
  9
$DIMADEC
 70
     2
  9
$DIMALTRND
 40
0.0
  9
$DIMAZIN
 70
     0
  9
$DIMDSEP
 70
    46
  9
$DIMATFIT
 70
     3
  9
$DIMFRAC
 70
     0
  9
$DIMLDRBLK
  1

  9
$DIMLUNIT
 70
     2
  9
$DIMLWD
 70
    -2
  9
$DIMLWE
 70
    -2
  9
$DIMTMOVE
 70
     0
  9
$LUNITS
 70
     2
  9
$LUPREC
 70
     2
  9
$SKETCHINC
 40
0.1
  9
$FILLETRAD
 40
0.5
  9
$AUNITS
 70
     0
  9
$AUPREC
 70
     2
  9
$MENU
  1
.
  9
$ELEVATION
 40
0.0
  9
$PELEVATION
 40
0.0
  9
$THICKNESS
 40
0.0
  9
$LIMCHECK
 70
     0
  9
$CHAMFERA
 40
0.5
  9
$CHAMFERB
 40
0.5
  9
$CHAMFERC
 40
1.0
  9
$CHAMFERD
 40
0.0
  9
$SKPOLY
 70
     0
  9
$TDCREATE
 40
2457141.862998947
  9
$TDUCREATE
 40
2457142.07133228
  9
$TDUPDATE
 40
2457141.863029039
  9
$TDUUPDATE
 40
2457142.071362372
  9
$TDINDWG
 40
0.0000000116
  9
$TDUSRTIMER
 40
0.0000000116
  9
$USRTIMER
 70
     1
  9
$ANGBASE
 50
0.0
  9
$ANGDIR
 70
     0
  9
$PDMODE
 70
     0
  9
$PDSIZE
 40
-1.0
  9
$PLINEWID
 40
0.0
  9
$SPLFRAME
 70
     0
  9
$SPLINETYPE
 70
     6
  9
$SPLINESEGS
 70
     8
  9
$HANDSEED
  5
137
  9
$SURFTAB1
 70
     6
  9
$SURFTAB2
 70
     6
  9
$SURFTYPE
 70
     6
  9
$SURFU
 70
     6
  9
$SURFV
 70
     6
  9
$UCSBASE
  2

  9
$UCSNAME
  2

  9
$UCSORG
 10
0.0
 20
0.0
 30
0.0
  9
$UCSXDIR
 10
1.0
 20
0.0
 30
0.0
  9
$UCSYDIR
 10
0.0
 20
1.0
 30
0.0
  9
$UCSORTHOREF
  2

  9
$UCSORTHOVIEW
 70
     0
  9
$UCSORGTOP
 10
0.0
 20
0.0
 30
0.0
  9
$UCSORGBOTTOM
 10
0.0
 20
0.0
 30
0.0
  9
$UCSORGLEFT
 10
0.0
 20
0.0
 30
0.0
  9
$UCSORGRIGHT
 10
0.0
 20
0.0
 30
0.0
  9
$UCSORGFRONT
 10
0.0
 20
0.0
 30
0.0
  9
$UCSORGBACK
 10
0.0
 20
0.0
 30
0.0
  9
$PUCSBASE
  2

  9
$PUCSNAME
  2

  9
$PUCSORG
 10
0.0
 20
0.0
 30
0.0
  9
$PUCSXDIR
 10
1.0
 20
0.0
 30
0.0
  9
$PUCSYDIR
 10
0.0
 20
1.0
 30
0.0
  9
$PUCSORTHOREF
  2

  9
$PUCSORTHOVIEW
 70
     0
  9
$PUCSORGTOP
 10
0.0
 20
0.0
 30
0.0
  9
$PUCSORGBOTTOM
 10
0.0
 20
0.0
 30
0.0
  9
$PUCSORGLEFT
 10
0.0
 20
0.0
 30
0.0
  9
$PUCSORGRIGHT
 10
0.0
 20
0.0
 30
0.0
  9
$PUCSORGFRONT
 10
0.0
 20
0.0
 30
0.0
  9
$PUCSORGBACK
 10
0.0
 20
0.0
 30
0.0
  9
$USERI1
 70
     0
  9
$USERI2
 70
     0
  9
$USERI3
 70
     0
  9
$USERI4
 70
     0
  9
$USERI5
 70
     0
  9
$USERR1
 40
0.0
  9
$USERR2
 40
0.0
  9
$USERR3
 40
0.0
  9
$USERR4
 40
0.0
  9
$USERR5
 40
0.0
  9
$WORLDVIEW
 70
     1
  9
$SHADEDGE
 70
     3
  9
$SHADEDIF
 70
    70
  9
$TILEMODE
 70
     1
  9
$MAXACTVP
 70
    64
  9
$PINSBASE
 10
0.0
 20
0.0
 30
0.0
  9
$PLIMCHECK
 70
     0
  9
$PEXTMIN
 10
1.0000000000E+20
 20
1.0000000000E+20
 30
1.0000000000E+20
  9
$PEXTMAX
 10
-1.0000000000E+20
 20
-1.0000000000E+20
 30
-1.0000000000E+20
  9
$PLIMMIN
 10
0.0
 20
0.0
  9
$PLIMMAX
 10
12.0
 20
9.0
  9
$UNITMODE
 70
     0
  9
$VISRETAIN
 70
     1
  9
$PLINEGEN
 70
     0
  9
$PSLTSCALE
 70
     1
  9
$TREEDEPTH
 70
  3020
  9
$CMLSTYLE
  2
Standard
  9
$CMLJUST
 70
     0
  9
$CMLSCALE
 40
1.0
  9
$PROXYGRAPHICS
 70
     1
  9
$MEASUREMENT
 70
     0
  9
$CELWEIGHT
370
    -1
  9
$ENDCAPS
280
     0
  9
$JOINSTYLE
280
     0
  9
$LWDISPLAY
290
     1
  9
$INSUNITS
 70
     1
  9
$HYPERLINKBASE
  1

  9
$STYLESHEET
  1

  9
$XEDIT
290
     1
  9
$CEPSNTYPE
380
     0
  9
$PSTYLEMODE
290
     1
  9
$FINGERPRINTGUID
  2
{B4416497-B1A0-463E-8DE7-2E0660EF99B0}
  9
$VERSIONGUID
  2
{FAEB1C32-E019-11D5-929B-00C0DF256EC4}
  9
$EXTNAMES
290
     1
  9
$PSVPSCALE
 40
0.0
  9
$OLESTARTUP
290
     0
  0
ENDSEC
  0
SECTION
  2
CLASSES
  0
CLASS
  1
ACDBDICTIONARYWDFLT
  2
AcDbDictionaryWithDefault
  3
ObjectDBX Classes
 90
        0
280
     0
281
     0
  0
CLASS
  1
VISUALSTYLE
  2
AcDbVisualStyle
  3
ObjectDBX Classes
 90
     4095
280
     0
281
     0
  0
CLASS
  1
MATERIAL
  2
AcDbMaterial
  3
ObjectDBX Classes
 90
     1153
280
     0
281
     0
  0
CLASS
  1
ACDBPLACEHOLDER
  2
AcDbPlaceHolder
  3
ObjectDBX Classes
 90
        0
280
     0
281
     0
  0
CLASS
  1
LAYOUT
  2
AcDbLayout
  3
ObjectDBX Classes
 90
        0
280
     0
281
     0
  0
ENDSEC
  0
SECTION
  2
TABLES
  0
TABLE
  2
VPORT
  5
8
330
0
100
AcDbSymbolTable
 70
     1
  0
VPORT
  5
29
330
8
100
AcDbSymbolTableRecord
100
AcDbViewportTableRecord
  2
*Active
 70
     0
 10
0.0
 20
0.0
 11
1.0
 21
1.0
 12
-0.3412974456
 22
0.8943056767
 13
0.0
 23
0.0
 14
0.5
 24
0.5
 15
0.5
 25
0.5
 16
0.0
 26
0.0
 36
1.0
 17
0.0
 27
0.0
 37
0.0
 40
1.9367699866
 41
1.2067442152
 42
50.0
 43
0.0
 44
0.0
 50
0.0
 51
0.0
 71
     0
 72
   100
 73
     1
 74
     3
 75
     0
 76
     0
 77
     0
 78
     0
281
     0
 65
     1
110
0.0
120
0.0
130
0.0
111
1.0
121
0.0
131
0.0
112
0.0
122
1.0
132
0.0
 79
     0
146
0.0
  0
ENDTAB
  0
TABLE
  2
LTYPE
  5
5
330
0
100
AcDbSymbolTable
 70
     6
  0
LTYPE
  5
14
330
5
100
AcDbSymbolTableRecord
100
AcDbLinetypeTableRecord
  2
ByBlock
 70
     0
  3

 72
    65
 73
     0
 40
0.0
  0
LTYPE
  5
15
330
5
100
AcDbSymbolTableRecord
100
AcDbLinetypeTableRecord
  2
ByLayer
 70
     0
  3

 72
    65
 73
     0
 40
0.0
  0
LTYPE
  5
16
330
5
100
AcDbSymbolTableRecord
100
AcDbLinetypeTableRecord
  2
Continuous
 70
     0
  3
Solid line
 72
    65
 73
     0
 40
0.0
  0
LTYPE
  5
3F
330
5
100
AcDbSymbolTableRecord
100
AcDbLinetypeTableRecord
  2
HIDDEN
 70
     0
  3
Hidden __ __ __ __ __ __ __ __ __ __ __ __ __ __
 72
    65
 73
     2
 40
0.075
 49
0.05
 74
     0
 49
-0.025
 74
     0
  0
LTYPE
  5
40
330
5
100
AcDbSymbolTableRecord
100
AcDbLinetypeTableRecord
  2
PHANTOM
 70
     0
  3
Phantom ______  __  __  ______  __  __  ______
 72
    65
 73
     6
 40
0.5
 49
0.25
 74
     0
 49
-0.05
 74
     0
 49
0.05
 74
     0
 49
-0.05
 74
     0
 49
0.05
 74
     0
 49
-0.05
 74
     0
  0
LTYPE
  5
41
330
5
100
AcDbSymbolTableRecord
100
AcDbLinetypeTableRecord
  2
CENTER
 70
     0
  3
Center ____ _ ____ _ ____ _ ____ _ ____ _ ____
 72
    65
 73
     4
 40
0.4
 49
0.25
 74
     0
 49
-0.05
 74
     0
 49
0.05
 74
     0
 49
-0.05
 74
     0
  0
LTYPE
  5
42
330
5
100
AcDbSymbolTableRecord
100
AcDbLinetypeTableRecord
  2
CENTERX2
 70
     0
  3
Center (2x) ________  __  ________  __  _____
 72
    65
 73
     4
 40
0.8
 49
0.5
 74
     0
 49
-0.1
 74
     0
 49
0.1
 74
     0
 49
-0.1
 74
     0
  0
LTYPE
  5
43
330
5
100
AcDbSymbolTableRecord
100
AcDbLinetypeTableRecord
  2
DOT2
 70
     0
  3
Dot (.5x) ........................................
 72
    65
 73
     2
 40
0.025
 49
0.0
 74
     0
 49
-0.025
 74
     0
  0
ENDTAB
  0
TABLE
  2
LAYER
  5
2
330
0
100
AcDbSymbolTable
 70
     1
  0
LAYER
  5
10
330
2
100
AcDbSymbolTableRecord
100
AcDbLayerTableRecord
  2
0
 70
     0
 62
     7
  6
Continuous
370
    -3
390
F
  0
ENDTAB
  0
TABLE
  2
STYLE
  5
3
330
0
100
AcDbSymbolTable
 70
     2
  0
STYLE
  5
11
330
3
100
AcDbSymbolTableRecord
100
AcDbTextStyleTableRecord
  2
Standard
 70
     0
 40
0.0
 41
1.0
 50
0.0
 71
     0
 42
0.125
  3
txt
  4

  0
STYLE
  5
134
330
3
100
AcDbSymbolTableRecord
100
AcDbTextStyleTableRecord
  2
SLDTEXTSTYLE0
 70
     0
 40
0.0
 41
0.7
 50
0.0
 71
     0
 42
0.2
  3
TXT
  4

  0
ENDTAB
  0
TABLE
  2
VIEW
  5
6
330
0
100
AcDbSymbolTable
 70
     0
  0
ENDTAB
  0
TABLE
  2
UCS
  5
7
330
0
100
AcDbSymbolTable
 70
     0
  0
ENDTAB
  0
TABLE
  2
APPID
  5
9
330
0
100
AcDbSymbolTable
 70
     1
  0
APPID
  5
12
330
9
100
AcDbSymbolTableRecord
100
AcDbRegAppTableRecord
  2
ACAD
 70
     0
  0
ENDTAB
  0
TABLE
  2
DIMSTYLE
  5
A
330
0
100
AcDbSymbolTable
 70
     1
100
AcDbDimStyleTable
  0
DIMSTYLE
105
27
330
A
100
AcDbSymbolTableRecord
100
AcDbDimStyleTableRecord
  2
Standard
 70
     0
178
     0
340
11
  0
ENDTAB
  0
TABLE
  2
BLOCK_RECORD
  5
1
330
0
100
AcDbSymbolTable
 70
     1
  0
BLOCK_RECORD
  5
1F
330
1
100
AcDbSymbolTableRecord
100
AcDbBlockTableRecord
  2
*Model_Space
340
22
  0
BLOCK_RECORD
  5
1B
330
1
100
AcDbSymbolTableRecord
100
AcDbBlockTableRecord
  2
*Paper_Space
340
1E
  0
BLOCK_RECORD
  5
23
330
1
100
AcDbSymbolTableRecord
100
AcDbBlockTableRecord
  2
*Paper_Space0
340
26
  0
ENDTAB
  0
ENDSEC
  0
SECTION
  2
BLOCKS
  0
BLOCK
  5
20
330
1F
100
AcDbEntity
  8
0
100
AcDbBlockBegin
  2
*Model_Space
 70
     0
 10
0.0
 20
0.0
 30
0.0
  3
*Model_Space
  1

  0
ENDBLK
  5
21
330
1F
100
AcDbEntity
  8
0
100
AcDbBlockEnd
  0
BLOCK
  5
1C
330
1B
100
AcDbEntity
 67
     1
  8
0
100
AcDbBlockBegin
  2
*Paper_Space
 70
     0
 10
0.0
 20
0.0
 30
0.0
  3
*Paper_Space
  1

  0
ENDBLK
  5
1D
330
1B
100
AcDbEntity
 67
     1
  8
0
100
AcDbBlockEnd
  0
BLOCK
  5
24
330
23
100
AcDbEntity
  8
0
100
AcDbBlockBegin
  2
*Paper_Space0
 70
     0
 10
0.0
 20
0.0
 30
0.0
  3
*Paper_Space0
  1

  0
ENDBLK
  5
25
330
23
100
AcDbEntity
  8
0
100
AcDbBlockEnd
  0
ENDSEC
  0
SECTION
  2
ENTITIES
  0
LWPOLYLINE
  5
44
330
1F
100
AcDbEntity
  8
0
  6
Continuous
 62
     7
370
    15
100
AcDbPolyline
 90
      127
 70
   128
 43
0.0
 10
-0.4403928711
 20
0.1218401893
 10
-0.4388817562
 20
0.1226988948
 10
-0.4372266594
 20
0.1254719959
 10
-0.4354316957
 20
0.1301525984
 10
-0.4335013275
 20
0.1367290653
 10
-0.4314403541
 20
0.1451850468
 10
-0.4292538994
 20
0.1554995197
 10
-0.4269473992
 20
0.1676468408
 10
-0.4245265879
 20
0.1815968098
 10
-0.421997484
 20
0.197314745
 10
-0.4193663752
 20
0.214761569
 10
-0.416639803
 20
0.2338939064
 10
-0.4138245459
 20
0.2546641912
 10
-0.4109276031
 20
0.277020785
 10
-0.407956177
 20
0.300908106
 10
-0.4049176549
 20
0.3262667664
 10
-0.4018195911
 20
0.3530337206
 10
-0.3986696879
 20
0.3811424219
 10
-0.3954757764
 20
0.4105229874
 10
-0.3922457972
 20
0.4411023726
 10
-0.3889877805
 20
0.4728045522
 10
-0.3857098262
 20
0.5055507096
 10
-0.382420084
 20
0.5392594327
 10
-0.3791267325
 20
0.5738469163
 10
-0.3758379596
 20
0.6092271705
 10
-0.3725619418
 20
0.6453122344
 10
-0.3693068236
 20
0.6820123948
 10
-0.3660806978
 20
0.7192364094
 10
-0.3628915851
 20
0.7568917334
 10
-0.3597474142
 20
0.7948847497
 10
-0.3566560018
 20
0.8331210016
 10
-0.3536250338
 20
0.871505428
 10
-0.3506620457
 20
0.909942599
 10
-0.3477744038
 20
0.9483369537
 10
-0.3449692874
 20
0.9865930377
 10
-0.3422536703
 20
1.0246157405
 10
-0.339634304
 20
1.0623105315
 10
-0.3371177008
 20
1.0995836956
 10
-0.3347101171
 20
1.1363425657
 10
-0.3324175388
 20
1.1724957537
 10
-0.3302456655
 20
1.2079533769
 10
-0.3281998968
 20
1.2426272821
 10
-0.3262853188
 20
1.2764312645
 10
-0.3245066915
 20
1.3092812821
 10
-0.3228684368
 20
1.3410956646
 10
-0.3213746277
 20
1.3717953164
 10
-0.320028978
 20
1.4013039133
 10
-0.3188348332
 20
1.4295480923
 10
-0.3177951621
 20
1.4564576339
 10
-0.3169125496
 20
1.4819656368
 10
-0.31618919
 20
1.5060086841
 10
-0.3156268815
 20
1.5285270009
 10
-0.3152270223
 20
1.5494646032
 10
-0.3149906064
 20
1.5687694367
 10
-0.3149182217
 20
1.5863935067
 10
-0.3150100479
 20
1.602292997
 10
-0.315265857
 20
1.6164283787
 10
-0.3156850128
 20
1.6287645093
 10
-0.3162664733
 20
1.6392707191
 10
-0.317008793
 20
1.6479208881
 10
-0.3179101261
 20
1.6546935105
 10
-0.318968232
 20
1.6595717485
 10
-0.32018048
 20
1.6625434742
 10
-0.3215438563
 20
1.6636012992
 10
-0.3230549712
 20
1.6627425937
 10
-0.324710068
 20
1.6599694925
 10
-0.3265050318
 20
1.6552888901
 10
-0.3284353999
 20
1.6487124231
 10
-0.3304963733
 20
1.6402564417
 10
-0.3326828281
 20
1.6299419687
 10
-0.3349893282
 20
1.6177946477
 10
-0.3374101395
 20
1.6038446786
 10
-0.3399392434
 20
1.5881267435
 10
-0.3425703522
 20
1.5706799194
 10
-0.3452969245
 20
1.551547582
 10
-0.3481121816
 20
1.5307772973
 10
-0.3510091243
 20
1.5084207034
 10
-0.3539805504
 20
1.4845333825
 10
-0.3570190725
 20
1.4591747221
 10
-0.3601171363
 20
1.4324077678
 10
-0.3632670395
 20
1.4042990666
 10
-0.366460951
 20
1.374918501
 10
-0.3696909303
 20
1.3443391159
 10
-0.372948947
 20
1.3126369363
 10
-0.3762269012
 20
1.2798907789
 10
-0.3795166434
 20
1.2461820558
 10
-0.3828099949
 20
1.2115945722
 10
-0.3860987678
 20
1.176214318
 10
-0.3893747857
 20
1.1401292541
 10
-0.3926299039
 20
1.1034290937
 10
-0.3958560296
 20
1.0662050791
 10
-0.3990451423
 20
1.0285497551
 10
-0.4021893133
 20
0.9905567388
 10
-0.4052807256
 20
0.9523204868
 10
-0.4083116936
 20
0.9139360605
 10
-0.4112746817
 20
0.8754988895
 10
-0.4141623236
 20
0.8371045348
 10
-0.4169674401
 20
0.7988484507
 10
-0.4196830572
 20
0.760825748
 10
-0.4223024234
 20
0.723130957
 10
-0.4248190267
 20
0.6858577929
 10
-0.4272266103
 20
0.6490989227
 10
-0.4295191886
 20
0.6129457348
 10
-0.4316910619
 20
0.5774881116
 10
-0.4337368306
 20
0.5428142064
 10
-0.4356514086
 20
0.5090102239
 10
-0.4374300359
 20
0.4761602063
 10
-0.4390682906
 20
0.4443458239
 10
-0.4405620997
 20
0.4136461721
 10
-0.4419077494
 20
0.3841375752
 10
-0.4431018942
 20
0.3558933962
 10
-0.4441415653
 20
0.3289838545
 10
-0.4450241778
 20
0.3034758516
 10
-0.4457475375
 20
0.2794328044
 10
-0.4463098459
 20
0.2569144876
 10
-0.4467097051
 20
0.2359768853
 10
-0.446946121
 20
0.2166720517
 10
-0.4470185058
 20
0.1990479817
 10
-0.4469266795
 20
0.1831484915
 10
-0.4466708704
 20
0.1690131097
 10
-0.4462517146
 20
0.1566769791
 10
-0.4456702541
 20
0.1461707693
 10
-0.4449279345
 20
0.1375206004
 10
-0.4440266013
 20
0.130747978
 10
-0.4429684954
 20
0.1258697399
 10
-0.4417562474
 20
0.1228980143
 10
-0.4403928711
 20
0.1218401893
  0
LWPOLYLINE
  5
45
330
1F
100
AcDbEntity
  8
0
  6
Continuous
 62
     7
370
    15
100
AcDbPolyline
 90
      127
 70
   128
 43
0.0
 10
-0.2916951865
 20
0.1115397191
 10
-0.2901840715
 20
0.1123984246
 10
-0.2885289748
 20
0.1151715258
 10
-0.286734011
 20
0.1198521282
 10
-0.2848036429
 20
0.1264285952
 10
-0.2827426695
 20
0.1348845766
 10
-0.2805562147
 20
0.1451990495
 10
-0.2782497146
 20
0.1573463706
 10
-0.2758289033
 20
0.1712963396
 10
-0.2732997994
 20
0.1870142748
 10
-0.2706686906
 20
0.2044610989
 10
-0.2679421183
 20
0.2235934363
 10
-0.2651268612
 20
0.244363721
 10
-0.2622299185
 20
0.2667203148
 10
-0.2592584924
 20
0.2906076358
 10
-0.2562199703
 20
0.3159662962
 10
-0.2531219065
 20
0.3427332505
 10
-0.2499720033
 20
0.3708419517
 10
-0.2467780918
 20
0.4002225173
 10
-0.2435481125
 20
0.4308019024
 10
-0.2402900958
 20
0.462504082
 10
-0.2370121416
 20
0.4952502394
 10
-0.2337223993
 20
0.5289589625
 10
-0.2304290479
 20
0.5635464461
 10
-0.227140275
 20
0.5989267003
 10
-0.2238642571
 20
0.6350117642
 10
-0.2206091389
 20
0.6717119246
 10
-0.2173830132
 20
0.7089359392
 10
-0.2141939005
 20
0.7465912632
 10
-0.2110497295
 20
0.7845842795
 10
-0.2079583172
 20
0.8228205315
 10
-0.2049273492
 20
0.8612049578
 10
-0.201964361
 20
0.8996421288
 10
-0.1990767192
 20
0.9380364835
 10
-0.1962716027
 20
0.9762925676
 10
-0.1935559856
 20
1.0143152703
 10
-0.1909366194
 20
1.0520100613
 10
-0.1884200161
 20
1.0892832254
 10
-0.1860124325
 20
1.1260420956
 10
-0.1837198542
 20
1.1621952835
 10
-0.1815479809
 20
1.1976529067
 10
-0.1795022122
 20
1.2323268119
 10
-0.1775876342
 20
1.2661307943
 10
-0.1758090069
 20
1.2989808119
 10
-0.1741707522
 20
1.3307951944
 10
-0.1726769431
 20
1.3614948462
 10
-0.1713312934
 20
1.3910034431
 10
-0.1701371486
 20
1.4192476221
 10
-0.1690974775
 20
1.4461571637
 10
-0.168214865
 20
1.4716651667
 10
-0.1674915053
 20
1.4957082139
 10
-0.1669291969
 20
1.5182265307
 10
-0.1665293377
 20
1.539164133
 10
-0.1662929218
 20
1.5584689666
 10
-0.166220537
 20
1.5760930366
 10
-0.1663123633
 20
1.5919925268
 10
-0.1665681723
 20
1.6061279086
 10
-0.1669873282
 20
1.6184640392
 10
-0.1675687887
 20
1.628970249
 10
-0.1683111083
 20
1.6376204179
 10
-0.1692124415
 20
1.6443930403
 10
-0.1702705474
 20
1.6492712784
 10
-0.1714827954
 20
1.652243004
 10
-0.1728461717
 20
1.653300829
 10
-0.1743572866
 20
1.6524421235
 10
-0.1760123834
 20
1.6496690224
 10
-0.1778073471
 20
1.6449884199
 10
-0.1797377153
 20
1.6384119529
 10
-0.1817986887
 20
1.6299559715
 10
-0.1839851434
 20
1.6196414986
 10
-0.1862916436
 20
1.6074941775
 10
-0.1887124549
 20
1.5935442085
 10
-0.1912415588
 20
1.5778262733
 10
-0.1938726676
 20
1.5603794492
 10
-0.1965992398
 20
1.5412471118
 10
-0.1994144969
 20
1.5204768271
 10
-0.2023114397
 20
1.4981202333
 10
-0.2052828658
 20
1.4742329123
 10
-0.2083213879
 20
1.4488742519
 10
-0.2114194517
 20
1.4221072976
 10
-0.2145693549
 20
1.3939985964
 10
-0.2177632664
 20
1.3646180309
 10
-0.2209932456
 20
1.3340386457
 10
-0.2242512623
 20
1.3023364661
 10
-0.2275292166
 20
1.2695903087
 10
-0.2308189588
 20
1.2358815856
 10
-0.2341123103
 20
1.201294102
 10
-0.2374010831
 20
1.1659138478
 10
-0.240677101
 20
1.1298287839
 10
-0.2439322192
 20
1.0931286235
 10
-0.247158345
 20
1.0559046089
 10
-0.2503474577
 20
1.0182492849
 10
-0.2534916286
 20
0.9802562686
 10
-0.256583041
 20
0.9420200166
 10
-0.259614009
 20
0.9036355903
 10
-0.2625769971
 20
0.8651984193
 10
-0.265464639
 20
0.8268040646
 10
-0.2682697554
 20
0.7885479805
 10
-0.2709853725
 20
0.7505252778
 10
-0.2736047388
 20
0.7128304868
 10
-0.276121342
 20
0.6755573227
 10
-0.2785289256
 20
0.6387984525
 10
-0.280821504
 20
0.6026452646
 10
-0.2829933773
 20
0.5671876414
 10
-0.285039146
 20
0.5325137362
 10
-0.286953724
 20
0.4987097538
 10
-0.2887323513
 20
0.4658597362
 10
-0.290370606
 20
0.4340453537
 10
-0.2918644151
 20
0.4033457019
 10
-0.2932100648
 20
0.373837105
 10
-0.2944042096
 20
0.345592926
 10
-0.2954438806
 20
0.3186833844
 10
-0.2963264932
 20
0.2931753815
 10
-0.2970498528
 20
0.2691323342
 10
-0.2976121613
 20
0.2466140174
 10
-0.2980120205
 20
0.2256764151
 10
-0.2982484364
 20
0.2063715815
 10
-0.2983208211
 20
0.1887475115
 10
-0.2982289949
 20
0.1728480213
 10
-0.2979731858
 20
0.1587126395
 10
-0.29755403
 20
0.146376509
 10
-0.2969725695
 20
0.1358702991
 10
-0.2962302498
 20
0.1272201302
 10
-0.2953289166
 20
0.1204475078
 10
-0.2942708107
 20
0.1155692698
 10
-0.2930585627
 20
0.1125975441
 10
-0.2916951865
 20
0.1115397191
  0
LWPOLYLINE
  5
46
330
1F
100
AcDbEntity
  8
0
  6
Continuous
 62
     7
370
    15
100
AcDbPolyline
 90
      127
 70
   128
 43
0.0
 10
-0.1429975019
 20
0.101239249
 10
-0.1414863869
 20
0.1020979545
 10
-0.1398312901
 20
0.1048710556
 10
-0.1380363264
 20
0.109551658
 10
-0.1361059582
 20
0.116128125
 10
-0.1340449848
 20
0.1245841064
 10
-0.1318585301
 20
0.1348985794
 10
-0.1295520299
 20
0.1470459004
 10
-0.1271312186
 20
0.1609958695
 10
-0.1246021147
 20
0.1767138047
 10
-0.121971006
 20
0.1941606287
 10
-0.1192444337
 20
0.2132929661
 10
-0.1164291766
 20
0.2340632508
 10
-0.1135322339
 20
0.2564198447
 10
-0.1105608077
 20
0.2803071656
 10
-0.1075222857
 20
0.3056658261
 10
-0.1044242219
 20
0.3324327803
 10
-0.1012743186
 20
0.3605414816
 10
-0.0980804071
 20
0.3899220471
 10
-0.0948504279
 20
0.4205014323
 10
-0.0915924112
 20
0.4522036118
 10
-0.088314457
 20
0.4849497692
 10
-0.0850247147
 20
0.5186584923
 10
-0.0817313633
 20
0.553245976
 10
-0.0784425904
 20
0.5886262302
 10
-0.0751665725
 20
0.624711294
 10
-0.0719114543
 20
0.6614114545
 10
-0.0686853285
 20
0.6986354691
 10
-0.0654962158
 20
0.736290793
 10
-0.0623520449
 20
0.7742838093
 10
-0.0592606325
 20
0.8125200613
 10
-0.0562296646
 20
0.8509044877
 10
-0.0532666764
 20
0.8893416586
 10
-0.0503790345
 20
0.9277360134
 10
-0.0475739181
 20
0.9659920974
 10
-0.044858301
 20
1.0040148002
 10
-0.0422389348
 20
1.0417095912
 10
-0.0397223315
 20
1.0789827552
 10
-0.0373147479
 20
1.1157416254
 10
-0.0350221696
 20
1.1518948134
 10
-0.0328502962
 20
1.1873524366
 10
-0.0308045275
 20
1.2220263418
 10
-0.0288899496
 20
1.2558303242
 10
-0.0271113223
 20
1.2886803418
 10
-0.0254730676
 20
1.3204947243
 10
-0.0239792584
 20
1.351194376
 10
-0.0226336087
 20
1.3807029729
 10
-0.0214394639
 20
1.4089471519
 10
-0.0203997929
 20
1.4358566936
 10
-0.0195171804
 20
1.4613646965
 10
-0.0187938207
 20
1.4854077438
 10
-0.0182315123
 20
1.5079260606
 10
-0.0178316531
 20
1.5288636628
 10
-0.0175952372
 20
1.5481684964
 10
-0.0175228524
 20
1.5657925664
 10
-0.0176146787
 20
1.5816920566
 10
-0.0178704877
 20
1.5958274384
 10
-0.0182896435
 20
1.608163569
 10
-0.0188711041
 20
1.6186697788
 10
-0.0196134237
 20
1.6273199478
 10
-0.0205147569
 20
1.6340925702
 10
-0.0215728628
 20
1.6389708082
 10
-0.0227851108
 20
1.6419425338
 10
-0.024148487
 20
1.6430003588
 10
-0.025659602
 20
1.6421416533
 10
-0.0273146987
 20
1.6393685522
 10
-0.0291096625
 20
1.6346879498
 10
-0.0310400307
 20
1.6281114828
 10
-0.0331010041
 20
1.6196555014
 10
-0.0352874588
 20
1.6093410284
 10
-0.037593959
 20
1.5971937074
 10
-0.0400147703
 20
1.5832437383
 10
-0.0425438742
 20
1.5675258031
 10
-0.0451749829
 20
1.5500789791
 10
-0.0479015552
 20
1.5309466417
 10
-0.0507168123
 20
1.510176357
 10
-0.053613755
 20
1.4878197631
 10
-0.0565851812
 20
1.4639324422
 10
-0.0596237032
 20
1.4385737817
 10
-0.062721767
 20
1.4118068275
 10
-0.0658716703
 20
1.3836981262
 10
-0.0690655818
 20
1.3543175607
 10
-0.072295561
 20
1.3237381755
 10
-0.0755535777
 20
1.292035996
 10
-0.0788315319
 20
1.2592898386
 10
-0.0821212742
 20
1.2255811155
 10
-0.0854146256
 20
1.1909936318
 10
-0.0887033985
 20
1.1556133776
 10
-0.0919794164
 20
1.1195283138
 10
-0.0952345346
 20
1.0828281533
 10
-0.0984606604
 20
1.0456041387
 10
-0.101649773
 20
1.0079488148
 10
-0.104793944
 20
0.9699557985
 10
-0.1078853563
 20
0.9317195465
 10
-0.1109163243
 20
0.8933351201
 10
-0.1138793125
 20
0.8548979492
 10
-0.1167669543
 20
0.8165035944
 10
-0.1195720708
 20
0.7782475104
 10
-0.1222876879
 20
0.7402248076
 10
-0.1249070541
 20
0.7025300166
 10
-0.1274236574
 20
0.6652568526
 10
-0.129831241
 20
0.6284979824
 10
-0.1321238193
 20
0.5923447944
 10
-0.1342956927
 20
0.5568871712
 10
-0.1363414614
 20
0.522213266
 10
-0.1382560393
 20
0.4884092836
 10
-0.1400346666
 20
0.455559266
 10
-0.1416729213
 20
0.4237448835
 10
-0.1431667305
 20
0.3930452318
 10
-0.1445123802
 20
0.3635366349
 10
-0.145706525
 20
0.3352924559
 10
-0.146746196
 20
0.3083829142
 10
-0.1476288085
 20
0.2828749113
 10
-0.1483521682
 20
0.258831864
 10
-0.1489144766
 20
0.2363135472
 10
-0.1493143358
 20
0.215375945
 10
-0.1495507517
 20
0.1960711114
 10
-0.1496231365
 20
0.1784470414
 10
-0.1495313102
 20
0.1625475512
 10
-0.1492755012
 20
0.1484121694
 10
-0.1488563453
 20
0.1360760388
 10
-0.1482748848
 20
0.125569829
 10
-0.1475325652
 20
0.11691966
 10
-0.146631232
 20
0.1101470376
 10
-0.1455731261
 20
0.1052687996
 10
-0.1443608781
 20
0.102297074
 10
-0.1429975019
 20
0.101239249
  0
LWPOLYLINE
  5
47
330
1F
100
AcDbEntity
  8
0
  6
Continuous
 62
     7
370
    15
100
AcDbPolyline
 90
      127
 70
   128
 43
0.0
 10
0.0057001828
 20
0.0909387788
 10
0.0072112977
 20
0.0917974843
 10
0.0088663945
 20
0.0945705854
 10
0.0106613582
 20
0.0992511879
 10
0.0125917264
 20
0.1058276549
 10
0.0146526998
 20
0.1142836363
 10
0.0168391545
 20
0.1245981092
 10
0.0191456547
 20
0.1367454303
 10
0.021566466
 20
0.1506953993
 10
0.0240955699
 20
0.1664133345
 10
0.0267266787
 20
0.1838601586
 10
0.0294532509
 20
0.202992496
 10
0.032268508
 20
0.2237627807
 10
0.0351654508
 20
0.2461193745
 10
0.0381368769
 20
0.2700066955
 10
0.041175399
 20
0.2953653559
 10
0.0442734628
 20
0.3221323102
 10
0.047423366
 20
0.3502410114
 10
0.0506172775
 20
0.3796215769
 10
0.0538472567
 20
0.4102009621
 10
0.0571052734
 20
0.4419031417
 10
0.0603832277
 20
0.4746492991
 10
0.0636729699
 20
0.5083580222
 10
0.0669663214
 20
0.5429455058
 10
0.0702550943
 20
0.57832576
 10
0.0735311121
 20
0.6144108239
 10
0.0767862303
 20
0.6511109843
 10
0.0800123561
 20
0.6883349989
 10
0.0832014688
 20
0.7259903229
 10
0.0863456398
 20
0.7639833392
 10
0.0894370521
 20
0.8022195912
 10
0.0924680201
 20
0.8406040175
 10
0.0954310082
 20
0.8790411885
 10
0.0983186501
 20
0.9174355432
 10
0.1011237665
 20
0.9556916273
 10
0.1038393836
 20
0.99371433
 10
0.1064587499
 20
1.031409121
 10
0.1089753531
 20
1.0686822851
 10
0.1113829368
 20
1.1054411553
 10
0.1136755151
 20
1.1415943432
 10
0.1158473884
 20
1.1770519664
 10
0.1178931571
 20
1.2117258716
 10
0.1198077351
 20
1.245529854
 10
0.1215863624
 20
1.2783798716
 10
0.1232246171
 20
1.3101942541
 10
0.1247184262
 20
1.3408939059
 10
0.1260640759
 20
1.3704025028
 10
0.1272582207
 20
1.3986466818
 10
0.1282978918
 20
1.4255562234
 10
0.1291805043
 20
1.4510642263
 10
0.1299038639
 20
1.4751072736
 10
0.1304661724
 20
1.4976255904
 10
0.1308660316
 20
1.5185631927
 10
0.1311024475
 20
1.5378680263
 10
0.1311748322
 20
1.5554920963
 10
0.131083006
 20
1.5713915865
 10
0.1308271969
 20
1.5855269683
 10
0.1304080411
 20
1.5978630988
 10
0.1298265806
 20
1.6083693087
 10
0.1290842609
 20
1.6170194776
 10
0.1281829278
 20
1.6237921
 10
0.1271248219
 20
1.628670338
 10
0.1259125739
 20
1.6316420637
 10
0.1245491976
 20
1.6326998887
 10
0.1230380827
 20
1.6318411832
 10
0.1213829859
 20
1.629068082
 10
0.1195880221
 20
1.6243874796
 10
0.117657654
 20
1.6178110126
 10
0.1155966806
 20
1.6093550312
 10
0.1134102258
 20
1.5990405583
 10
0.1111037257
 20
1.5868932372
 10
0.1086829144
 20
1.5729432682
 10
0.1061538105
 20
1.557225333
 10
0.1035227017
 20
1.5397785089
 10
0.1007961294
 20
1.5206461715
 10
0.0979808723
 20
1.4998758868
 10
0.0950839296
 20
1.477519293
 10
0.0921125035
 20
1.453631972
 10
0.0890739814
 20
1.4282733116
 10
0.0859759176
 20
1.4015063573
 10
0.0828260144
 20
1.3733976561
 10
0.0796321029
 20
1.3440170905
 10
0.0764021236
 20
1.3134377054
 10
0.0731441069
 20
1.2817355258
 10
0.0698661527
 20
1.2489893684
 10
0.0665764105
 20
1.2152806453
 10
0.063283059
 20
1.1806931617
 10
0.0599942861
 20
1.1453129075
 10
0.0567182682
 20
1.1092278436
 10
0.05346315
 20
1.0725276832
 10
0.0502370243
 20
1.0353036686
 10
0.0470479116
 20
0.9976483446
 10
0.0439037406
 20
0.9596553283
 10
0.0408123283
 20
0.9214190763
 10
0.0377813603
 20
0.88303465
 10
0.0348183722
 20
0.844597479
 10
0.0319307303
 20
0.8062031243
 10
0.0291256138
 20
0.7679470402
 10
0.0264099967
 20
0.7299243375
 10
0.0237906305
 20
0.6922295465
 10
0.0212740272
 20
0.6549563824
 10
0.0188664436
 20
0.6181975122
 10
0.0165738653
 20
0.5820443243
 10
0.014401992
 20
0.5465867011
 10
0.0123562233
 20
0.5119127959
 10
0.0104416453
 20
0.4781088135
 10
0.008663018
 20
0.4452587959
 10
0.0070247633
 20
0.4134444134
 10
0.0055309542
 20
0.3827447616
 10
0.0041853045
 20
0.3532361647
 10
0.0029911597
 20
0.3249919857
 10
0.0019514886
 20
0.2980824441
 10
0.0010688761
 20
0.2725744411
 10
0.0003455164
 20
0.2485313939
 10
-0.000216792
 20
0.2260130771
 10
-0.0006166512
 20
0.2050754748
 10
-0.0008530671
 20
0.1857706412
 10
-0.0009254519
 20
0.1681465712
 10
-0.0008336256
 20
0.152247081
 10
-0.0005778165
 20
0.1381116992
 10
-0.0001586607
 20
0.1257755686
 10
0.0004227998
 20
0.1152693588
 10
0.0011651194
 20
0.1066191899
 10
0.0020664526
 20
0.0998465675
 10
0.0031245585
 20
0.0949683294
 10
0.0043368065
 20
0.0919966038
 10
0.0057001828
 20
0.0909387788
  0
LWPOLYLINE
  5
48
330
1F
100
AcDbEntity
  8
0
  6
Continuous
 62
     7
370
    15
100
AcDbPolyline
 90
      127
 70
   128
 43
0.0
 10
0.1543978674
 20
0.0806383086
 10
0.1559089824
 20
0.0814970141
 10
0.1575640791
 20
0.0842701153
 10
0.1593590429
 20
0.0889507177
 10
0.161289411
 20
0.0955271847
 10
0.1633503844
 20
0.1039831661
 10
0.1655368392
 20
0.1142976391
 10
0.1678433393
 20
0.1264449601
 10
0.1702641506
 20
0.1403949292
 10
0.1727932545
 20
0.1561128643
 10
0.1754243633
 20
0.1735596884
 10
0.1781509356
 20
0.1926920258
 10
0.1809661927
 20
0.2134623105
 10
0.1838631354
 20
0.2358189044
 10
0.1868345615
 20
0.2597062253
 10
0.1898730836
 20
0.2850648857
 10
0.1929711474
 20
0.31183184
 10
0.1961210506
 20
0.3399405412
 10
0.1993149621
 20
0.3693211068
 10
0.2025449414
 20
0.3999004919
 10
0.2058029581
 20
0.4316026715
 10
0.2090809123
 20
0.4643488289
 10
0.2123706546
 20
0.498057552
 10
0.215664006
 20
0.5326450356
 10
0.2189527789
 20
0.5680252898
 10
0.2222287968
 20
0.6041103537
 10
0.225483915
 20
0.6408105142
 10
0.2287100407
 20
0.6780345287
 10
0.2318991534
 20
0.7156898527
 10
0.2350433244
 20
0.753682869
 10
0.2381347367
 20
0.791919121
 10
0.2411657047
 20
0.8303035473
 10
0.2441286929
 20
0.8687407183
 10
0.2470163347
 20
0.907135073
 10
0.2498214512
 20
0.9453911571
 10
0.2525370683
 20
0.9834138598
 10
0.2551564345
 20
1.0211086508
 10
0.2576730378
 20
1.0583818149
 10
0.2600806214
 20
1.0951406851
 10
0.2623731997
 20
1.1312938731
 10
0.264545073
 20
1.1667514962
 10
0.2665908417
 20
1.2014254014
 10
0.2685054197
 20
1.2352293839
 10
0.270284047
 20
1.2680794015
 10
0.2719223017
 20
1.2998937839
 10
0.2734161108
 20
1.3305934357
 10
0.2747617605
 20
1.3601020326
 10
0.2759559053
 20
1.3883462116
 10
0.2769955764
 20
1.4152557533
 10
0.2778781889
 20
1.4407637562
 10
0.2786015486
 20
1.4648068034
 10
0.279163857
 20
1.4873251202
 10
0.2795637162
 20
1.5082627225
 10
0.2798001321
 20
1.5275675561
 10
0.2798725169
 20
1.5451916261
 10
0.2797806906
 20
1.5610911163
 10
0.2795248816
 20
1.5752264981
 10
0.2791057257
 20
1.5875626287
 10
0.2785242652
 20
1.5980688385
 10
0.2777819456
 20
1.6067190074
 10
0.2768806124
 20
1.6134916298
 10
0.2758225065
 20
1.6183698679
 10
0.2746102585
 20
1.6213415935
 10
0.2732468822
 20
1.6223994185
 10
0.2717357673
 20
1.621540713
 10
0.2700806705
 20
1.6187676119
 10
0.2682857068
 20
1.6140870094
 10
0.2663553386
 20
1.6075105425
 10
0.2642943652
 20
1.599054561
 10
0.2621079105
 20
1.5887400881
 10
0.2598014103
 20
1.576592767
 10
0.257380599
 20
1.562642798
 10
0.2548514951
 20
1.5469248628
 10
0.2522203863
 20
1.5294780388
 10
0.2494938141
 20
1.5103457014
 10
0.246678557
 20
1.4895754166
 10
0.2437816142
 20
1.4672188228
 10
0.2408101881
 20
1.4433315018
 10
0.237771666
 20
1.4179728414
 10
0.2346736022
 20
1.3912058872
 10
0.231523699
 20
1.3630971859
 10
0.2283297875
 20
1.3337166204
 10
0.2250998083
 20
1.3031372352
 10
0.2218417916
 20
1.2714350556
 10
0.2185638373
 20
1.2386888982
 10
0.2152740951
 20
1.2049801751
 10
0.2119807436
 20
1.1703926915
 10
0.2086919708
 20
1.1350124373
 10
0.2054159529
 20
1.0989273734
 10
0.2021608347
 20
1.062227213
 10
0.1989347089
 20
1.0250031984
 10
0.1957455962
 20
0.9873478744
 10
0.1926014253
 20
0.9493548581
 10
0.1895100129
 20
0.9111186062
 10
0.1864790449
 20
0.8727341798
 10
0.1835160568
 20
0.8342970088
 10
0.1806284149
 20
0.7959026541
 10
0.1778232985
 20
0.7576465701
 10
0.1751076814
 20
0.7196238673
 10
0.1724883151
 20
0.6819290763
 10
0.1699717119
 20
0.6446559122
 10
0.1675641283
 20
0.6078970421
 10
0.1652715499
 20
0.5717438541
 10
0.1630996766
 20
0.5362862309
 10
0.1610539079
 20
0.5016123257
 10
0.1591393299
 20
0.4678083433
 10
0.1573607026
 20
0.4349583257
 10
0.1557224479
 20
0.4031439432
 10
0.1542286388
 20
0.3724442914
 10
0.1528829891
 20
0.3429356945
 10
0.1516888443
 20
0.3146915155
 10
0.1506491733
 20
0.2877819739
 10
0.1497665607
 20
0.262273971
 10
0.1490432011
 20
0.2382309237
 10
0.1484808926
 20
0.2157126069
 10
0.1480810334
 20
0.1947750046
 10
0.1478446175
 20
0.1754701711
 10
0.1477722328
 20
0.1578461011
 10
0.147864059
 20
0.1419466108
 10
0.1481198681
 20
0.1278112291
 10
0.1485390239
 20
0.1154750985
 10
0.1491204844
 20
0.1049688887
 10
0.1498628041
 20
0.0963187197
 10
0.1507641373
 20
0.0895460973
 10
0.1518222432
 20
0.0846678593
 10
0.1530344912
 20
0.0816961336
 10
0.1543978674
 20
0.0806383086
  0
LWPOLYLINE
  5
49
330
1F
100
AcDbEntity
  8
0
  6
Continuous
 62
     7
370
    15
100
AcDbPolyline
 90
      127
 70
   128
 43
0.0
 10
0.303095552
 20
0.0703378385
 10
0.304606667
 20
0.071196544
 10
0.3062617638
 20
0.0739696451
 10
0.3080567275
 20
0.0786502475
 10
0.3099870957
 20
0.0852267145
 10
0.3120480691
 20
0.0936826959
 10
0.3142345238
 20
0.1039971689
 10
0.316541024
 20
0.11614449
 10
0.3189618353
 20
0.130094459
 10
0.3214909392
 20
0.1458123942
 10
0.3241220479
 20
0.1632592182
 10
0.3268486202
 20
0.1823915556
 10
0.3296638773
 20
0.2031618404
 10
0.33256082
 20
0.2255184342
 10
0.3355322462
 20
0.2494057552
 10
0.3385707682
 20
0.2747644156
 10
0.341668832
 20
0.3015313698
 10
0.3448187353
 20
0.3296400711
 10
0.3480126468
 20
0.3590206366
 10
0.351242626
 20
0.3896000218
 10
0.3545006427
 20
0.4213022014
 10
0.3577785969
 20
0.4540483587
 10
0.3610683392
 20
0.4877570819
 10
0.3643616906
 20
0.5223445655
 10
0.3676504635
 20
0.5577248197
 10
0.3709264814
 20
0.5938098836
 10
0.3741815996
 20
0.630510044
 10
0.3774077254
 20
0.6677340586
 10
0.3805968381
 20
0.7053893825
 10
0.383741009
 20
0.7433823988
 10
0.3868324214
 20
0.7816186508
 10
0.3898633893
 20
0.8200030772
 10
0.3928263775
 20
0.8584402481
 10
0.3957140194
 20
0.8968346029
 10
0.3985191358
 20
0.9350906869
 10
0.4012347529
 20
0.9731133897
 10
0.4038541191
 20
1.0108081807
 10
0.4063707224
 20
1.0480813448
 10
0.408778306
 20
1.0848402149
 10
0.4110708843
 20
1.1209934029
 10
0.4132427577
 20
1.1564510261
 10
0.4152885264
 20
1.1911249313
 10
0.4172031043
 20
1.2249289137
 10
0.4189817316
 20
1.2577789313
 10
0.4206199863
 20
1.2895933138
 10
0.4221137955
 20
1.3202929655
 10
0.4234594452
 20
1.3498015624
 10
0.42465359
 20
1.3780457415
 10
0.425693261
 20
1.4049552831
 10
0.4265758735
 20
1.430463286
 10
0.4272992332
 20
1.4545063333
 10
0.4278615416
 20
1.4770246501
 10
0.4282614008
 20
1.4979622524
 10
0.4284978167
 20
1.5172670859
 10
0.4285702015
 20
1.5348911559
 10
0.4284783752
 20
1.5507906461
 10
0.4282225662
 20
1.5649260279
 10
0.4278034104
 20
1.5772621585
 10
0.4272219498
 20
1.5877683683
 10
0.4264796302
 20
1.5964185373
 10
0.425578297
 20
1.6031911597
 10
0.4245201911
 20
1.6080693977
 10
0.4233079431
 20
1.6110411233
 10
0.4219445669
 20
1.6120989484
 10
0.4204334519
 20
1.6112402429
 10
0.4187783552
 20
1.6084671417
 10
0.4169833914
 20
1.6037865393
 10
0.4150530232
 20
1.5972100723
 10
0.4129920498
 20
1.5887540909
 10
0.4108055951
 20
1.5784396179
 10
0.4084990949
 20
1.5662922969
 10
0.4060782836
 20
1.5523423278
 10
0.4035491797
 20
1.5366243927
 10
0.400918071
 20
1.5191775686
 10
0.3981914987
 20
1.5000452312
 10
0.3953762416
 20
1.4792749465
 10
0.3924792989
 20
1.4569183526
 10
0.3895078727
 20
1.4330310317
 10
0.3864693507
 20
1.4076723713
 10
0.3833712869
 20
1.380905417
 10
0.3802213836
 20
1.3527967158
 10
0.3770274721
 20
1.3234161502
 10
0.3737974929
 20
1.2928367651
 10
0.3705394762
 20
1.2611345855
 10
0.367261522
 20
1.2283884281
 10
0.3639717797
 20
1.194679705
 10
0.3606784283
 20
1.1600922214
 10
0.3573896554
 20
1.1247119672
 10
0.3541136375
 20
1.0886269033
 10
0.3508585193
 20
1.0519267428
 10
0.3476323935
 20
1.0147027283
 10
0.3444432809
 20
0.9770474043
 10
0.3412991099
 20
0.939054388
 10
0.3382076976
 20
0.900818136
 10
0.3351767296
 20
0.8624337096
 10
0.3322137414
 20
0.8239965387
 10
0.3293260996
 20
0.785602184
 10
0.3265209831
 20
0.7473460999
 10
0.323805366
 20
0.7093233972
 10
0.3211859998
 20
0.6716286061
 10
0.3186693965
 20
0.6343554421
 10
0.3162618129
 20
0.5975965719
 10
0.3139692346
 20
0.5614433839
 10
0.3117973612
 20
0.5259857607
 10
0.3097515926
 20
0.4913118555
 10
0.3078370146
 20
0.4575078731
 10
0.3060583873
 20
0.4246578555
 10
0.3044201326
 20
0.3928434731
 10
0.3029263234
 20
0.3621438213
 10
0.3015806737
 20
0.3326352244
 10
0.3003865289
 20
0.3043910454
 10
0.2993468579
 20
0.2774815037
 10
0.2984642454
 20
0.2519735008
 10
0.2977408857
 20
0.2279304536
 10
0.2971785773
 20
0.2054121367
 10
0.2967787181
 20
0.1844745345
 10
0.2965423022
 20
0.1651697009
 10
0.2964699174
 20
0.1475456309
 10
0.2965617437
 20
0.1316461407
 10
0.2968175527
 20
0.1175107589
 10
0.2972367086
 20
0.1051746283
 10
0.2978181691
 20
0.0946684185
 10
0.2985604887
 20
0.0860182495
 10
0.2994618219
 20
0.0792456271
 10
0.3005199278
 20
0.0743673891
 10
0.3017321758
 20
0.0713956635
 10
0.303095552
 20
0.0703378385
  0
LWPOLYLINE
  5
4A
330
1F
100
AcDbEntity
  8
0
  6
Continuous
 62
     7
370
    15
100
AcDbPolyline
 90
      127
 70
   128
 43
0.0
 10
0.4517932367
 20
0.0600373683
 10
0.4533043516
 20
0.0608960738
 10
0.4549594484
 20
0.063669175
 10
0.4567544121
 20
0.0683497774
 10
0.4586847803
 20
0.0749262444
 10
0.4607457537
 20
0.0833822258
 10
0.4629322084
 20
0.0936966987
 10
0.4652387086
 20
0.1058440198
 10
0.4676595199
 20
0.1197939888
 10
0.4701886238
 20
0.135511924
 10
0.4728197326
 20
0.1529587481
 10
0.4755463048
 20
0.1720910855
 10
0.4783615619
 20
0.1928613702
 10
0.4812585047
 20
0.215217964
 10
0.4842299308
 20
0.239105285
 10
0.4872684529
 20
0.2644639454
 10
0.4903665167
 20
0.2912308997
 10
0.4935164199
 20
0.3193396009
 10
0.4967103314
 20
0.3487201665
 10
0.4999403106
 20
0.3792995516
 10
0.5031983273
 20
0.4110017312
 10
0.5064762816
 20
0.4437478886
 10
0.5097660238
 20
0.4774566117
 10
0.5130593753
 20
0.5120440953
 10
0.5163481482
 20
0.5474243495
 10
0.519624166
 20
0.5835094134
 10
0.5228792842
 20
0.6202095738
 10
0.52610541
 20
0.6574335884
 10
0.5292945227
 20
0.6950889124
 10
0.5324386937
 20
0.7330819287
 10
0.535530106
 20
0.7713181807
 10
0.538561074
 20
0.809702607
 10
0.5415240621
 20
0.848139778
 10
0.544411704
 20
0.8865341327
 10
0.5472168204
 20
0.9247902168
 10
0.5499324375
 20
0.9628129195
 10
0.5525518038
 20
1.0005077105
 10
0.555068407
 20
1.0377808746
 10
0.5574759907
 20
1.0745397448
 10
0.559768569
 20
1.1106929327
 10
0.5619404423
 20
1.1461505559
 10
0.563986211
 20
1.1808244611
 10
0.565900789
 20
1.2146284435
 10
0.5676794163
 20
1.2474784611
 10
0.569317671
 20
1.2792928436
 10
0.5708114801
 20
1.3099924954
 10
0.5721571298
 20
1.3395010923
 10
0.5733512746
 20
1.3677452713
 10
0.5743909457
 20
1.3946548129
 10
0.5752735582
 20
1.4201628158
 10
0.5759969178
 20
1.4442058631
 10
0.5765592263
 20
1.4667241799
 10
0.5769590855
 20
1.4876617822
 10
0.5771955014
 20
1.5069666158
 10
0.5772678861
 20
1.5245906858
 10
0.5771760599
 20
1.540490176
 10
0.5769202508
 20
1.5546255578
 10
0.576501095
 20
1.5669616884
 10
0.5759196345
 20
1.5774678982
 10
0.5751773148
 20
1.5861180671
 10
0.5742759817
 20
1.5928906895
 10
0.5732178758
 20
1.5977689276
 10
0.5720056278
 20
1.6007406532
 10
0.5706422515
 20
1.6017984782
 10
0.5691311366
 20
1.6009397727
 10
0.5674760398
 20
1.5981666716
 10
0.565681076
 20
1.5934860691
 10
0.5637507079
 20
1.5869096021
 10
0.5616897345
 20
1.5784536207
 10
0.5595032797
 20
1.5681391478
 10
0.5571967796
 20
1.5559918267
 10
0.5547759683
 20
1.5420418577
 10
0.5522468644
 20
1.5263239225
 10
0.5496157556
 20
1.5088770984
 10
0.5468891833
 20
1.489744761
 10
0.5440739262
 20
1.4689744763
 10
0.5411769835
 20
1.4466178825
 10
0.5382055574
 20
1.4227305615
 10
0.5351670353
 20
1.3973719011
 10
0.5320689715
 20
1.3706049468
 10
0.5289190683
 20
1.3424962456
 10
0.5257251568
 20
1.31311568
 10
0.5224951775
 20
1.2825362949
 10
0.5192371608
 20
1.2508341153
 10
0.5159592066
 20
1.2180879579
 10
0.5126694644
 20
1.1843792348
 10
0.5093761129
 20
1.1497917512
 10
0.50608734
 20
1.114411497
 10
0.5028113221
 20
1.0783264331
 10
0.4995562039
 20
1.0416262727
 10
0.4963300782
 20
1.0044022581
 10
0.4931409655
 20
0.9667469341
 10
0.4899967945
 20
0.9287539178
 10
0.4869053822
 20
0.8905176658
 10
0.4838744142
 20
0.8521332395
 10
0.4809114261
 20
0.8136960685
 10
0.4780237842
 20
0.7753017138
 10
0.4752186677
 20
0.7370456297
 10
0.4725030507
 20
0.699022927
 10
0.4698836844
 20
0.661328136
 10
0.4673670811
 20
0.6240549719
 10
0.4649594975
 20
0.5872961017
 10
0.4626669192
 20
0.5511429138
 10
0.4604950459
 20
0.5156852906
 10
0.4584492772
 20
0.4810113854
 10
0.4565346992
 20
0.447207403
 10
0.4547560719
 20
0.4143573854
 10
0.4531178172
 20
0.3825430029
 10
0.4516240081
 20
0.3518433511
 10
0.4502783584
 20
0.3223347542
 10
0.4490842136
 20
0.2940905752
 10
0.4480445425
 20
0.2671810336
 10
0.44716193
 20
0.2416730307
 10
0.4464385703
 20
0.2176299834
 10
0.4458762619
 20
0.1951116666
 10
0.4454764027
 20
0.1741740643
 10
0.4452399868
 20
0.1548692307
 10
0.445167602
 20
0.1372451607
 10
0.4452594283
 20
0.1213456705
 10
0.4455152374
 20
0.1072102887
 10
0.4459343932
 20
0.0948741581
 10
0.4465158537
 20
0.0843679483
 10
0.4472581733
 20
0.0757177794
 10
0.4481595065
 20
0.068945157
 10
0.4492176124
 20
0.0640669189
 10
0.4504298604
 20
0.0610951933
 10
0.4517932367
 20
0.0600373683
  0
LWPOLYLINE
  5
4B
330
1F
100
AcDbEntity
  8
0
  6
Continuous
 62
     7
370
    15
100
AcDbPolyline
 90
      127
 70
   128
 43
0.0
 10
0.6004909213
 20
0.0497368981
 10
0.6020020363
 20
0.0505956036
 10
0.603657133
 20
0.0533687048
 10
0.6054520968
 20
0.0580493072
 10
0.607382465
 20
0.0646257742
 10
0.6094434384
 20
0.0730817556
 10
0.6116298931
 20
0.0833962286
 10
0.6139363932
 20
0.0955435496
 10
0.6163572045
 20
0.1094935187
 10
0.6188863084
 20
0.1252114538
 10
0.6215174172
 20
0.1426582779
 10
0.6242439895
 20
0.1617906153
 10
0.6270592466
 20
0.1825609
 10
0.6299561893
 20
0.2049174939
 10
0.6329276154
 20
0.2288048148
 10
0.6359661375
 20
0.2541634753
 10
0.6390642013
 20
0.2809304295
 10
0.6422141045
 20
0.3090391307
 10
0.645408016
 20
0.3384196963
 10
0.6486379953
 20
0.3689990814
 10
0.651896012
 20
0.400701261
 10
0.6551739662
 20
0.4334474184
 10
0.6584637085
 20
0.4671561415
 10
0.6617570599
 20
0.5017436252
 10
0.6650458328
 20
0.5371238793
 10
0.6683218507
 20
0.5732089432
 10
0.6715769689
 20
0.6099091037
 10
0.6748030946
 20
0.6471331182
 10
0.6779922073
 20
0.6847884422
 10
0.6811363783
 20
0.7227814585
 10
0.6842277906
 20
0.7610177105
 10
0.6872587586
 20
0.7994021369
 10
0.6902217468
 20
0.8378393078
 10
0.6931093886
 20
0.8762336625
 10
0.6959145051
 20
0.9144897466
 10
0.6986301222
 20
0.9525124494
 10
0.7012494884
 20
0.9902072404
 10
0.7037660917
 20
1.0274804044
 10
0.7061736753
 20
1.0642392746
 10
0.7084662536
 20
1.1003924626
 10
0.7106381269
 20
1.1358500858
 10
0.7126838956
 20
1.170523991
 10
0.7145984736
 20
1.2043279734
 10
0.7163771009
 20
1.237177991
 10
0.7180153556
 20
1.2689923734
 10
0.7195091647
 20
1.2996920252
 10
0.7208548144
 20
1.3292006221
 10
0.7220489592
 20
1.3574448011
 10
0.7230886303
 20
1.3843543428
 10
0.7239712428
 20
1.4098623457
 10
0.7246946025
 20
1.4339053929
 10
0.7252569109
 20
1.4564237098
 10
0.7256567701
 20
1.477361312
 10
0.725893186
 20
1.4966661456
 10
0.7259655708
 20
1.5142902156
 10
0.7258737445
 20
1.5301897058
 10
0.7256179355
 20
1.5443250876
 10
0.7251987796
 20
1.5566612182
 10
0.7246173191
 20
1.567167428
 10
0.7238749995
 20
1.575817597
 10
0.7229736663
 20
1.5825902194
 10
0.7219155604
 20
1.5874684574
 10
0.7207033124
 20
1.590440183
 10
0.7193399361
 20
1.591498008
 10
0.7178288212
 20
1.5906393025
 10
0.7161737244
 20
1.5878662014
 10
0.7143787607
 20
1.583185599
 10
0.7124483925
 20
1.576609132
 10
0.7103874191
 20
1.5681531506
 10
0.7082009644
 20
1.5578386776
 10
0.7058944642
 20
1.5456913566
 10
0.7034736529
 20
1.5317413875
 10
0.700944549
 20
1.5160234523
 10
0.6983134402
 20
1.4985766283
 10
0.695586868
 20
1.4794442909
 10
0.6927716109
 20
1.4586740062
 10
0.6898746681
 20
1.4363174123
 10
0.686903242
 20
1.4124300914
 10
0.6838647199
 20
1.3870714309
 10
0.6807666561
 20
1.3603044767
 10
0.6776167529
 20
1.3321957754
 10
0.6744228414
 20
1.3028152099
 10
0.6711928622
 20
1.2722358247
 10
0.6679348455
 20
1.2405336452
 10
0.6646568913
 20
1.2077874878
 10
0.661367149
 20
1.1740787647
 10
0.6580737975
 20
1.139491281
 10
0.6547850247
 20
1.1041110268
 10
0.6515090068
 20
1.0680259629
 10
0.6482538886
 20
1.0313258025
 10
0.6450277628
 20
0.9941017879
 10
0.6418386501
 20
0.956446464
 10
0.6386944792
 20
0.9184534477
 10
0.6356030668
 20
0.8802171957
 10
0.6325720988
 20
0.8418327693
 10
0.6296091107
 20
0.8033955984
 10
0.6267214688
 20
0.7650012436
 10
0.6239163524
 20
0.7267451596
 10
0.6212007353
 20
0.6887224568
 10
0.618581369
 20
0.6510276658
 10
0.6160647658
 20
0.6137545017
 10
0.6136571822
 20
0.5769956316
 10
0.6113646038
 20
0.5408424436
 10
0.6091927305
 20
0.5053848204
 10
0.6071469618
 20
0.4707109152
 10
0.6052323838
 20
0.4369069328
 10
0.6034537565
 20
0.4040569152
 10
0.6018155018
 20
0.3722425327
 10
0.6003216927
 20
0.341542881
 10
0.598976043
 20
0.3120342841
 10
0.5977818982
 20
0.283790105
 10
0.5967422272
 20
0.2568805634
 10
0.5958596146
 20
0.2313725605
 10
0.595136255
 20
0.2073295132
 10
0.5945739465
 20
0.1848111964
 10
0.5941740873
 20
0.1638735941
 10
0.5939376714
 20
0.1445687606
 10
0.5938652867
 20
0.1269446906
 10
0.5939571129
 20
0.1110452004
 10
0.594212922
 20
0.0969098186
 10
0.5946320778
 20
0.084573688
 10
0.5952135383
 20
0.0740674782
 10
0.595955858
 20
0.0654173092
 10
0.5968571912
 20
0.0586446868
 10
0.5979152971
 20
0.0537664488
 10
0.5991275451
 20
0.0507947232
 10
0.6004909213
 20
0.0497368981
  0
LWPOLYLINE
  5
5F
330
1F
100
AcDbEntity
  8
0
  6
Continuous
 62
     7
370
    15
100
AcDbPolyline
 90
       60
 70
   128
 43
0.0
 10
-0.2594361742
 20
1.7592986324
 10
-0.2622127227
 20
1.7229120414
 10
-0.264924967
 20
1.686624683
 10
-0.267565219
 20
1.6505394176
 10
-0.2701259945
 20
1.6147585327
 10
-0.2726000348
 20
1.5793834532
 10
-0.274980327
 20
1.5445144536
 10
-0.2772601237
 20
1.5102503738
 10
-0.2794329628
 20
1.4766883392
 10
-0.2814926851
 20
1.4439234849
 10
-0.283433452
 20
1.4120486865
 10
-0.2852497623
 20
1.3811542965
 10
-0.2869364674
 20
1.3513278885
 10
-0.2884887861
 20
1.3226540087
 10
-0.2899023183
 20
1.2952139363
 10
-0.2911730571
 20
1.2690854531
 10
-0.2922974006
 20
1.2443426232
 10
-0.2932721615
 20
1.2210555828
 10
-0.2940945769
 20
1.1992903416
 10
-0.2947623155
 20
1.1791085955
 10
-0.2952734846
 20
1.1605675519
 10
-0.2956266351
 20
1.1437197673
 10
-0.2958207661
 20
1.1286129987
 10
-0.2958553273
 20
1.1152900677
 10
-0.2957302206
 20
1.1037887398
 10
-0.2954458008
 20
1.0941416167
 10
-0.295002874
 20
1.0863760441
 10
-0.2944026957
 20
1.0805140345
 10
-0.2936469673
 20
1.0765722044
 10
-0.2927378309
 20
1.0745617272
 10
-0.2916778635
 20
1.074488302
 10
-0.2904700699
 20
1.0763521368
 10
-0.2891178735
 20
1.0801479484
 10
-0.2876251073
 20
1.0858649772
 10
-0.2859960028
 20
1.0934870176
 10
-0.2842351778
 20
1.1029924642
 10
-0.2823476236
 20
1.1143543726
 10
-0.2803386906
 20
1.1275405364
 10
-0.2782140734
 20
1.1425135779
 10
-0.2759797944
 20
1.1592310544
 10
-0.273642187
 20
1.1776455784
 10
-0.2712078773
 20
1.197704952
 10
-0.2686837657
 20
1.2193523146
 10
-0.266077007
 20
1.2425263045
 10
-0.2633949904
 20
1.2671612325
 10
-0.2606453183
 20
1.2931872682
 10
-0.257835785
 20
1.3205306379
 10
-0.2549743545
 20
1.349113834
 10
-0.2520691376
 20
1.3788558341
 10
-0.2491283697
 20
1.4096723315
 10
-0.2461603866
 20
1.4414759734
 10
-0.2431736014
 20
1.4741766089
 10
-0.2401764804
 20
1.5076815446
 10
-0.2371775194
 20
1.5418958069
 10
-0.2341852192
 20
1.576722412
 10
-0.2312080618
 20
1.61206264
 10
-0.2282544863
 20
1.6478163151
 10
-0.2253328649
 20
1.6838820898
 10
-0.2224514793
 20
1.7201577315
 10
-0.219618497
 20
1.7565404132
  0
LWPOLYLINE
  5
61
330
1F
100
AcDbEntity
  8
0
  6
Continuous
 62
     7
370
    15
100
AcDbPolyline
 90
       60
 70
   128
 43
0.0
 10
-0.1107384896
 20
1.7489981622
 10
-0.1135150381
 20
1.7126115713
 10
-0.1162272824
 20
1.6763242128
 10
-0.1188675343
 20
1.6402389474
 10
-0.1214283099
 20
1.6044580625
 10
-0.1239023502
 20
1.569082983
 10
-0.1262826423
 20
1.5342139834
 10
-0.1285624391
 20
1.4999499037
 10
-0.1307352782
 20
1.466387869
 10
-0.1327950005
 20
1.4336230147
 10
-0.1347357674
 20
1.4017482163
 10
-0.1365520777
 20
1.3708538264
 10
-0.1382387827
 20
1.3410274184
 10
-0.1397911015
 20
1.3123535386
 10
-0.1412046337
 20
1.2849134661
 10
-0.1424753725
 20
1.258784983
 10
-0.1435997159
 20
1.2340421531
 10
-0.1445744769
 20
1.2107551127
 10
-0.1453968923
 20
1.1889898715
 10
-0.1460646309
 20
1.1688081254
 10
-0.1465758
 20
1.1502670817
 10
-0.1469289505
 20
1.1334192972
 10
-0.1471230815
 20
1.1183125285
 10
-0.1471576426
 20
1.1049895976
 10
-0.147032536
 20
1.0934882697
 10
-0.1467481161
 20
1.0838411465
 10
-0.1463051893
 20
1.076075574
 10
-0.1457050111
 20
1.0702135644
 10
-0.1449492826
 20
1.0662717342
 10
-0.1440401462
 20
1.0642612571
 10
-0.1429801789
 20
1.0641878318
 10
-0.1417723852
 20
1.0660516667
 10
-0.1404201889
 20
1.0698474783
 10
-0.1389274227
 20
1.0755645071
 10
-0.1372983182
 20
1.0831865475
 10
-0.1355374932
 20
1.092691994
 10
-0.133649939
 20
1.1040539025
 10
-0.131641006
 20
1.1172400662
 10
-0.1295163888
 20
1.1322131077
 10
-0.1272821098
 20
1.1489305843
 10
-0.1249445024
 20
1.1673451083
 10
-0.1225101927
 20
1.1874044819
 10
-0.1199860811
 20
1.2090518445
 10
-0.1173793224
 20
1.2322258344
 10
-0.1146973058
 20
1.2568607624
 10
-0.1119476337
 20
1.282886798
 10
-0.1091381004
 20
1.3102301677
 10
-0.1062766698
 20
1.3388133638
 10
-0.103371453
 20
1.368555364
 10
-0.1004306851
 20
1.3993718614
 10
-0.097462702
 20
1.4311755033
 10
-0.0944759167
 20
1.4638761388
 10
-0.0914787958
 20
1.4973810744
 10
-0.0884798348
 20
1.5315953368
 10
-0.0854875346
 20
1.5664219418
 10
-0.0825103772
 20
1.6017621698
 10
-0.0795568016
 20
1.6375158449
 10
-0.0766351802
 20
1.6735816196
 10
-0.0737537946
 20
1.7098572614
 10
-0.0709208124
 20
1.7462399431
  0
LWPOLYLINE
  5
63
330
1F
100
AcDbEntity
  8
0
  6
Continuous
 62
     7
370
    15
100
AcDbPolyline
 90
       60
 70
   128
 43
0.0
 10
0.037959195
 20
1.738697692
 10
0.0351826465
 20
1.7023111011
 10
0.0324704022
 20
1.6660237427
 10
0.0298301503
 20
1.6299384772
 10
0.0272693748
 20
1.5941575924
 10
0.0247953345
 20
1.5587825129
 10
0.0224150423
 20
1.5239135133
 10
0.0201352455
 20
1.4896494335
 10
0.0179624064
 20
1.4560873989
 10
0.0159026842
 20
1.4233225446
 10
0.0139619172
 20
1.3914477461
 10
0.012145607
 20
1.3605533562
 10
0.0104589019
 20
1.3307269482
 10
0.0089065831
 20
1.3020530684
 10
0.007493051
 20
1.274612996
 10
0.0062223121
 20
1.2484845128
 10
0.0050979687
 20
1.2237416829
 10
0.0041232078
 20
1.2004546425
 10
0.0033007924
 20
1.1786894013
 10
0.0026330537
 20
1.1585076552
 10
0.0021218847
 20
1.1399666116
 10
0.0017687341
 20
1.123118827
 10
0.0015746031
 20
1.1080120584
 10
0.001540042
 20
1.0946891274
 10
0.0016651487
 20
1.0831877995
 10
0.0019495685
 20
1.0735406764
 10
0.0023924953
 20
1.0657751038
 10
0.0029926736
 20
1.0599130942
 10
0.003748402
 20
1.0559712641
 10
0.0046575384
 20
1.0539607869
 10
0.0057175057
 20
1.0538873617
 10
0.0069252994
 20
1.0557511965
 10
0.0082774958
 20
1.0595470081
 10
0.0097702619
 20
1.0652640369
 10
0.0113993664
 20
1.0728860773
 10
0.0131601914
 20
1.0823915239
 10
0.0150477457
 20
1.0937534323
 10
0.0170566787
 20
1.1069395961
 10
0.0191812959
 20
1.1219126376
 10
0.0214155748
 20
1.1386301141
 10
0.0237531823
 20
1.1570446381
 10
0.0261874919
 20
1.1771040117
 10
0.0287116036
 20
1.1987513743
 10
0.0313183622
 20
1.2219253642
 10
0.0340003789
 20
1.2465602922
 10
0.0367500509
 20
1.2725863279
 10
0.0395595842
 20
1.2999296976
 10
0.0424210148
 20
1.3285128936
 10
0.0453262316
 20
1.3582548938
 10
0.0482669996
 20
1.3890713912
 10
0.0512349827
 20
1.4208750331
 10
0.0542217679
 20
1.4535756686
 10
0.0572188888
 20
1.4870806043
 10
0.0602178499
 20
1.5212948666
 10
0.0632101501
 20
1.5561214717
 10
0.0661873075
 20
1.5914616996
 10
0.069140883
 20
1.6272153748
 10
0.0720625044
 20
1.6632811494
 10
0.07494389
 20
1.6995567912
 10
0.0777768723
 20
1.7359394729
  0
LWPOLYLINE
  5
65
330
1F
100
AcDbEntity
  8
0
  6
Continuous
 62
     7
370
    15
100
AcDbPolyline
 90
       60
 70
   128
 43
0.0
 10
0.1866568797
 20
1.7283972219
 10
0.1838803312
 20
1.6920106309
 10
0.1811680869
 20
1.6557232725
 10
0.1785278349
 20
1.6196380071
 10
0.1759670594
 20
1.5838571222
 10
0.1734930191
 20
1.5484820427
 10
0.1711127269
 20
1.5136130431
 10
0.1688329302
 20
1.4793489633
 10
0.1666600911
 20
1.4457869287
 10
0.1646003688
 20
1.4130220744
 10
0.1626596019
 20
1.381147276
 10
0.1608432916
 20
1.350252886
 10
0.1591565865
 20
1.3204264781
 10
0.1576042678
 20
1.2917525982
 10
0.1561907356
 20
1.2643125258
 10
0.1549199968
 20
1.2381840426
 10
0.1537956533
 20
1.2134412127
 10
0.1528208924
 20
1.1901541724
 10
0.151998477
 20
1.1683889312
 10
0.1513307384
 20
1.1482071851
 10
0.1508195693
 20
1.1296661414
 10
0.1504664188
 20
1.1128183568
 10
0.1502722878
 20
1.0977115882
 10
0.1502377266
 20
1.0843886573
 10
0.1503628333
 20
1.0728873293
 10
0.1506472531
 20
1.0632402062
 10
0.1510901799
 20
1.0554746336
 10
0.1516903582
 20
1.049612624
 10
0.1524460866
 20
1.0456707939
 10
0.153355223
 20
1.0436603168
 10
0.1544151904
 20
1.0435868915
 10
0.155622984
 20
1.0454507263
 10
0.1569751804
 20
1.049246538
 10
0.1584679466
 20
1.0549635667
 10
0.1600970511
 20
1.0625856072
 10
0.1618578761
 20
1.0720910537
 10
0.1637454303
 20
1.0834529621
 10
0.1657543633
 20
1.0966391259
 10
0.1678789805
 20
1.1116121674
 10
0.1701132595
 20
1.1283296439
 10
0.1724508669
 20
1.146744168
 10
0.1748851766
 20
1.1668035415
 10
0.1774092882
 20
1.1884509042
 10
0.1800160469
 20
1.2116248941
 10
0.1826980635
 20
1.236259822
 10
0.1854477356
 20
1.2622858577
 10
0.1882572689
 20
1.2896292274
 10
0.1911186994
 20
1.3182124235
 10
0.1940239163
 20
1.3479544237
 10
0.1969646842
 20
1.378770921
 10
0.1999326673
 20
1.4105745629
 10
0.2029194525
 20
1.4432751985
 10
0.2059165735
 20
1.4767801341
 10
0.2089155345
 20
1.5109943965
 10
0.2119078347
 20
1.5458210015
 10
0.2148849921
 20
1.5811612295
 10
0.2178385676
 20
1.6169149046
 10
0.220760189
 20
1.6529806793
 10
0.2236415746
 20
1.6892563211
 10
0.2264745569
 20
1.7256390027
  0
LWPOLYLINE
  5
67
330
1F
100
AcDbEntity
  8
0
  6
Continuous
 62
     7
370
    15
100
AcDbPolyline
 90
       60
 70
   128
 43
0.0
 10
0.3353545643
 20
1.7180967517
 10
0.3325780158
 20
1.6817101608
 10
0.3298657715
 20
1.6454228024
 10
0.3272255196
 20
1.6093375369
 10
0.324664744
 20
1.573556652
 10
0.3221907037
 20
1.5381815725
 10
0.3198104116
 20
1.5033125729
 10
0.3175306148
 20
1.4690484932
 10
0.3153577757
 20
1.4354864585
 10
0.3132980534
 20
1.4027216042
 10
0.3113572865
 20
1.3708468058
 10
0.3095409762
 20
1.3399524159
 10
0.3078542712
 20
1.3101260079
 10
0.3063019524
 20
1.2814521281
 10
0.3048884202
 20
1.2540120556
 10
0.3036176814
 20
1.2278835725
 10
0.302493338
 20
1.2031407426
 10
0.301518577
 20
1.1798537022
 10
0.3006961616
 20
1.158088461
 10
0.300028423
 20
1.1379067149
 10
0.2995172539
 20
1.1193656712
 10
0.2991641034
 20
1.1025178867
 10
0.2989699724
 20
1.087411118
 10
0.2989354113
 20
1.0740881871
 10
0.2990605179
 20
1.0625868592
 10
0.2993449378
 20
1.052939736
 10
0.2997878646
 20
1.0451741635
 10
0.3003880428
 20
1.0393121539
 10
0.3011437713
 20
1.0353703237
 10
0.3020529077
 20
1.0333598466
 10
0.303112875
 20
1.0332864214
 10
0.3043206687
 20
1.0351502562
 10
0.305672865
 20
1.0389460678
 10
0.3071656312
 20
1.0446630966
 10
0.3087947357
 20
1.052285137
 10
0.3105555607
 20
1.0617905835
 10
0.3124431149
 20
1.073152492
 10
0.3144520479
 20
1.0863386558
 10
0.3165766651
 20
1.1013116973
 10
0.3188109441
 20
1.1180291738
 10
0.3211485515
 20
1.1364436978
 10
0.3235828612
 20
1.1565030714
 10
0.3261069728
 20
1.178150434
 10
0.3287137315
 20
1.2013244239
 10
0.3313957481
 20
1.2259593519
 10
0.3341454202
 20
1.2519853875
 10
0.3369549535
 20
1.2793287573
 10
0.3398163841
 20
1.3079119533
 10
0.3427216009
 20
1.3376539535
 10
0.3456623688
 20
1.3684704509
 10
0.3486303519
 20
1.4002740928
 10
0.3516171372
 20
1.4329747283
 10
0.3546142581
 20
1.4664796639
 10
0.3576132191
 20
1.5006939263
 10
0.3606055193
 20
1.5355205314
 10
0.3635826767
 20
1.5708607593
 10
0.3665362523
 20
1.6066144345
 10
0.3694578737
 20
1.6426802091
 10
0.3723392593
 20
1.6789558509
 10
0.3751722415
 20
1.7153385326
  0
LWPOLYLINE
  5
69
330
1F
100
AcDbEntity
  8
0
  6
Continuous
 62
     7
370
    15
100
AcDbPolyline
 90
       60
 70
   128
 43
0.0
 10
0.4840522489
 20
1.7077962815
 10
0.4812757004
 20
1.6714096906
 10
0.4785634561
 20
1.6351223322
 10
0.4759232042
 20
1.5990370667
 10
0.4733624287
 20
1.5632561819
 10
0.4708883884
 20
1.5278811024
 10
0.4685080962
 20
1.4930121028
 10
0.4662282994
 20
1.458748023
 10
0.4640554603
 20
1.4251859884
 10
0.4619957381
 20
1.3924211341
 10
0.4600549711
 20
1.3605463357
 10
0.4582386609
 20
1.3296519457
 10
0.4565519558
 20
1.2998255377
 10
0.454999637
 20
1.2711516579
 10
0.4535861049
 20
1.2437115855
 10
0.452315366
 20
1.2175831023
 10
0.4511910226
 20
1.1928402724
 10
0.4502162617
 20
1.169553232
 10
0.4493938463
 20
1.1477879908
 10
0.4487261076
 20
1.1276062447
 10
0.4482149386
 20
1.1090652011
 10
0.447861788
 20
1.0922174165
 10
0.447667657
 20
1.0771106479
 10
0.4476330959
 20
1.0637877169
 10
0.4477582026
 20
1.052286389
 10
0.4480426224
 20
1.0426392659
 10
0.4484855492
 20
1.0348736933
 10
0.4490857275
 20
1.0290116837
 10
0.4498414559
 20
1.0250698536
 10
0.4507505923
 20
1.0230593764
 10
0.4518105596
 20
1.0229859512
 10
0.4530183533
 20
1.024849786
 10
0.4543705497
 20
1.0286455976
 10
0.4558633158
 20
1.0343626264
 10
0.4574924203
 20
1.0419846668
 10
0.4592532453
 20
1.0514901134
 10
0.4611407996
 20
1.0628520218
 10
0.4631497326
 20
1.0760381856
 10
0.4652743498
 20
1.0910112271
 10
0.4675086287
 20
1.1077287036
 10
0.4698462362
 20
1.1261432276
 10
0.4722805458
 20
1.1462026012
 10
0.4748046575
 20
1.1678499638
 10
0.4774114161
 20
1.1910239537
 10
0.4800934328
 20
1.2156588817
 10
0.4828431048
 20
1.2416849174
 10
0.4856526381
 20
1.2690282871
 10
0.4885140687
 20
1.2976114831
 10
0.4914192855
 20
1.3273534833
 10
0.4943600535
 20
1.3581699807
 10
0.4973280366
 20
1.3899736226
 10
0.5003148218
 20
1.4226742581
 10
0.5033119427
 20
1.4561791938
 10
0.5063109038
 20
1.4903934561
 10
0.509303204
 20
1.5252200612
 10
0.5122803614
 20
1.5605602892
 10
0.5152339369
 20
1.5963139643
 10
0.5181555583
 20
1.6323797389
 10
0.5210369439
 20
1.6686553807
 10
0.5238699262
 20
1.7050380624
  0
LWPOLYLINE
  5
6B
330
1F
100
AcDbEntity
  8
0
  6
Continuous
 62
     7
370
    15
100
AcDbPolyline
 90
       60
 70
   128
 43
0.0
 10
0.6327499336
 20
1.6974958114
 10
0.6299733851
 20
1.6611092205
 10
0.6272611408
 20
1.624821862
 10
0.6246208888
 20
1.5887365966
 10
0.6220601133
 20
1.5529557117
 10
0.619586073
 20
1.5175806322
 10
0.6172057809
 20
1.4827116326
 10
0.6149259841
 20
1.4484475529
 10
0.612753145
 20
1.4148855182
 10
0.6106934227
 20
1.3821206639
 10
0.6087526558
 20
1.3502458655
 10
0.6069363455
 20
1.3193514755
 10
0.6052496404
 20
1.2895250676
 10
0.6036973217
 20
1.2608511877
 10
0.6022837895
 20
1.2334111153
 10
0.6010130507
 20
1.2072826321
 10
0.5998887072
 20
1.1825398022
 10
0.5989139463
 20
1.1592527619
 10
0.5980915309
 20
1.1374875207
 10
0.5974237923
 20
1.1173057746
 10
0.5969126232
 20
1.0987647309
 10
0.5965594727
 20
1.0819169463
 10
0.5963653417
 20
1.0668101777
 10
0.5963307805
 20
1.0534872468
 10
0.5964558872
 20
1.0419859189
 10
0.596740307
 20
1.0323387957
 10
0.5971832338
 20
1.0245732232
 10
0.5977834121
 20
1.0187112136
 10
0.5985391405
 20
1.0147693834
 10
0.5994482769
 20
1.0127589063
 10
0.6005082443
 20
1.012685481
 10
0.6017160379
 20
1.0145493159
 10
0.6030682343
 20
1.0183451275
 10
0.6045610005
 20
1.0240621563
 10
0.606190105
 20
1.0316841967
 10
0.60795093
 20
1.0411896432
 10
0.6098384842
 20
1.0525515517
 10
0.6118474172
 20
1.0657377154
 10
0.6139720344
 20
1.0807107569
 10
0.6162063134
 20
1.0974282335
 10
0.6185439208
 20
1.1158427575
 10
0.6209782305
 20
1.135902131
 10
0.6235023421
 20
1.1575494937
 10
0.6261091008
 20
1.1807234836
 10
0.6287911174
 20
1.2053584115
 10
0.6315407895
 20
1.2313844472
 10
0.6343503228
 20
1.2587278169
 10
0.6372117533
 20
1.287311013
 10
0.6401169702
 20
1.3170530132
 10
0.6430577381
 20
1.3478695106
 10
0.6460257212
 20
1.3796731525
 10
0.6490125064
 20
1.412373788
 10
0.6520096274
 20
1.4458787236
 10
0.6550085884
 20
1.480092986
 10
0.6580008886
 20
1.514919591
 10
0.660978046
 20
1.550259819
 10
0.6639316215
 20
1.5860134941
 10
0.6668532429
 20
1.6220792688
 10
0.6697346286
 20
1.6583549106
 10
0.6725676108
 20
1.6947375923
  0
LWPOLYLINE
  5
6F
330
1F
100
AcDbEntity
  8
0
  6
Continuous
 62
     7
370
    15
100
AcDbPolyline
 90
       74
 70
   128
 43
0.0
 10
0.537019436
 20
-0.0458659627
 10
0.5400176927
 20
-0.0116540793
 10
0.5430092229
 20
0.0231690745
 10
0.5459855505
 20
0.058504834
 10
0.5489382427
 20
0.0942530815
 10
0.5518589337
 20
0.1303125313
 10
0.5547393481
 20
0.1665810153
 10
0.5575713249
 20
0.2029557736
 10
0.5603468401
 20
0.239333745
 10
0.5630580299
 20
0.2756118593
 10
0.5656972125
 20
0.3116873291
 10
0.5682569105
 20
0.3474579412
 10
0.5707298712
 20
0.3828223462
 10
0.5731090881
 20
0.4176803457
 10
0.5753878201
 20
0.4519331758
 10
0.5775596108
 20
0.4854837875
 10
0.5796183068
 20
0.5182371214
 10
0.5815580753
 20
0.5501003769
 10
0.5833734202
 20
0.5809832755
 10
0.585059198
 20
0.610798316
 10
0.5866106326
 20
0.639461023
 10
0.588023328
 20
0.6668901862
 10
0.5892932818
 20
0.69300809
 10
0.5904168958
 20
0.7177407342
 10
0.5913909864
 20
0.7410180434
 10
0.5922127936
 20
0.7627740656
 10
0.5928799891
 20
0.7829471592
 10
0.5933906825
 20
0.8014801673
 10
0.5937434268
 20
0.8183205803
 10
0.5939372227
 20
0.8334206838
 10
0.5939715209
 20
0.8467376946
 10
0.5938462243
 20
0.8582338812
 10
0.593561688
 20
0.8678766715
 10
0.5931187181
 20
0.8756387443
 10
0.5925185697
 20
0.8814981072
 10
0.5917629431
 20
0.8854381588
 10
0.5908539794
 20
0.8874477358
 10
0.5897942539
 20
0.8875211442
 10
0.5885867692
 20
0.8856581763
 10
0.5872349464
 20
0.8818641102
 10
0.5857426156
 20
0.8761496959
 10
0.5841140052
 20
0.868531124
 10
0.5823537294
 20
0.8590299804
 10
0.5804667757
 20
0.8476731847
 10
0.5784584905
 20
0.8344929145
 10
0.5763345638
 20
0.8195265135
 10
0.5741010133
 20
0.8028163863
 10
0.5717641676
 20
0.7844098779
 10
0.5693306475
 20
0.7643591398
 10
0.5668073479
 20
0.742720982
 10
0.5642014183
 20
0.7195567124
 10
0.561520242
 20
0.6949319624
 10
0.5587714156
 20
0.6689165019
 10
0.5559627275
 20
0.6415840409
 10
0.5531021354
 20
0.6130120207
 10
0.5501977445
 20
0.583281395
 10
0.5472577837
 20
0.5524764
 10
0.5442905829
 20
0.520684316
 10
0.5413045491
 20
0.4879952199
 10
0.5383081426
 20
0.4545017303
 10
0.5353098533
 20
0.4202987448
 10
0.5323181762
 20
0.3854831713
 10
0.5293415876
 20
0.3501536531
 10
0.5263885214
 20
0.3144102901
 10
0.5234673442
 20
0.2783543544
 10
0.5205863329
 20
0.2420880039
 10
0.5177536502
 20
0.2057139925
 10
0.514977322
 20
0.1693353794
 10
0.5122652144
 20
0.1330552365
 10
0.5096250119
 20
0.096976357
 10
0.5070641948
 20
0.0612009638
 10
0.5045900188
 20
0.0258304197
 10
0.502209494
 20
-0.0090350593
 10
0.4999293652
 20
-0.0432966882
  0
LWPOLYLINE
  5
71
330
1F
100
AcDbEntity
  8
0
  6
Continuous
 62
     7
370
    15
100
AcDbPolyline
 90
       74
 70
   128
 43
0.0
 10
0.3883217514
 20
-0.0355654926
 10
0.3913200081
 20
-0.0013536092
 10
0.3943115382
 20
0.0334695447
 10
0.3972878659
 20
0.0688053041
 10
0.4002405581
 20
0.1045535517
 10
0.4031612491
 20
0.1406130014
 10
0.4060416635
 20
0.1768814855
 10
0.4088736402
 20
0.2132562438
 10
0.4116491554
 20
0.2496342152
 10
0.4143603452
 20
0.2859123295
 10
0.4169995279
 20
0.3219877993
 10
0.4195592258
 20
0.3577584114
 10
0.4220321866
 20
0.3931228164
 10
0.4244114035
 20
0.4279808158
 10
0.4266901355
 20
0.4622336459
 10
0.4288619262
 20
0.4957842577
 10
0.4309206222
 20
0.5285375916
 10
0.4328603907
 20
0.5604008471
 10
0.4346757355
 20
0.5912837456
 10
0.4363615134
 20
0.6210987861
 10
0.4379129479
 20
0.6497614932
 10
0.4393256434
 20
0.6771906564
 10
0.4405955972
 20
0.7033085602
 10
0.4417192112
 20
0.7280412044
 10
0.4426933017
 20
0.7513185136
 10
0.443515109
 20
0.7730745358
 10
0.4441823045
 20
0.7932476293
 10
0.4446929979
 20
0.8117806375
 10
0.4450457422
 20
0.8286210505
 10
0.445239538
 20
0.843721154
 10
0.4452738362
 20
0.8570381647
 10
0.4451485397
 20
0.8685343514
 10
0.4448640034
 20
0.8781771416
 10
0.4444210334
 20
0.8859392144
 10
0.443820885
 20
0.8917985774
 10
0.4430652585
 20
0.895738629
 10
0.4421562948
 20
0.8977482059
 10
0.4410965693
 20
0.8978216144
 10
0.4398890845
 20
0.8959586464
 10
0.4385372617
 20
0.8921645804
 10
0.437044931
 20
0.886450166
 10
0.4354163205
 20
0.8788315942
 10
0.4336560448
 20
0.8693304505
 10
0.4317690911
 20
0.8579736549
 10
0.4297608058
 20
0.8447933847
 10
0.4276368791
 20
0.8298269837
 10
0.4254033287
 20
0.8131168564
 10
0.4230664829
 20
0.7947103481
 10
0.4206329628
 20
0.77465961
 10
0.4181096633
 20
0.7530214522
 10
0.4155037337
 20
0.7298571825
 10
0.4128225574
 20
0.7052324326
 10
0.410073731
 20
0.6792169721
 10
0.4072650428
 20
0.651884511
 10
0.4044044508
 20
0.6233124909
 10
0.4015000599
 20
0.5935818652
 10
0.3985600991
 20
0.5627768702
 10
0.3955928983
 20
0.5309847861
 10
0.3926068644
 20
0.4982956901
 10
0.389610458
 20
0.4648022005
 10
0.3866121686
 20
0.430599215
 10
0.3836204915
 20
0.3957836414
 10
0.380643903
 20
0.3604541233
 10
0.3776908367
 20
0.3247107603
 10
0.3747696596
 20
0.2886548246
 10
0.3718886483
 20
0.2523884741
 10
0.3690559656
 20
0.2160144627
 10
0.3662796373
 20
0.1796358496
 10
0.3635675298
 20
0.1433557067
 10
0.3609273272
 20
0.1072768272
 10
0.3583665101
 20
0.0715014339
 10
0.3558923342
 20
0.0361308899
 10
0.3535118094
 20
0.0012654109
 10
0.3512316806
 20
-0.0329962181
  0
LWPOLYLINE
  5
73
330
1F
100
AcDbEntity
  8
0
  6
Continuous
 62
     7
370
    15
100
AcDbPolyline
 90
       74
 70
   128
 43
0.0
 10
0.2396240668
 20
-0.0252650224
 10
0.2426223235
 20
0.008946861
 10
0.2456138536
 20
0.0437700149
 10
0.2485901812
 20
0.0791057743
 10
0.2515428735
 20
0.1148540219
 10
0.2544635644
 20
0.1509134716
 10
0.2573439788
 20
0.1871819556
 10
0.2601759556
 20
0.2235567139
 10
0.2629514708
 20
0.2599346854
 10
0.2656626606
 20
0.2962127996
 10
0.2683018433
 20
0.3322882694
 10
0.2708615412
 20
0.3680588815
 10
0.2733345019
 20
0.4034232866
 10
0.2757137188
 20
0.438281286
 10
0.2779924508
 20
0.4725341161
 10
0.2801642415
 20
0.5060847278
 10
0.2822229376
 20
0.5388380617
 10
0.284162706
 20
0.5707013173
 10
0.2859780509
 20
0.6015842158
 10
0.2876638288
 20
0.6313992563
 10
0.2892152633
 20
0.6600619634
 10
0.2906279588
 20
0.6874911266
 10
0.2918979126
 20
0.7136090304
 10
0.2930215265
 20
0.7383416746
 10
0.2939956171
 20
0.7616189837
 10
0.2948174243
 20
0.7833750059
 10
0.2954846199
 20
0.8035480995
 10
0.2959953133
 20
0.8220811077
 10
0.2963480576
 20
0.8389215206
 10
0.2965418534
 20
0.8540216241
 10
0.2965761516
 20
0.8673386349
 10
0.296450855
 20
0.8788348215
 10
0.2961663187
 20
0.8884776118
 10
0.2957233488
 20
0.8962396846
 10
0.2951232004
 20
0.9020990475
 10
0.2943675739
 20
0.9060390992
 10
0.2934586102
 20
0.9080486761
 10
0.2923988847
 20
0.9081220846
 10
0.2911913999
 20
0.9062591166
 10
0.2898395771
 20
0.9024650505
 10
0.2883472463
 20
0.8967506362
 10
0.2867186359
 20
0.8891320643
 10
0.2849583601
 20
0.8796309207
 10
0.2830714064
 20
0.8682741251
 10
0.2810631212
 20
0.8550938548
 10
0.2789391945
 20
0.8401274538
 10
0.2767056441
 20
0.8234173266
 10
0.2743687983
 20
0.8050108182
 10
0.2719352782
 20
0.7849600801
 10
0.2694119787
 20
0.7633219224
 10
0.266806049
 20
0.7401576527
 10
0.2641248727
 20
0.7155329027
 10
0.2613760464
 20
0.6895174422
 10
0.2585673582
 20
0.6621849812
 10
0.2557067662
 20
0.633612961
 10
0.2528023752
 20
0.6038823353
 10
0.2498624144
 20
0.5730773403
 10
0.2468952136
 20
0.5412852563
 10
0.2439091798
 20
0.5085961602
 10
0.2409127733
 20
0.4751026706
 10
0.237914484
 20
0.4408996851
 10
0.2349228069
 20
0.4060841116
 10
0.2319462184
 20
0.3707545935
 10
0.2289931521
 20
0.3350112305
 10
0.226071975
 20
0.2989552948
 10
0.2231909636
 20
0.2626889442
 10
0.2203582809
 20
0.2263149329
 10
0.2175819527
 20
0.1899363197
 10
0.2148698452
 20
0.1536561769
 10
0.2122296426
 20
0.1175772974
 10
0.2096688255
 20
0.0818019041
 10
0.2071946495
 20
0.04643136
 10
0.2048141247
 20
0.0115658811
 10
0.2025339959
 20
-0.0226957479
  0
LWPOLYLINE
  5
75
330
1F
100
AcDbEntity
  8
0
  6
Continuous
 62
     7
370
    15
100
AcDbPolyline
 90
       74
 70
   128
 43
0.0
 10
0.0909263821
 20
-0.0149645522
 10
0.0939246388
 20
0.0192473311
 10
0.096916169
 20
0.054070485
 10
0.0998924966
 20
0.0894062444
 10
0.1028451888
 20
0.125154492
 10
0.1057658798
 20
0.1612139417
 10
0.1086462942
 20
0.1974824258
 10
0.111478271
 20
0.2338571841
 10
0.1142537862
 20
0.2702351555
 10
0.116964976
 20
0.3065132698
 10
0.1196041586
 20
0.3425887396
 10
0.1221638566
 20
0.3783593517
 10
0.1246368173
 20
0.4137237567
 10
0.1270160342
 20
0.4485817562
 10
0.1292947662
 20
0.4828345863
 10
0.1314665569
 20
0.516385198
 10
0.1335252529
 20
0.5491385319
 10
0.1354650214
 20
0.5810017874
 10
0.1372803663
 20
0.6118846859
 10
0.1389661441
 20
0.6416997264
 10
0.1405175787
 20
0.6703624335
 10
0.1419302741
 20
0.6977915967
 10
0.1432002279
 20
0.7239095005
 10
0.1443238419
 20
0.7486421447
 10
0.1452979325
 20
0.7719194539
 10
0.1461197397
 20
0.7936754761
 10
0.1467869352
 20
0.8138485696
 10
0.1472976286
 20
0.8323815778
 10
0.1476503729
 20
0.8492219908
 10
0.1478441688
 20
0.8643220943
 10
0.147878467
 20
0.877639105
 10
0.1477531704
 20
0.8891352917
 10
0.1474686341
 20
0.898778082
 10
0.1470256642
 20
0.9065401547
 10
0.1464255158
 20
0.9123995177
 10
0.1456698892
 20
0.9163395693
 10
0.1447609255
 20
0.9183491463
 10
0.1437012
 20
0.9184225547
 10
0.1424937153
 20
0.9165595868
 10
0.1411418925
 20
0.9127655207
 10
0.1396495617
 20
0.9070511064
 10
0.1380209513
 20
0.8994325345
 10
0.1362606755
 20
0.8899313909
 10
0.1343737218
 20
0.8785745952
 10
0.1323654366
 20
0.865394325
 10
0.1302415099
 20
0.850427924
 10
0.1280079594
 20
0.8337177968
 10
0.1256711137
 20
0.8153112884
 10
0.1232375936
 20
0.7952605503
 10
0.120714294
 20
0.7736223925
 10
0.1181083644
 20
0.7504581228
 10
0.1154271881
 20
0.7258333729
 10
0.1126783617
 20
0.6998179124
 10
0.1098696736
 20
0.6724854513
 10
0.1070090815
 20
0.6439134312
 10
0.1041046906
 20
0.6141828055
 10
0.1011647298
 20
0.5833778105
 10
0.098197529
 20
0.5515857265
 10
0.0952114952
 20
0.5188966304
 10
0.0922150887
 20
0.4854031408
 10
0.0892167994
 20
0.4512001553
 10
0.0862251223
 20
0.4163845817
 10
0.0832485337
 20
0.3810550636
 10
0.0802954675
 20
0.3453117006
 10
0.0773742903
 20
0.3092557649
 10
0.074493279
 20
0.2729894144
 10
0.0716605963
 20
0.236615403
 10
0.0688842681
 20
0.2002367899
 10
0.0661721605
 20
0.163956647
 10
0.063531958
 20
0.1278777675
 10
0.0609711409
 20
0.0921023743
 10
0.0584969649
 20
0.0567318302
 10
0.0561164401
 20
0.0218663512
 10
0.0538363113
 20
-0.0123952777
  0
LWPOLYLINE
  5
77
330
1F
100
AcDbEntity
  8
0
  6
Continuous
 62
     7
370
    15
100
AcDbPolyline
 90
       74
 70
   128
 43
0.0
 10
-0.0577713025
 20
-0.0046640821
 10
-0.0547730458
 20
0.0295478013
 10
-0.0517815157
 20
0.0643709552
 10
-0.048805188
 20
0.0997067146
 10
-0.0458524958
 20
0.1354549622
 10
-0.0429318048
 20
0.1715144119
 10
-0.0400513904
 20
0.2077828959
 10
-0.0372194137
 20
0.2441576543
 10
-0.0344438985
 20
0.2805356257
 10
-0.0317327087
 20
0.31681374
 10
-0.029093526
 20
0.3528892097
 10
-0.0265338281
 20
0.3886598219
 10
-0.0240608673
 20
0.4240242269
 10
-0.0216816504
 20
0.4588822263
 10
-0.0194029184
 20
0.4931350564
 10
-0.0172311277
 20
0.5266856682
 10
-0.0151724317
 20
0.5594390021
 10
-0.0132326632
 20
0.5913022576
 10
-0.0114173184
 20
0.6221851561
 10
-0.0097315405
 20
0.6520001966
 10
-0.008180106
 20
0.6806629037
 10
-0.0067674105
 20
0.7080920669
 10
-0.0054974567
 20
0.7342099707
 10
-0.0043738427
 20
0.7589426149
 10
-0.0033997522
 20
0.782219924
 10
-0.0025779449
 20
0.8039759462
 10
-0.0019107494
 20
0.8241490398
 10
-0.001400056
 20
0.842682048
 10
-0.0010473117
 20
0.8595224609
 10
-0.0008535159
 20
0.8746225645
 10
-0.0008192177
 20
0.8879395752
 10
-0.0009445142
 20
0.8994357619
 10
-0.0012290505
 20
0.9090785521
 10
-0.0016720205
 20
0.9168406249
 10
-0.0022721689
 20
0.9226999878
 10
-0.0030277954
 20
0.9266400395
 10
-0.0039367591
 20
0.9286496164
 10
-0.0049964846
 20
0.9287230249
 10
-0.0062039694
 20
0.9268600569
 10
-0.0075557922
 20
0.9230659909
 10
-0.0090481229
 20
0.9173515765
 10
-0.0106767334
 20
0.9097330046
 10
-0.0124370092
 20
0.900231861
 10
-0.0143239628
 20
0.8888750654
 10
-0.0163322481
 20
0.8756947951
 10
-0.0184561748
 20
0.8607283941
 10
-0.0206897252
 20
0.8440182669
 10
-0.023026571
 20
0.8256117585
 10
-0.0254600911
 20
0.8055610204
 10
-0.0279833906
 20
0.7839228627
 10
-0.0305893202
 20
0.760758593
 10
-0.0332704965
 20
0.7361338431
 10
-0.0360193229
 20
0.7101183826
 10
-0.0388280111
 20
0.6827859215
 10
-0.0416886031
 20
0.6542139013
 10
-0.044592994
 20
0.6244832757
 10
-0.0475329548
 20
0.5936782807
 10
-0.0505001556
 20
0.5618861966
 10
-0.0534861895
 20
0.5291971006
 10
-0.0564825959
 20
0.495703611
 10
-0.0594808853
 20
0.4615006255
 10
-0.0624725624
 20
0.4266850519
 10
-0.0654491509
 20
0.3913555338
 10
-0.0684022172
 20
0.3556121708
 10
-0.0713233943
 20
0.3195562351
 10
-0.0742044056
 20
0.2832898846
 10
-0.0770370884
 20
0.2469158732
 10
-0.0798134166
 20
0.21053726
 10
-0.0825255241
 20
0.1742571172
 10
-0.0851657267
 20
0.1381782377
 10
-0.0877265438
 20
0.1024028444
 10
-0.0902007197
 20
0.0670323004
 10
-0.0925812445
 20
0.0321668214
 10
-0.0948613733
 20
-0.0020948076
  0
LWPOLYLINE
  5
79
330
1F
100
AcDbEntity
  8
0
  6
Continuous
 62
     7
370
    15
100
AcDbPolyline
 90
       74
 70
   128
 43
0.0
 10
-0.2064689871
 20
0.0056363881
 10
-0.2034707304
 20
0.0398482715
 10
-0.2004792003
 20
0.0746714254
 10
-0.1975028727
 20
0.1100071848
 10
-0.1945501804
 20
0.1457554324
 10
-0.1916294895
 20
0.1818148821
 10
-0.1887490751
 20
0.2180833661
 10
-0.1859170983
 20
0.2544581244
 10
-0.1831415831
 20
0.2908360958
 10
-0.1804303933
 20
0.3271142101
 10
-0.1777912106
 20
0.3631896799
 10
-0.1752315127
 20
0.398960292
 10
-0.172758552
 20
0.4343246971
 10
-0.1703793351
 20
0.4691826965
 10
-0.1681006031
 20
0.5034355266
 10
-0.1659288124
 20
0.5369861383
 10
-0.1638701163
 20
0.5697394722
 10
-0.1619303479
 20
0.6016027277
 10
-0.160115003
 20
0.6324856263
 10
-0.1584292251
 20
0.6623006668
 10
-0.1568777906
 20
0.6909633739
 10
-0.1554650951
 20
0.718392537
 10
-0.1541951413
 20
0.7445104409
 10
-0.1530715274
 20
0.769243085
 10
-0.1520974368
 20
0.7925203942
 10
-0.1512756296
 20
0.8142764164
 10
-0.150608434
 20
0.83444951
 10
-0.1500977406
 20
0.8529825182
 10
-0.1497449963
 20
0.8698229311
 10
-0.1495512005
 20
0.8849230346
 10
-0.1495169023
 20
0.8982400454
 10
-0.1496421989
 20
0.909736232
 10
-0.1499267352
 20
0.9193790223
 10
-0.1503697051
 20
0.9271410951
 10
-0.1509698535
 20
0.933000458
 10
-0.15172548
 20
0.9369405096
 10
-0.1526344437
 20
0.9389500866
 10
-0.1536941692
 20
0.9390234951
 10
-0.154901654
 20
0.9371605271
 10
-0.1562534768
 20
0.933366461
 10
-0.1577458076
 20
0.9276520467
 10
-0.159374418
 20
0.9200334748
 10
-0.1611346938
 20
0.9105323312
 10
-0.1630216475
 20
0.8991755356
 10
-0.1650299327
 20
0.8859952653
 10
-0.1671538594
 20
0.8710288643
 10
-0.1693874098
 20
0.8543187371
 10
-0.1717242556
 20
0.8359122287
 10
-0.1741577757
 20
0.8158614906
 10
-0.1766810752
 20
0.7942233329
 10
-0.1792870049
 20
0.7710590632
 10
-0.1819681812
 20
0.7464343132
 10
-0.1847170075
 20
0.7204188527
 10
-0.1875256957
 20
0.6930863917
 10
-0.1903862877
 20
0.6645143715
 10
-0.1932906787
 20
0.6347837458
 10
-0.1962306395
 20
0.6039787508
 10
-0.1991978403
 20
0.5721866668
 10
-0.2021838741
 20
0.5394975707
 10
-0.2051802806
 20
0.5060040811
 10
-0.2081785699
 20
0.4718010956
 10
-0.211170247
 20
0.4369855221
 10
-0.2141468355
 20
0.401656004
 10
-0.2170999018
 20
0.3659126409
 10
-0.2200210789
 20
0.3298567052
 10
-0.2229020903
 20
0.2935903547
 10
-0.225734773
 20
0.2572163434
 10
-0.2285111012
 20
0.2208377302
 10
-0.2312232087
 20
0.1845575873
 10
-0.2338634113
 20
0.1484787079
 10
-0.2364242284
 20
0.1127033146
 10
-0.2388984044
 20
0.0773327705
 10
-0.2412789292
 20
0.0424672916
 10
-0.243559058
 20
0.0082056626
  0
LWPOLYLINE
  5
7B
330
1F
100
AcDbEntity
  8
0
  6
Continuous
 62
     7
370
    15
100
AcDbPolyline
 90
       74
 70
   128
 43
0.0
 10
-0.3551666718
 20
0.0159368582
 10
-0.3521684151
 20
0.0501487416
 10
-0.3491768849
 20
0.0849718955
 10
-0.3462005573
 20
0.1203076549
 10
-0.3432478651
 20
0.1560559025
 10
-0.3403271741
 20
0.1921153522
 10
-0.3374467597
 20
0.2283838363
 10
-0.3346147829
 20
0.2647585946
 10
-0.3318392677
 20
0.301136566
 10
-0.3291280779
 20
0.3374146803
 10
-0.3264888953
 20
0.3734901501
 10
-0.3239291974
 20
0.4092607622
 10
-0.3214562366
 20
0.4446251672
 10
-0.3190770197
 20
0.4794831666
 10
-0.3167982877
 20
0.5137359968
 10
-0.314626497
 20
0.5472866085
 10
-0.312567801
 20
0.5800399424
 10
-0.3106280325
 20
0.6119031979
 10
-0.3088126876
 20
0.6427860964
 10
-0.3071269098
 20
0.6726011369
 10
-0.3055754752
 20
0.701263844
 10
-0.3041627798
 20
0.7286930072
 10
-0.302892826
 20
0.754810911
 10
-0.301769212
 20
0.7795435552
 10
-0.3007951214
 20
0.8028208644
 10
-0.2999733142
 20
0.8245768866
 10
-0.2993061187
 20
0.8447499801
 10
-0.2987954253
 20
0.8632829883
 10
-0.298442681
 20
0.8801234013
 10
-0.2982488852
 20
0.8952235048
 10
-0.2982145869
 20
0.9085405155
 10
-0.2983398835
 20
0.9200367022
 10
-0.2986244198
 20
0.9296794924
 10
-0.2990673897
 20
0.9374415652
 10
-0.2996675381
 20
0.9433009282
 10
-0.3004231647
 20
0.9472409798
 10
-0.3013321284
 20
0.9492505567
 10
-0.3023918539
 20
0.9493239652
 10
-0.3035993386
 20
0.9474609972
 10
-0.3049511614
 20
0.9436669312
 10
-0.3064434922
 20
0.9379525169
 10
-0.3080721027
 20
0.930333945
 10
-0.3098323784
 20
0.9208328013
 10
-0.3117193321
 20
0.9094760057
 10
-0.3137276173
 20
0.8962957355
 10
-0.315851544
 20
0.8813293345
 10
-0.3180850945
 20
0.8646192073
 10
-0.3204219402
 20
0.8462126989
 10
-0.3228554604
 20
0.8261619608
 10
-0.3253787599
 20
0.804523803
 10
-0.3279846895
 20
0.7813595333
 10
-0.3306658658
 20
0.7567347834
 10
-0.3334146922
 20
0.7307193229
 10
-0.3362233803
 20
0.7033868618
 10
-0.3390839724
 20
0.6748148417
 10
-0.3419883633
 20
0.645084216
 10
-0.3449283241
 20
0.614279221
 10
-0.3478955249
 20
0.5824871369
 10
-0.3508815587
 20
0.5497980409
 10
-0.3538779652
 20
0.5163045513
 10
-0.3568762545
 20
0.4821015658
 10
-0.3598679316
 20
0.4472859922
 10
-0.3628445202
 20
0.4119564741
 10
-0.3657975865
 20
0.3762131111
 10
-0.3687187636
 20
0.3401571754
 10
-0.3715997749
 20
0.3038908249
 10
-0.3744324576
 20
0.2675168135
 10
-0.3772087858
 20
0.2311382004
 10
-0.3799208934
 20
0.1948580575
 10
-0.3825610959
 20
0.158779178
 10
-0.385121913
 20
0.1230037848
 10
-0.387596089
 20
0.0876332407
 10
-0.3899766138
 20
0.0527677617
 10
-0.3922567426
 20
0.0185061327
  0
LINE
  5
C7
330
1F
100
AcDbEntity
  8
0
  6
Continuous
 62
     7
370
    15
100
AcDbLine
 10
-1.4736249406
 20
0.0934138281
 30
0.0
 11
-0.3922567426
 21
0.0185061327
 31
0.0
  0
LINE
  5
C8
330
1F
100
AcDbEntity
  8
0
  6
Continuous
 62
     7
370
    15
100
AcDbLine
 10
-1.4256980272
 20
0.7151425925
 30
0.0
 11
-1.4736249406
 21
0.0934138281
 31
0.0
  0
LINE
  5
C9
330
1F
100
AcDbEntity
  8
0
  6
Continuous
 62
     7
370
    15
100
AcDbLine
 10
-1.30178329
 20
0.7065588674
 30
0.0
 11
-1.4256980272
 21
0.7151425925
 31
0.0
  0
LINE
  5
CA
330
1F
100
AcDbEntity
  8
0
  6
Continuous
 62
     7
370
    15
100
AcDbLine
 10
-1.2812177535
 20
0.9733439508
 30
0.0
 11
-1.30178329
 21
0.7065588674
 31
0.0
  0
LINE
  5
CB
330
1F
100
AcDbEntity
  8
0
  6
Continuous
 62
     7
370
    15
100
AcDbLine
 10
-1.1543278205
 20
0.9645541303
 30
0.0
 11
-1.2812177535
 21
0.9733439508
 31
0.0
  0
LINE
  5
CC
330
1F
100
AcDbEntity
  8
0
  6
Continuous
 62
     7
370
    15
100
AcDbLine
 10
-1.1610753775
 20
0.8770218866
 30
0.0
 11
-1.1543278205
 21
0.9645541303
 31
0.0
  0
LINE
  5
CD
330
1F
100
AcDbEntity
  8
0
  6
Continuous
 62
     7
370
    15
100
AcDbLine
 10
-1.0302226571
 20
0.8679575589
 30
0.0
 11
-1.1610753775
 21
0.8770218866
 31
0.0
  0
LINE
  5
CE
330
1F
100
AcDbEntity
  8
0
  6
Continuous
 62
     7
370
    15
100
AcDbLine
 10
-1.0302226571
 20
0.8679575589
 30
0.0
 11
-1.0234751002
 21
0.9554898026
 31
0.0
  0
LINE
  5
CF
330
1F
100
AcDbEntity
  8
0
  6
Continuous
 62
     7
370
    15
100
AcDbLine
 10
-1.0234751002
 20
0.9554898026
 30
0.0
 11
-0.5773820463
 21
0.9245883921
 31
0.0
  0
LINE
  5
D0
330
1F
100
AcDbEntity
  8
0
  6
Continuous
 62
     7
370
    15
100
AcDbLine
 10
-0.5773820463
 20
0.9245883921
 30
0.0
 11
-0.5658805287
 21
1.0737910801
 31
0.0
  0
LINE
  5
D1
330
1F
100
AcDbEntity
  8
0
  6
Continuous
 62
     7
370
    15
100
AcDbLine
 10
-1.0119735826
 20
1.1046924906
 30
0.0
 11
-0.5658805287
 21
1.0737910801
 31
0.0
  0
LINE
  5
D2
330
1F
100
AcDbEntity
  8
0
  6
Continuous
 62
     7
370
    15
100
AcDbLine
 10
-1.0052260256
 20
1.1922247343
 30
0.0
 11
-1.0119735826
 21
1.1046924906
 31
0.0
  0
LINE
  5
D3
330
1F
100
AcDbEntity
  8
0
  6
Continuous
 62
     7
370
    15
100
AcDbLine
 10
-1.0052260256
 20
1.1922247343
 30
0.0
 11
-1.136078746
 21
1.201289062
 31
0.0
  0
LINE
  5
D4
330
1F
100
AcDbEntity
  8
0
  6
Continuous
 62
     7
370
    15
100
AcDbLine
 10
-1.136078746
 20
1.201289062
 30
0.0
 11
-1.1428263029
 21
1.1137568183
 31
0.0
  0
LINE
  5
D5
330
1F
100
AcDbEntity
  8
0
  6
Continuous
 62
     7
370
    15
100
AcDbLine
 10
-1.1428263029
 20
1.1137568183
 30
0.0
 11
-1.269716236
 21
1.1225466389
 31
0.0
  0
LINE
  5
D6
330
1F
100
AcDbEntity
  8
0
  6
Continuous
 62
     7
370
    15
100
AcDbLine
 10
-1.2491506995
 20
1.3893317224
 30
0.0
 11
-1.269716236
 21
1.1225466389
 31
0.0
  0
LINE
  5
D7
330
1F
100
AcDbEntity
  8
0
  6
Continuous
 62
     7
370
    15
100
AcDbLine
 10
-1.3730654367
 20
1.3979154475
 30
0.0
 11
-1.2491506995
 21
1.3893317224
 31
0.0
  0
LINE
  5
D8
330
1F
100
AcDbEntity
  8
0
  6
Continuous
 62
     7
370
    15
100
AcDbLine
 10
-1.339440569
 20
1.8341118554
 30
0.0
 11
-1.3730654367
 21
1.3979154475
 31
0.0
  0
LINE
  5
D9
330
1F
100
AcDbEntity
  8
0
  6
Continuous
 62
     7
370
    15
100
AcDbLine
 10
-0.2594361742
 20
1.7592986324
 30
0.0
 11
-1.339440569
 21
1.8341118554
 31
0.0
  0
LINE
  5
DA
330
1F
100
AcDbEntity
  8
0
  6
Continuous
 62
     7
370
    15
100
AcDbLine
 10
-0.1107384896
 20
1.7489981622
 30
0.0
 11
-0.219618497
 21
1.7565404132
 31
0.0
  0
LINE
  5
DB
330
1F
100
AcDbEntity
  8
0
  6
Continuous
 62
     7
370
    15
100
AcDbLine
 10
0.037959195
 20
1.738697692
 30
0.0
 11
-0.0709208124
 21
1.7462399431
 31
0.0
  0
LINE
  5
DC
330
1F
100
AcDbEntity
  8
0
  6
Continuous
 62
     7
370
    15
100
AcDbLine
 10
0.1866568797
 20
1.7283972219
 30
0.0
 11
0.0777768723
 21
1.7359394729
 31
0.0
  0
LINE
  5
DD
330
1F
100
AcDbEntity
  8
0
  6
Continuous
 62
     7
370
    15
100
AcDbLine
 10
0.3353545643
 20
1.7180967517
 30
0.0
 11
0.2264745569
 21
1.7256390027
 31
0.0
  0
LINE
  5
DE
330
1F
100
AcDbEntity
  8
0
  6
Continuous
 62
     7
370
    15
100
AcDbLine
 10
0.4840522489
 20
1.7077962815
 30
0.0
 11
0.3751722415
 21
1.7153385326
 31
0.0
  0
LINE
  5
DF
330
1F
100
AcDbEntity
  8
0
  6
Continuous
 62
     7
370
    15
100
AcDbLine
 10
0.6327499336
 20
1.6974958114
 30
0.0
 11
0.5238699262
 21
1.7050380624
 31
0.0
  0
LINE
  5
E0
330
1F
100
AcDbEntity
  8
0
  6
Continuous
 62
     7
370
    15
100
AcDbLine
 10
0.8043819551
 20
1.6856066517
 30
0.0
 11
0.6725676108
 21
1.6947375923
 31
0.0
  0
LINE
  5
E1
330
1F
100
AcDbEntity
  8
0
  6
Continuous
 62
     7
370
    15
100
AcDbLine
 10
0.8043819551
 20
1.6856066517
 30
0.0
 11
0.6701975836
 21
-0.0550913756
 31
0.0
  0
LINE
  5
E2
330
1F
100
AcDbEntity
  8
0
  6
Continuous
 62
     7
370
    15
100
AcDbLine
 10
0.537019436
 20
-0.0458659627
 30
0.0
 11
0.6701975836
 21
-0.0550913756
 31
0.0
  0
LINE
  5
E3
330
1F
100
AcDbEntity
  8
0
  6
Continuous
 62
     7
370
    15
100
AcDbLine
 10
0.3883217514
 20
-0.0355654926
 30
0.0
 11
0.4999293652
 21
-0.0432966882
 31
0.0
  0
LINE
  5
E4
330
1F
100
AcDbEntity
  8
0
  6
Continuous
 62
     7
370
    15
100
AcDbLine
 10
0.2396240668
 20
-0.0252650224
 30
0.0
 11
0.3512316806
 21
-0.0329962181
 31
0.0
  0
LINE
  5
E5
330
1F
100
AcDbEntity
  8
0
  6
Continuous
 62
     7
370
    15
100
AcDbLine
 10
0.0909263821
 20
-0.0149645522
 30
0.0
 11
0.2025339959
 21
-0.0226957479
 31
0.0
  0
LINE
  5
E6
330
1F
100
AcDbEntity
  8
0
  6
Continuous
 62
     7
370
    15
100
AcDbLine
 10
-0.0577713025
 20
-0.0046640821
 30
0.0
 11
0.0538363113
 21
-0.0123952777
 31
0.0
  0
LINE
  5
E7
330
1F
100
AcDbEntity
  8
0
  6
Continuous
 62
     7
370
    15
100
AcDbLine
 10
-0.2064689871
 20
0.0056363881
 30
0.0
 11
-0.0948613733
 21
-0.0020948076
 31
0.0
  0
LINE
  5
E8
330
1F
100
AcDbEntity
  8
0
  6
Continuous
 62
     7
370
    15
100
AcDbLine
 10
-0.3551666718
 20
0.0159368582
 30
0.0
 11
-0.243559058
 21
0.0082056626
 31
0.0
  0
LINE
  5
E9
330
1F
100
AcDbEntity
  8
0
  6
Continuous
 62
     7
370
    15
100
AcDbLine
 10
-1.339440569
 20
1.8341118554
 30
0.0
 11
-1.3527924748
 21
1.8437027289
 31
0.0
  0
LINE
  5
EA
330
1F
100
AcDbEntity
  8
0
  6
Continuous
 62
     7
370
    15
100
AcDbLine
 10
-0.27278808
 20
1.7688895059
 30
0.0
 11
-1.3527924748
 21
1.8437027289
 31
0.0
  0
LINE
  5
EB
330
1F
100
AcDbEntity
  8
0
  6
Continuous
 62
     7
370
    15
100
AcDbLine
 10
-0.2594361742
 20
1.7592986324
 30
0.0
 11
-0.27278808
 21
1.7688895059
 31
0.0
  0
LINE
  5
EC
330
1F
100
AcDbEntity
  8
0
  6
Continuous
 62
     7
370
    15
100
AcDbLine
 10
-1.3730654367
 20
1.3979154475
 30
0.0
 11
-1.3864173425
 21
1.407506321
 31
0.0
  0
LINE
  5
ED
330
1F
100
AcDbEntity
  8
0
  6
Continuous
 62
     7
370
    15
100
AcDbLine
 10
-1.3527924748
 20
1.8437027289
 30
0.0
 11
-1.3864173425
 21
1.407506321
 31
0.0
  0
LINE
  5
EE
330
1F
100
AcDbEntity
  8
0
  6
Continuous
 62
     7
370
    15
100
AcDbLine
 10
-1.2631670866
 20
1.3903026546
 30
0.0
 11
-1.2830681417
 21
1.1321375125
 31
0.0
  0
LINE
  5
EF
330
1F
100
AcDbEntity
  8
0
  6
Continuous
 62
     7
370
    15
100
AcDbLine
 10
-1.269716236
 20
1.1225466389
 30
0.0
 11
-1.2830681417
 21
1.1321375125
 31
0.0
  0
LINE
  5
F0
330
1F
100
AcDbEntity
  8
0
  6
Continuous
 62
     7
370
    15
100
AcDbLine
 10
-1.1543278205
 20
0.9645541303
 30
0.0
 11
-1.1676797263
 21
0.9741450038
 31
0.0
  0
LINE
  5
F1
330
1F
100
AcDbEntity
  8
0
  6
Continuous
 62
     7
370
    15
100
AcDbLine
 10
-1.2812177535
 20
0.9733439508
 30
0.0
 11
-1.2945696593
 21
0.9829348244
 31
0.0
  0
LINE
  5
F2
330
1F
100
AcDbEntity
  8
0
  6
Continuous
 62
     7
370
    15
100
AcDbLine
 10
-1.1676797263
 20
0.9741450038
 30
0.0
 11
-1.2945696593
 21
0.9829348244
 31
0.0
  0
LINE
  5
F3
330
1F
100
AcDbEntity
  8
0
  6
Continuous
 62
     7
370
    15
100
AcDbLine
 10
-1.30178329
 20
0.7065588674
 30
0.0
 11
-1.3151351958
 21
0.7161497409
 31
0.0
  0
LINE
  5
F4
330
1F
100
AcDbEntity
  8
0
  6
Continuous
 62
     7
370
    15
100
AcDbLine
 10
-1.2945696593
 20
0.9829348244
 30
0.0
 11
-1.3151351958
 21
0.7161497409
 31
0.0
  0
LINE
  5
F5
330
1F
100
AcDbEntity
  8
0
  6
Continuous
 62
     7
370
    15
100
AcDbLine
 10
-1.4256980272
 20
0.7151425925
 30
0.0
 11
-1.439049933
 21
0.7247334661
 31
0.0
  0
LINE
  5
F6
330
1F
100
AcDbEntity
  8
0
  6
Continuous
 62
     7
370
    15
100
AcDbLine
 10
-1.3151351958
 20
0.7161497409
 30
0.0
 11
-1.439049933
 21
0.7247334661
 31
0.0
  0
LINE
  5
F7
330
1F
100
AcDbEntity
  8
0
  6
Continuous
 62
     7
370
    15
100
AcDbLine
 10
-1.4736249406
 20
0.0934138281
 30
0.0
 11
-1.4869768463
 21
0.1030047016
 31
0.0
  0
LINE
  5
F8
330
1F
100
AcDbEntity
  8
0
  6
Continuous
 62
     7
370
    15
100
AcDbLine
 10
-1.439049933
 20
0.7247334661
 30
0.0
 11
-1.4869768463
 21
0.1030047016
 31
0.0
  0
LINE
  5
F9
330
1F
100
AcDbEntity
  8
0
  6
Continuous
 62
     7
370
    15
100
AcDbLine
 10
-1.0119735826
 20
1.1046924906
 30
0.0
 11
-1.0253254884
 21
1.1142833642
 31
0.0
  0
LINE
  5
FA
330
1F
100
AcDbEntity
  8
0
  6
Continuous
 62
     7
370
    15
100
AcDbLine
 10
-1.0192424128
 20
1.1931956665
 30
0.0
 11
-1.0253254884
 21
1.1142833642
 31
0.0
  0
LINE
  5
FB
330
1F
100
AcDbEntity
  8
0
  6
Continuous
 62
     7
370
    15
100
AcDbLine
 10
-1.0302226571
 20
0.8679575589
 30
0.0
 11
-1.0435745629
 21
0.8775484325
 31
0.0
  0
LINE
  5
FC
330
1F
100
AcDbEntity
  8
0
  6
Continuous
 62
     7
370
    15
100
AcDbLine
 10
-1.0435745629
 20
0.8775484325
 30
0.0
 11
-1.1604108961
 21
0.8856418279
 31
0.0
  0
LINE
  5
FD
330
1F
100
AcDbEntity
  8
0
  6
Continuous
 62
     7
370
    15
100
AcDbLine
 10
-1.0234751002
 20
0.9554898026
 30
0.0
 11
-1.0368270059
 21
0.9650806761
 31
0.0
  0
LINE
  5
FE
330
1F
100
AcDbEntity
  8
0
  6
Continuous
 62
     7
370
    15
100
AcDbLine
 10
-1.0435745629
 20
0.8775484325
 30
0.0
 11
-1.0368270059
 21
0.9650806761
 31
0.0
  0
LINE
  5
FF
330
1F
100
AcDbEntity
  8
0
  6
Continuous
 62
     7
370
    15
100
AcDbLine
 10
-0.5773820463
 20
0.9245883921
 30
0.0
 11
-0.590733952
 21
0.9341792656
 31
0.0
  0
LINE
  5
100
330
1F
100
AcDbEntity
  8
0
  6
Continuous
 62
     7
370
    15
100
AcDbLine
 10
-1.0368270059
 20
0.9650806761
 30
0.0
 11
-0.590733952
 21
0.9341792656
 31
0.0
  0
LINE
  5
101
330
1F
100
AcDbEntity
  8
0
  6
Continuous
 62
     7
370
    15
100
AcDbLine
 10
-0.2329704028
 20
1.7661312868
 30
0.0
 11
-0.219618497
 21
1.7565404132
 31
0.0
  0
LINE
  5
102
330
1F
100
AcDbEntity
  8
0
  6
Continuous
 62
     7
370
    15
100
AcDbLine
 10
-0.1107384896
 20
1.7489981622
 30
0.0
 11
-0.1240903954
 21
1.7585890357
 31
0.0
  0
LINE
  5
103
330
1F
100
AcDbEntity
  8
0
  6
Continuous
 62
     7
370
    15
100
AcDbLine
 10
-0.1240903954
 20
1.7585890357
 30
0.0
 11
-0.2329704028
 21
1.7661312868
 31
0.0
  0
LINE
  5
104
330
1F
100
AcDbEntity
  8
0
  6
Continuous
 62
     7
370
    15
100
AcDbLine
 10
-0.0842727181
 20
1.7558308166
 30
0.0
 11
-0.0709208124
 21
1.7462399431
 31
0.0
  0
LINE
  5
105
330
1F
100
AcDbEntity
  8
0
  6
Continuous
 62
     7
370
    15
100
AcDbLine
 10
-0.590733952
 20
0.9341792656
 30
0.0
 11
-0.5798969158
 21
1.0747620124
 31
0.0
  0
LINE
  5
106
330
1F
100
AcDbEntity
  8
0
  6
Continuous
 62
     7
370
    15
100
AcDbLine
 10
0.037959195
 20
1.738697692
 30
0.0
 11
0.0246072893
 21
1.7482885656
 31
0.0
  0
LINE
  5
107
330
1F
100
AcDbEntity
  8
0
  6
Continuous
 62
     7
370
    15
100
AcDbLine
 10
0.0246072893
 20
1.7482885656
 30
0.0
 11
-0.0842727181
 21
1.7558308166
 31
0.0
  0
LINE
  5
108
330
1F
100
AcDbEntity
  8
0
  6
Continuous
 62
     7
370
    15
100
AcDbLine
 10
0.0644249665
 20
1.7455303465
 30
0.0
 11
0.0777768723
 21
1.7359394729
 31
0.0
  0
LINE
  5
109
330
1F
100
AcDbEntity
  8
0
  6
Continuous
 62
     7
370
    15
100
AcDbLine
 10
0.1866568797
 20
1.7283972219
 30
0.0
 11
0.1733049739
 21
1.7379880954
 31
0.0
  0
LINE
  5
10A
330
1F
100
AcDbEntity
  8
0
  6
Continuous
 62
     7
370
    15
100
AcDbLine
 10
0.1733049739
 20
1.7379880954
 30
0.0
 11
0.0644249665
 21
1.7455303465
 31
0.0
  0
LINE
  5
10B
330
1F
100
AcDbEntity
  8
0
  6
Continuous
 62
     7
370
    15
100
AcDbLine
 10
0.2131226511
 20
1.7352298763
 30
0.0
 11
0.2264745569
 21
1.7256390027
 31
0.0
  0
LINE
  5
10C
330
1F
100
AcDbEntity
  8
0
  6
Continuous
 62
     7
370
    15
100
AcDbLine
 10
0.3353545643
 20
1.7180967517
 30
0.0
 11
0.3220026585
 21
1.7276876253
 31
0.0
  0
LINE
  5
10D
330
1F
100
AcDbEntity
  8
0
  6
Continuous
 62
     7
370
    15
100
AcDbLine
 10
0.3220026585
 20
1.7276876253
 30
0.0
 11
0.2131226511
 21
1.7352298763
 31
0.0
  0
LINE
  5
10E
330
1F
100
AcDbEntity
  8
0
  6
Continuous
 62
     7
370
    15
100
AcDbLine
 10
-0.3551666718
 20
0.0159368582
 30
0.0
 11
-0.3685185775
 21
0.0255277318
 31
0.0
  0
LINE
  5
10F
330
1F
100
AcDbEntity
  8
0
  6
Continuous
 62
     7
370
    15
100
AcDbLine
 10
0.3618203358
 20
1.7249294061
 30
0.0
 11
0.3751722415
 21
1.7153385326
 31
0.0
  0
LINE
  5
110
330
1F
100
AcDbEntity
  8
0
  6
Continuous
 62
     7
370
    15
100
AcDbLine
 10
0.4840522489
 20
1.7077962815
 30
0.0
 11
0.4707003432
 21
1.7173871551
 31
0.0
  0
LINE
  5
111
330
1F
100
AcDbEntity
  8
0
  6
Continuous
 62
     7
370
    15
100
AcDbLine
 10
0.4707003432
 20
1.7173871551
 30
0.0
 11
0.3618203358
 21
1.7249294061
 31
0.0
  0
LINE
  5
112
330
1F
100
AcDbEntity
  8
0
  6
Continuous
 62
     7
370
    15
100
AcDbLine
 10
-0.2064689871
 20
0.0056363881
 30
0.0
 11
-0.2198208929
 21
0.0152272616
 31
0.0
  0
LINE
  5
113
330
1F
100
AcDbEntity
  8
0
  6
Continuous
 62
     7
370
    15
100
AcDbLine
 10
0.5105180204
 20
1.714628936
 30
0.0
 11
0.5238699262
 21
1.7050380624
 31
0.0
  0
LINE
  5
114
330
1F
100
AcDbEntity
  8
0
  6
Continuous
 62
     7
370
    15
100
AcDbLine
 10
0.6327499336
 20
1.6974958114
 30
0.0
 11
0.6193980278
 21
1.7070866849
 31
0.0
  0
LINE
  5
115
330
1F
100
AcDbEntity
  8
0
  6
Continuous
 62
     7
370
    15
100
AcDbLine
 10
0.6193980278
 20
1.7070866849
 30
0.0
 11
0.5105180204
 21
1.714628936
 31
0.0
  0
LINE
  5
116
330
1F
100
AcDbEntity
  8
0
  6
Continuous
 62
     7
370
    15
100
AcDbLine
 10
-0.0577713025
 20
-0.0046640821
 30
0.0
 11
-0.0711232083
 21
0.0049267915
 31
0.0
  0
LINE
  5
117
330
1F
100
AcDbEntity
  8
0
  6
Continuous
 62
     7
370
    15
100
AcDbLine
 10
0.659215705
 20
1.7043284658
 30
0.0
 11
0.6725676108
 21
1.6947375923
 31
0.0
  0
LINE
  5
118
330
1F
100
AcDbEntity
  8
0
  6
Continuous
 62
     7
370
    15
100
AcDbLine
 10
0.7910300494
 20
1.6951975252
 30
0.0
 11
0.8043819551
 21
1.6856066517
 31
0.0
  0
LINE
  5
119
330
1F
100
AcDbEntity
  8
0
  6
Continuous
 62
     7
370
    15
100
AcDbLine
 10
0.7910300494
 20
1.6951975252
 30
0.0
 11
0.659215705
 21
1.7043284658
 31
0.0
  0
LINE
  5
11A
330
1F
100
AcDbEntity
  8
0
  6
Continuous
 62
     7
370
    15
100
AcDbLine
 10
0.0909263821
 20
-0.0149645522
 30
0.0
 11
0.0775744764
 21
-0.0053736787
 31
0.0
  0
LINE
  5
11B
330
1F
100
AcDbEntity
  8
0
  6
Continuous
 62
     7
370
    15
100
AcDbLine
 10
0.2396240668
 20
-0.0252650224
 30
0.0
 11
0.226272161
 21
-0.0156741489
 31
0.0
  0
LINE
  5
11C
330
1F
100
AcDbEntity
  8
0
  6
Continuous
 62
     7
370
    15
100
AcDbLine
 10
0.3883217514
 20
-0.0355654926
 30
0.0
 11
0.3749698456
 21
-0.025974619
 31
0.0
  0
LINE
  5
11D
330
1F
100
AcDbEntity
  8
0
  6
Continuous
 62
     7
370
    15
100
AcDbLine
 10
0.537019436
 20
-0.0458659627
 30
0.0
 11
0.5236675303
 21
-0.0362750892
 31
0.0
  0
ARC
  5
11E
330
1F
100
AcDbEntity
  8
0
  6
Continuous
 62
     7
370
    15
100
AcDbCircle
 10
-11.5752610118
 20
1.7696084723
 30
0.0
 40
11.24657625355407
100
AcDbArc
 50
351.7201384198
 51
359.3652967201
  0
ARC
  5
11F
330
1F
100
AcDbEntity
  8
0
  6
Continuous
 62
     7
370
    15
100
AcDbCircle
 10
-10.9919004801
 20
2.4934176988
 30
0.0
 40
10.78348375688869
100
AcDbArc
 50
352.6986942935
 51
356.1327805425
  0
ARC
  5
120
330
1F
100
AcDbEntity
  8
0
  6
Continuous
 62
     7
370
    15
100
AcDbCircle
 10
-11.4265633272
 20
1.7593080021
 30
0.0
 40
11.24657625355474
100
AcDbArc
 50
351.7201384198
 51
359.3652967201
  0
ARC
  5
121
330
1F
100
AcDbEntity
  8
0
  6
Continuous
 62
     7
370
    15
100
AcDbCircle
 10
-10.8432027955
 20
2.4831172287
 30
0.0
 40
10.78348375688792
100
AcDbArc
 50
352.6986942935
 51
356.1327805425
  0
ARC
  5
122
330
1F
100
AcDbEntity
  8
0
  6
Continuous
 62
     7
370
    15
100
AcDbCircle
 10
-11.2778656426
 20
1.7490075319
 30
0.0
 40
11.24657625355421
100
AcDbArc
 50
351.7201384198
 51
359.3652967201
  0
ARC
  5
123
330
1F
100
AcDbEntity
  8
0
  6
Continuous
 62
     7
370
    15
100
AcDbCircle
 10
-10.6945051109
 20
2.4728167585
 30
0.0
 40
10.78348375688773
100
AcDbArc
 50
352.6986942935
 51
356.1327805425
  0
ARC
  5
124
330
1F
100
AcDbEntity
  8
0
  6
Continuous
 62
     7
370
    15
100
AcDbCircle
 10
-11.1291679579
 20
1.7387070618
 30
0.0
 40
11.24657625355421
100
AcDbArc
 50
351.7201384198
 51
359.3652967201
  0
ARC
  5
125
330
1F
100
AcDbEntity
  8
0
  6
Continuous
 62
     7
370
    15
100
AcDbCircle
 10
-10.5458074262
 20
2.4625162883
 30
0.0
 40
10.78348375688759
100
AcDbArc
 50
352.6986942935
 51
356.1327805425
  0
ARC
  5
126
330
1F
100
AcDbEntity
  8
0
  6
Continuous
 62
     7
370
    15
100
AcDbCircle
 10
-14.7707905603
 20
1.396720122
 30
0.0
 40
14.46739806726512
100
AcDbArc
 50
354.5614521881
 51
358.0737571483
  0
ARC
  5
127
330
1F
100
AcDbEntity
  8
0
  6
Continuous
 62
     7
370
    15
100
AcDbCircle
 10
-10.9804702733
 20
1.7284065916
 30
0.0
 40
11.24657625355422
100
AcDbArc
 50
351.7201384198
 51
359.3652967201
  0
ARC
  5
128
330
1F
100
AcDbEntity
  8
0
  6
Continuous
 62
     7
370
    15
100
AcDbCircle
 10
-10.3971097416
 20
2.4522158182
 30
0.0
 40
10.78348375688725
100
AcDbArc
 50
352.6986942935
 51
356.1327805425
  0
ARC
  5
129
330
1F
100
AcDbEntity
  8
0
  6
Continuous
 62
     7
370
    15
100
AcDbCircle
 10
-14.6220928757
 20
1.3864196518
 30
0.0
 40
14.46739806726467
100
AcDbArc
 50
354.5614521881
 51
358.0737571483
  0
ARC
  5
12A
330
1F
100
AcDbEntity
  8
0
  6
Continuous
 62
     7
370
    15
100
AcDbCircle
 10
-10.8317725886
 20
1.7181061215
 30
0.0
 40
11.24657625355414
100
AcDbArc
 50
351.7201384198
 51
359.3652967201
  0
ARC
  5
12B
330
1F
100
AcDbEntity
  8
0
  6
Continuous
 62
     7
370
    15
100
AcDbCircle
 10
-10.248412057
 20
2.441915348
 30
0.0
 40
10.78348375688642
100
AcDbArc
 50
352.6986942935
 51
356.1327805425
  0
ARC
  5
12C
330
1F
100
AcDbEntity
  8
0
  6
Continuous
 62
     7
370
    15
100
AcDbCircle
 10
-14.473395191
 20
1.3761191817
 30
0.0
 40
14.46739806726452
100
AcDbArc
 50
354.5614521881
 51
358.0737571483
  0
ARC
  5
12D
330
1F
100
AcDbEntity
  8
0
  6
Continuous
 62
     7
370
    15
100
AcDbCircle
 10
-10.683074904
 20
1.7078056513
 30
0.0
 40
11.24657625355442
100
AcDbArc
 50
351.7201384198
 51
359.3652967201
  0
ARC
  5
12E
330
1F
100
AcDbEntity
  8
0
  6
Continuous
 62
     7
370
    15
100
AcDbCircle
 10
-10.0997143723
 20
2.4316148779
 30
0.0
 40
10.78348375688892
100
AcDbArc
 50
352.6986942935
 51
356.1327805425
  0
ARC
  5
12F
330
1F
100
AcDbEntity
  8
0
  6
Continuous
 62
     7
370
    15
100
AcDbCircle
 10
-14.3246975064
 20
1.3658187115
 30
0.0
 40
14.46739806726458
100
AcDbArc
 50
354.5614521881
 51
358.0737571483
  0
ARC
  5
130
330
1F
100
AcDbEntity
  8
0
  6
Continuous
 62
     7
370
    15
100
AcDbCircle
 10
-10.5343772194
 20
1.6975051811
 30
0.0
 40
11.24657625355456
100
AcDbArc
 50
351.7201384198
 51
359.3652967201
  0
ARC
  5
131
330
1F
100
AcDbEntity
  8
0
  6
Continuous
 62
     7
370
    15
100
AcDbCircle
 10
-14.1759998218
 20
1.3555182413
 30
0.0
 40
14.46739806726453
100
AcDbArc
 50
354.5614521881
 51
358.0737571483
  0
ARC
  5
132
330
1F
100
AcDbEntity
  8
0
  6
Continuous
 62
     7
370
    15
100
AcDbCircle
 10
-14.0273021371
 20
1.3452177712
 30
0.0
 40
14.46739806726416
100
AcDbArc
 50
354.5614521881
 51
358.0737571483
  0
ARC
  5
133
330
1F
100
AcDbEntity
  8
0
  6
Continuous
 62
     7
370
    15
100
AcDbCircle
 10
-13.8786044525
 20
1.334917301
 30
0.0
 40
14.46739806726591
100
AcDbArc
 50
354.5614521881
 51
358.0737571483
  0
MTEXT
  5
135
330
1F
100
AcDbEntity
  8
0
  6
Continuous
 62
     7
100
AcDbMText
 10
-1.4869768463
 20
-0.0952317847
 30
0.0
 40
0.1903
 41
0.0
 71
     1
 72
     1
  1
SolidWorks Educational Edition.
  7
SLDTEXTSTYLE0
 73
     1
 44
1.0
  0
MTEXT
  5
136
330
1F
100
AcDbEntity
  8
0
  6
Continuous
 62
     7
100
AcDbMText
 10
-1.4869768463
 20
-0.3806817847
 30
0.0
 40
0.1903
 41
0.0
 71
     1
 72
     1
  1
For Instructional Use Only.
  7
SLDTEXTSTYLE0
 73
     1
 44
1.0
  0
ENDSEC
  0
SECTION
  2
OBJECTS
  0
DICTIONARY
  5
C
330
0
100
AcDbDictionary
281
     1
  3
ACAD_GROUP
350
D
  3
ACAD_LAYOUT
350
1A
  3
ACAD_MLINESTYLE
350
17
  3
ACAD_PLOTSETTINGS
350
19
  3
ACAD_PLOTSTYLENAME
350
E
  0
DICTIONARY
  5
D
102
{ACAD_REACTORS
330
C
102
}
330
C
100
AcDbDictionary
281
     1
  0
DICTIONARY
  5
1A
102
{ACAD_REACTORS
330
C
102
}
330
C
100
AcDbDictionary
281
     1
  3
Layout1
350
1E
  3
Layout2
350
26
  3
Model
350
22
  0
DICTIONARY
  5
17
102
{ACAD_REACTORS
330
C
102
}
330
C
100
AcDbDictionary
281
     1
  3
Standard
350
18
  0
DICTIONARY
  5
19
102
{ACAD_REACTORS
330
C
102
}
330
C
100
AcDbDictionary
281
     1
  0
ACDBDICTIONARYWDFLT
  5
E
102
{ACAD_REACTORS
330
C
102
}
330
C
100
AcDbDictionary
281
     1
  3
Normal
350
F
100
AcDbDictionaryWithDefault
340
F
  0
LAYOUT
  5
1E
102
{ACAD_REACTORS
330
1A
102
}
330
1A
100
AcDbPlotSettings
  1

  2
none_device
  4

  6

 40
0.0
 41
0.0
 42
0.0
 43
0.0
 44
0.0
 45
0.0
 46
0.0
 47
0.0
 48
0.0
 49
0.0
140
0.0
141
0.0
142
1.0
143
1.0
 70
   688
 72
     0
 73
     0
 74
     5
  7

 75
    16
147
1.0
148
0.0
149
0.0
100
AcDbLayout
  1
Layout1
 70
     1
 71
     1
 10
0.0
 20
0.0
 11
12.0
 21
9.0
 12
0.0
 22
0.0
 32
0.0
 14
1.0000000000E+20
 24
1.0000000000E+20
 34
1.0000000000E+20
 15
-1.0000000000E+20
 25
-1.0000000000E+20
 35
-1.0000000000E+20
146
0.0
 13
0.0
 23
0.0
 33
0.0
 16
1.0
 26
0.0
 36
0.0
 17
0.0
 27
1.0
 37
0.0
 76
     0
330
1B
  0
LAYOUT
  5
26
102
{ACAD_REACTORS
330
1A
102
}
330
1A
100
AcDbPlotSettings
  1

  2
none_device
  4

  6

 40
0.0
 41
0.0
 42
0.0
 43
0.0
 44
0.0
 45
0.0
 46
0.0
 47
0.0
 48
0.0
 49
0.0
140
0.0
141
0.0
142
1.0
143
1.0
 70
   688
 72
     0
 73
     0
 74
     5
  7

 75
    16
147
1.0
148
0.0
149
0.0
100
AcDbLayout
  1
Layout2
 70
     1
 71
     2
 10
0.0
 20
0.0
 11
0.0
 21
0.0
 12
0.0
 22
0.0
 32
0.0
 14
0.0
 24
0.0
 34
0.0
 15
0.0
 25
0.0
 35
0.0
146
0.0
 13
0.0
 23
0.0
 33
0.0
 16
1.0
 26
0.0
 36
0.0
 17
0.0
 27
1.0
 37
0.0
 76
     0
330
23
  0
LAYOUT
  5
22
102
{ACAD_REACTORS
330
1A
102
}
330
1A
100
AcDbPlotSettings
  1

  2
none_device
  4
ANSI_A_(11.00_x_8.50_Inches)
  6

 40
6.35
 41
19.05
 42
6.35000508
 43
19.05000254
 44
279.4
 45
215.9
 46
171.7687270879
 47
-11.7690465233
 48
0.0
 49
0.0
140
0.0
141
0.0
142
4.4317601261
143
1.0
 70
  1696
 72
     0
 73
     0
 74
     0
  7

 75
     0
147
0.5913241897
148
0.0
149
0.0
100
AcDbLayout
  1
Model
 70
     1
 71
     0
 10
0.0
 20
0.0
 11
12.0
 21
9.0
 12
0.0
 22
0.0
 32
0.0
 14
-1.4869768463
 24
-0.0550913756
 34
0.0
 15
0.8043819551
 25
1.8437027289
 35
0.0
146
0.0
 13
0.0
 23
0.0
 33
0.0
 16
1.0
 26
0.0
 36
0.0
 17
0.0
 27
1.0
 37
0.0
 76
     0
330
1F
331
29
  0
MLINESTYLE
  5
18
102
{ACAD_REACTORS
330
17
102
}
330
17
100
AcDbMlineStyle
  2
Standard
 70
     0
  3

 62
   256
 51
90.0
 52
90.0
 71
     2
 49
0.5
 62
   256
  6
BYLAYER
 49
-0.5
 62
   256
  6
BYLAYER
  0
ACDBPLACEHOLDER
  5
F
102
{ACAD_REACTORS
330
E
102
}
330
E
  0
ENDSEC
  0
EOF
